WaldbaTint-Regular.ufo
<glyph name="exclam" format="2">
  <advance width="1278"/>
  <unicode hex="0021"/>
  <outline>
    <contour>
      <point x="590" y="412" type="line"/>
      <point x="551" y="1217" type="line"/>
      <point x="729" y="1217" type="line"/>
      <point x="688" y="412" type="line"/>
    </contour>
    <contour>
      <point x="639" y="225" type="qcurve"/>
      <point x="702" y="225"/>
      <point x="786" y="150"/>
      <point x="786" y="94" type="qcurve"/>
      <point x="786" y="39"/>
      <point x="700" y="-37"/>
      <point x="639" y="-37" type="qcurve"/>
      <point x="578" y="-37"/>
      <point x="492" y="41"/>
      <point x="492" y="96" type="qcurve"/>
      <point x="492" y="152"/>
      <point x="578" y="225"/>
    </contour>
  </outline>
</glyph>
<glyph name="quotedbl" format="2">
  <advance width="624"/>
  <unicode hex="0022"/>
  <outline>
    <contour>
      <point x="252" y="293" type="line"/>
      <point x="175" y="293" type="line"/>
      <point x="163" y="586" type="line"/>
      <point x="262" y="586" type="line"/>
    </contour>
    <contour>
      <point x="449" y="293" type="line"/>
      <point x="372" y="293" type="line"/>
      <point x="362" y="586" type="line"/>
      <point x="461" y="586" type="line"/>
    </contour>
  </outline>
</glyph>
<glyph name="numbersign" format="2">
  <advance width="1278"/>
  <unicode hex="0023"/>
  <outline>
    <contour>
      <point x="502" y="967" type="line"/>
      <point x="811" y="967" type="line"/>
      <point x="838" y="1403" type="line"/>
      <point x="938" y="1403" type="line"/>
      <point x="911" y="967" type="line"/>
      <point x="1112" y="967" type="line"/>
      <point x="1112" y="829" type="line"/>
      <point x="905" y="829" type="line"/>
      <point x="885" y="473" type="line"/>
      <point x="1112" y="473" type="line"/>
      <point x="1112" y="334" type="line"/>
      <point x="877" y="334" type="line"/>
      <point x="852" y="-121" type="line"/>
      <point x="752" y="-121" type="line"/>
      <point x="778" y="334" type="line"/>
      <point x="467" y="334" type="line"/>
      <point x="442" y="-121" type="line"/>
      <point x="342" y="-121" type="line"/>
      <point x="367" y="334" type="line"/>
      <point x="166" y="334" type="line"/>
      <point x="166" y="473" type="line"/>
      <point x="375" y="473" type="line"/>
      <point x="395" y="829" type="line"/>
      <point x="166" y="829" type="line"/>
      <point x="166" y="967" type="line"/>
      <point x="403" y="967" type="line"/>
      <point x="428" y="1403" type="line"/>
      <point x="528" y="1403" type="line"/>
    </contour>
    <contour>
      <point x="475" y="473" type="line"/>
      <point x="784" y="473" type="line"/>
      <point x="805" y="829" type="line"/>
      <point x="496" y="829" type="line"/>
    </contour>
  </outline>
</glyph>
<glyph name="dollar" format="2">
  <advance width="624"/>
  <unicode hex="0024"/>
  <outline>
    <contour>
      <point x="495" y="569" type="line"/>
      <point x="494" y="558"/>
      <point x="493" y="535"/>
      <point x="493" y="519" type="qcurve"/>
      <point x="493" y="469"/>
      <point x="501" y="393"/>
      <point x="504" y="367" type="qcurve"/>
      <point x="457" y="362" type="line"/>
      <point x="449" y="413"/>
      <point x="420" y="474"/>
      <point x="386" y="508"/>
      <point x="349" y="520"/>
      <point x="335" y="523" type="qcurve"/>
      <point x="335" y="311" type="line"/>
      <point x="367" y="302"/>
      <point x="431" y="281"/>
      <point x="480" y="249"/>
      <point x="511" y="199"/>
      <point x="511" y="161" type="qcurve"/>
      <point x="511" y="128"/>
      <point x="484" y="77"/>
      <point x="436" y="40"/>
      <point x="371" y="18"/>
      <point x="335" y="15" type="qcurve"/>
      <point x="335" y="-141" type="line"/>
      <point x="285" y="-141" type="line"/>
      <point x="285" y="15" type="line"/>
      <point x="277" y="15"/>
      <point x="263" y="16"/>
      <point x="244" y="21"/>
      <point x="218" y="28"/>
      <point x="199" y="34" type="qcurve"/>
      <point x="187" y="38"/>
      <point x="178" y="40"/>
      <point x="176" y="40" type="qcurve"/>
      <point x="165" y="40"/>
      <point x="162" y="27"/>
      <point x="161" y="9" type="qcurve"/>
      <point x="112" y="9" type="line"/>
      <point x="115" y="67"/>
      <point x="109" y="159"/>
      <point x="102" y="211" type="qcurve"/>
      <point x="151" y="211" type="line"/>
      <point x="154" y="193"/>
      <point x="166" y="147"/>
      <point x="194" y="103"/>
      <point x="244" y="70"/>
      <point x="285" y="64" type="qcurve"/>
      <point x="285" y="271" type="line"/>
      <point x="259" y="279"/>
      <point x="201" y="297"/>
      <point x="152" y="331"/>
      <point x="120" y="383"/>
      <point x="120" y="423" type="qcurve"/>
      <point x="120" y="489"/>
      <point x="210" y="568"/>
      <point x="285" y="574" type="qcurve"/>
      <point x="285" y="682" type="line"/>
      <point x="335" y="682" type="line"/>
      <point x="335" y="574" type="line"/>
      <point x="370" y="570"/>
      <point x="407" y="552" type="qcurve"/>
      <point x="420" y="546"/>
      <point x="427" y="543"/>
      <point x="432" y="543" type="qcurve"/>
      <point x="440" y="543"/>
      <point x="444" y="553"/>
      <point x="446" y="569" type="qcurve"/>
    </contour>
    <contour>
      <point x="285" y="524" type="line"/>
      <point x="272" y="522"/>
      <point x="235" y="514"/>
      <point x="200" y="492"/>
      <point x="174" y="456"/>
      <point x="174" y="425" type="qcurve"/>
      <point x="174" y="400"/>
      <point x="193" y="368"/>
      <point x="225" y="346"/>
      <point x="264" y="332"/>
      <point x="285" y="326" type="qcurve"/>
    </contour>
    <contour>
      <point x="335" y="64" type="line"/>
      <point x="352" y="66"/>
      <point x="393" y="75"/>
      <point x="431" y="97"/>
      <point x="457" y="133"/>
      <point x="457" y="160" type="qcurve"/>
      <point x="457" y="184"/>
      <point x="435" y="216"/>
      <point x="400" y="238"/>
      <point x="357" y="253"/>
      <point x="335" y="259" type="qcurve"/>
    </contour>
  </outline>
</glyph>
<glyph name="percent" format="2">
  <advance width="624"/>
  <unicode hex="0025"/>
  <outline>
    <contour>
      <point x="417" y="263" type="qcurve"/>
      <point x="453" y="263"/>
      <point x="509" y="238"/>
      <point x="546" y="198"/>
      <point x="565" y="148"/>
      <point x="565" y="124" type="qcurve"/>
      <point x="565" y="99"/>
      <point x="545" y="50"/>
      <point x="508" y="10"/>
      <point x="452" y="-15"/>
      <point x="417" y="-15" type="qcurve"/>
      <point x="381" y="-15"/>
      <point x="327" y="10"/>
      <point x="289" y="51"/>
      <point x="270" y="100"/>
      <point x="270" y="124" type="qcurve"/>
      <point x="270" y="147"/>
      <point x="289" y="197"/>
      <point x="326" y="237"/>
      <point x="381" y="263"/>
    </contour>
    <contour>
      <point x="417" y="214" type="qcurve"/>
      <point x="395" y="214"/>
      <point x="362" y="199"/>
      <point x="339" y="174"/>
      <point x="327" y="141"/>
      <point x="327" y="125" type="qcurve"/>
      <point x="327" y="89"/>
      <point x="373" y="34"/>
      <point x="417" y="34" type="qcurve"/>
      <point x="439" y="34"/>
      <point x="473" y="50"/>
      <point x="497" y="76"/>
      <point x="509" y="108"/>
      <point x="509" y="125" type="qcurve"/>
      <point x="509" y="140"/>
      <point x="497" y="173"/>
      <point x="474" y="199"/>
      <point x="440" y="214"/>
    </contour>
    <contour>
      <point x="193" y="639" type="qcurve"/>
      <point x="229" y="639"/>
      <point x="284" y="614"/>
      <point x="321" y="573"/>
      <point x="341" y="524"/>
      <point x="341" y="499" type="qcurve"/>
      <point x="341" y="474"/>
      <point x="321" y="424"/>
      <point x="284" y="385"/>
      <point x="229" y="361"/>
      <point x="193" y="361" type="qcurve"/>
      <point x="159" y="361"/>
      <point x="104" y="386"/>
      <point x="67" y="424"/>
      <point x="47" y="474"/>
      <point x="47" y="499" type="qcurve"/>
      <point x="47" y="523"/>
      <point x="66" y="573"/>
      <point x="103" y="614"/>
      <point x="157" y="639"/>
    </contour>
    <contour>
      <point x="194" y="590" type="qcurve"/>
      <point x="172" y="590"/>
      <point x="137" y="574"/>
      <point x="114" y="548"/>
      <point x="103" y="516"/>
      <point x="103" y="499" type="qcurve"/>
      <point x="103" y="483"/>
      <point x="115" y="450"/>
      <point x="138" y="425"/>
      <point x="173" y="410"/>
      <point x="194" y="410" type="qcurve"/>
      <point x="238" y="410"/>
      <point x="285" y="464"/>
      <point x="285" y="499" type="qcurve"/>
      <point x="285" y="534"/>
      <point x="238" y="590"/>
    </contour>
    <contour>
      <point x="111" y="201" type="line"/>
      <point x="90" y="250" type="line"/>
      <point x="513" y="437" type="line"/>
      <point x="534" y="388" type="line"/>
    </contour>
  </outline>
</glyph>
<glyph name="ampersand" format="2">
  <advance width="624"/>
  <unicode hex="0026"/>
  <outline>
    <contour>
      <point x="550" y="242" type="line"/>
      <point x="488" y="242" type="line"/>
      <point x="469" y="187"/>
      <point x="442" y="130"/>
      <point x="434" y="115" type="qcurve"/>
      <point x="479" y="49" type="line"/>
      <point x="557" y="49" type="line"/>
      <point x="557" y="0" type="line"/>
      <point x="439" y="0" type="line"/>
      <point x="396" y="62" type="line"/>
      <point x="387" y="52"/>
      <point x="362" y="28"/>
      <point x="327" y="6"/>
      <point x="281" y="-8"/>
      <point x="253" y="-8" type="qcurve"/>
      <point x="216" y="-8"/>
      <point x="160" y="18"/>
      <point x="122" y="61"/>
      <point x="102" y="115"/>
      <point x="102" y="144" type="qcurve"/>
      <point x="102" y="197"/>
      <point x="166" y="290"/>
      <point x="226" y="312" type="qcurve"/>
      <point x="226" y="315"/>
      <point x="222" y="319" type="qcurve"/>
      <point x="204" y="345"/>
      <point x="182" y="379"/>
      <point x="170" y="406"/>
      <point x="165" y="428"/>
      <point x="165" y="443" type="qcurve"/>
      <point x="165" y="494"/>
      <point x="237" y="562"/>
      <point x="300" y="562" type="qcurve"/>
      <point x="322" y="562"/>
      <point x="362" y="552"/>
      <point x="382" y="544" type="qcurve"/>
      <point x="404" y="536"/>
      <point x="418" y="532"/>
      <point x="424" y="532" type="qcurve"/>
      <point x="437" y="532"/>
      <point x="457" y="539"/>
      <point x="463" y="541" type="qcurve"/>
      <point x="415" y="466" type="line"/>
      <point x="395" y="480"/>
      <point x="339" y="512"/>
      <point x="300" y="512" type="qcurve"/>
      <point x="278" y="512"/>
      <point x="250" y="499"/>
      <point x="233" y="479"/>
      <point x="227" y="457"/>
      <point x="227" y="447" type="qcurve"/>
      <point x="227" y="428"/>
      <point x="248" y="392"/>
      <point x="267" y="363" type="qcurve"/>
      <point x="402" y="162" type="line"/>
      <point x="412" y="182"/>
      <point x="423" y="207"/>
      <point x="433" y="232"/>
      <point x="443" y="264"/>
      <point x="451" y="291" type="qcurve"/>
      <point x="550" y="291" type="line"/>
    </contour>
    <contour>
      <point x="254" y="275" type="line"/>
      <point x="239" y="268"/>
      <point x="210" y="248"/>
      <point x="186" y="218"/>
      <point x="171" y="180"/>
      <point x="171" y="156" type="qcurve"/>
      <point x="171" y="137"/>
      <point x="181" y="98"/>
      <point x="205" y="66"/>
      <point x="240" y="46"/>
      <point x="265" y="46" type="qcurve"/>
      <point x="285" y="46"/>
      <point x="318" y="58"/>
      <point x="343" y="77"/>
      <point x="362" y="97"/>
      <point x="368" y="104" type="qcurve"/>
    </contour>
  </outline>
</glyph>
<glyph name="quotesingle" format="2">
  <advance width="1278"/>
  <unicode hex="0027"/>
  <outline>
    <contour>
      <point x="717" y="598" type="line"/>
      <point x="557" y="598" type="line"/>
      <point x="518" y="1200" type="line"/>
      <point x="760" y="1200" type="line"/>
    </contour>
  </outline>
</glyph>
<glyph name="parenleft" format="2">
  <advance width="1278"/>
  <unicode hex="0028"/>
  <outline>
    <contour>
      <point x="987" y="1382" type="line"/>
      <point x="952" y="1317"/>
      <point x="866" y="1143"/>
      <point x="791" y="940"/>
      <point x="739" y="709"/>
      <point x="739" y="588" type="qcurve"/>
      <point x="739" y="467"/>
      <point x="791" y="236"/>
      <point x="866" y="33"/>
      <point x="952" y="-141"/>
      <point x="987" y="-205" type="qcurve"/>
      <point x="877" y="-205" type="line"/>
      <point x="817" y="-115"/>
      <point x="721" y="90"/>
      <point x="649" y="299"/>
      <point x="610" y="500"/>
      <point x="610" y="588" type="qcurve"/>
      <point x="610" y="674"/>
      <point x="647" y="874"/>
      <point x="717" y="1083"/>
      <point x="815" y="1290"/>
      <point x="877" y="1382" type="qcurve"/>
    </contour>
  </outline>
</glyph>
<glyph name="parenright" format="2">
  <advance width="1278"/>
  <unicode hex="0029"/>
  <outline>
    <contour>
      <point x="291" y="-205" type="line"/>
      <point x="324" y="-147"/>
      <point x="410" y="23"/>
      <point x="487" y="229"/>
      <point x="541" y="465"/>
      <point x="541" y="588" type="qcurve"/>
      <point x="541" y="711"/>
      <point x="487" y="944"/>
      <point x="410" y="1149"/>
      <point x="324" y="1321"/>
      <point x="291" y="1382" type="qcurve"/>
      <point x="403" y="1382" type="line"/>
      <point x="535" y="1178"/>
      <point x="670" y="754"/>
      <point x="670" y="588" type="qcurve"/>
      <point x="670" y="500"/>
      <point x="633" y="303"/>
      <point x="565" y="96"/>
      <point x="465" y="-111"/>
      <point x="403" y="-205" type="qcurve"/>
    </contour>
  </outline>
</glyph>
<glyph name="asterisk" format="2">
  <advance width="624"/>
  <unicode hex="002A"/>
  <outline>
    <contour>
      <point x="341" y="433" type="line"/>
      <point x="487" y="486" type="line"/>
      <point x="509" y="419" type="line"/>
      <point x="359" y="378" type="line"/>
      <point x="456" y="257" type="line"/>
      <point x="398" y="214" type="line"/>
      <point x="312" y="344" type="line"/>
      <point x="226" y="214" type="line"/>
      <point x="168" y="257" type="line"/>
      <point x="265" y="378" type="line"/>
      <point x="115" y="419" type="line"/>
      <point x="137" y="486" type="line"/>
      <point x="283" y="433" type="line"/>
      <point x="277" y="586" type="line"/>
      <point x="347" y="586" type="line"/>
    </contour>
  </outline>
</glyph>
<glyph name="plus" format="2">
  <advance width="1278"/>
  <unicode hex="002B"/>
  <outline>
    <contour>
      <point x="692" y="698" type="line"/>
      <point x="1137" y="698" type="line"/>
      <point x="1137" y="592" type="line"/>
      <point x="692" y="592" type="line"/>
      <point x="692" y="156" type="line"/>
      <point x="586" y="156" type="line"/>
      <point x="586" y="592" type="line"/>
      <point x="141" y="592" type="line"/>
      <point x="141" y="698" type="line"/>
      <point x="586" y="698" type="line"/>
      <point x="586" y="1135" type="line"/>
      <point x="692" y="1135" type="line"/>
    </contour>
  </outline>
</glyph>
<glyph name="comma" format="2">
  <advance width="1278"/>
  <unicode hex="002C"/>
  <outline>
    <contour>
      <point x="528" y="-231" type="line"/>
      <point x="377" y="-231" type="line"/>
      <point x="539" y="283" type="line"/>
      <point x="760" y="283" type="line"/>
    </contour>
  </outline>
</glyph>
<glyph name="hyphen" format="2">
  <advance width="624"/>
  <unicode hex="002D"/>
  <outline>
    <contour>
      <point x="202" y="330" type="line"/>
      <point x="422" y="330" type="line"/>
      <point x="422" y="272" type="line"/>
      <point x="202" y="272" type="line"/>
    </contour>
  </outline>
</glyph>
<glyph name="period" format="2">
  <advance width="624"/>
  <unicode hex="002E"/>
  <outline>
    <contour>
      <point x="312" y="124" type="qcurve"/>
      <point x="328" y="124"/>
      <point x="356" y="113"/>
      <point x="379" y="95"/>
      <point x="392" y="69"/>
      <point x="392" y="53" type="qcurve"/>
      <point x="392" y="36"/>
      <point x="378" y="10"/>
      <point x="355" y="-8"/>
      <point x="327" y="-18"/>
      <point x="312" y="-18" type="qcurve"/>
      <point x="298" y="-18"/>
      <point x="270" y="-8"/>
      <point x="246" y="9"/>
      <point x="232" y="35"/>
      <point x="232" y="53" type="qcurve"/>
      <point x="232" y="70"/>
      <point x="246" y="96"/>
      <point x="269" y="114"/>
      <point x="297" y="124"/>
    </contour>
  </outline>
</glyph>
<glyph name="slash" format="2">
  <advance width="1278"/>
  <unicode hex="002F"/>
  <outline>
    <contour>
      <point x="285" y="-283" type="line"/>
      <point x="195" y="-242" type="line"/>
      <point x="993" y="1495" type="line"/>
      <point x="1083" y="1456" type="line"/>
    </contour>
  </outline>
</glyph>
<glyph name="zero" format="2">
  <advance width="624"/>
  <unicode hex="0030"/>
  <outline>
    <contour>
      <point x="312" y="646" type="qcurve"/>
      <point x="375" y="646"/>
      <point x="453" y="580"/>
      <point x="495" y="482"/>
      <point x="510" y="366"/>
      <point x="510" y="315" type="qcurve"/>
      <point x="510" y="264"/>
      <point x="495" y="149"/>
      <point x="453" y="50"/>
      <point x="375" y="-15"/>
      <point x="312" y="-15" type="qcurve"/>
      <point x="249" y="-15"/>
      <point x="171" y="51"/>
      <point x="129" y="149"/>
      <point x="114" y="265"/>
      <point x="114" y="315" type="qcurve"/>
      <point x="114" y="366"/>
      <point x="129" y="482"/>
      <point x="171" y="580"/>
      <point x="249" y="646"/>
    </contour>
    <contour>
      <point x="312" y="599" type="qcurve"/>
      <point x="265" y="599"/>
      <point x="209" y="541"/>
      <point x="179" y="456"/>
      <point x="170" y="357"/>
      <point x="170" y="316" type="qcurve"/>
      <point x="170" y="275"/>
      <point x="179" y="176"/>
      <point x="209" y="89"/>
      <point x="265" y="32"/>
      <point x="311" y="32" type="qcurve"/>
      <point x="358" y="32"/>
      <point x="414" y="90"/>
      <point x="445" y="176"/>
      <point x="454" y="276"/>
      <point x="454" y="316" type="qcurve"/>
      <point x="454" y="358"/>
      <point x="445" y="457"/>
      <point x="415" y="542"/>
      <point x="359" y="599"/>
    </contour>
  </outline>
</glyph>
<glyph name="one" format="2">
  <advance width="624"/>
  <unicode hex="0031"/>
  <outline>
    <contour>
      <point x="347" y="646" type="line"/>
      <point x="347" y="49" type="line"/>
      <point x="525" y="49" type="line"/>
      <point x="525" y="0" type="line"/>
      <point x="114" y="0" type="line"/>
      <point x="114" y="49" type="line"/>
      <point x="295" y="49" type="line"/>
      <point x="295" y="586" type="line"/>
      <point x="129" y="509" type="line"/>
      <point x="108" y="554" type="line"/>
      <point x="314" y="646" type="line"/>
    </contour>
  </outline>
</glyph>
<glyph name="two" format="2">
  <advance width="624"/>
  <unicode hex="0032"/>
  <outline>
    <contour>
      <point x="491" y="0" type="line"/>
      <point x="85" y="0" type="line"/>
      <point x="85" y="55" type="line"/>
      <point x="102" y="70"/>
      <point x="173" y="132"/>
      <point x="257" y="208"/>
      <point x="343" y="288"/>
      <point x="374" y="320" type="qcurve"/>
      <point x="412" y="358"/>
      <point x="436" y="419"/>
      <point x="436" y="456" type="qcurve"/>
      <point x="436" y="493"/>
      <point x="406" y="545"/>
      <point x="362" y="578"/>
      <point x="312" y="594"/>
      <point x="292" y="594" type="qcurve"/>
      <point x="278" y="594"/>
      <point x="231" y="584"/>
      <point x="188" y="560"/>
      <point x="158" y="518"/>
      <point x="160" y="486" type="qcurve"/>
      <point x="106" y="486" type="line"/>
      <point x="106" y="553" type="line"/>
      <point x="135" y="588"/>
      <point x="197" y="626"/>
      <point x="250" y="643"/>
      <point x="288" y="646"/>
      <point x="294" y="646" type="qcurve"/>
      <point x="331" y="646"/>
      <point x="401" y="619"/>
      <point x="458" y="569"/>
      <point x="492" y="497"/>
      <point x="492" y="453" type="qcurve"/>
      <point x="492" y="420"/>
      <point x="475" y="368"/>
      <point x="457" y="338" type="qcurve"/>
      <point x="444" y="318"/>
      <point x="386" y="255"/>
      <point x="305" y="178"/>
      <point x="207" y="93"/>
      <point x="155" y="51" type="qcurve"/>
      <point x="155" y="49" type="line"/>
      <point x="442" y="49" type="line"/>
      <point x="442" y="152" type="line"/>
      <point x="491" y="152" type="line"/>
    </contour>
  </outline>
</glyph>
<glyph name="three" format="2">
  <advance width="1278"/>
  <unicode hex="0033"/>
  <outline>
    <contour>
      <point x="219" y="168" type="line"/>
      <point x="301" y="129"/>
      <point x="483" y="70"/>
      <point x="573" y="70" type="qcurve"/>
      <point x="631" y="70"/>
      <point x="743" y="106"/>
      <point x="834" y="180"/>
      <point x="887" y="289"/>
      <point x="887" y="360" type="qcurve"/>
      <point x="887" y="434"/>
      <point x="836" y="532"/>
      <point x="774" y="590"/>
      <point x="715" y="616"/>
      <point x="709" y="618" type="qcurve"/>
      <point x="653" y="637"/>
      <point x="553" y="641"/>
      <point x="502" y="637" type="qcurve"/>
      <point x="502" y="737" type="line"/>
      <point x="549" y="737"/>
      <point x="657" y="750"/>
      <point x="707" y="782" type="qcurve"/>
      <point x="760" y="817"/>
      <point x="817" y="928"/>
      <point x="817" y="991" type="qcurve"/>
      <point x="817" y="1100"/>
      <point x="674" y="1223"/>
      <point x="565" y="1223" type="qcurve"/>
      <point x="481" y="1223"/>
      <point x="344" y="1153"/>
      <point x="297" y="1122" type="qcurve"/>
      <point x="258" y="1100" type="line"/>
      <point x="205" y="1182" type="line"/>
      <point x="295" y="1239"/>
      <point x="465" y="1323"/>
      <point x="567" y="1323" type="qcurve"/>
      <point x="635" y="1323"/>
      <point x="764" y="1278"/>
      <point x="866" y="1192"/>
      <point x="928" y="1071"/>
      <point x="928" y="993" type="qcurve"/>
      <point x="928" y="922"/>
      <point x="889" y="819"/>
      <point x="834" y="750"/>
      <point x="780" y="711"/>
      <point x="764" y="702" type="qcurve"/>
      <point x="799" y="690"/>
      <point x="877" y="635"/>
      <point x="948" y="551"/>
      <point x="995" y="436"/>
      <point x="995" y="365" type="qcurve"/>
      <point x="995" y="274"/>
      <point x="928" y="127"/>
      <point x="811" y="25"/>
      <point x="655" y="-31"/>
      <point x="567" y="-31" type="qcurve"/>
      <point x="518" y="-31"/>
      <point x="434" y="-16"/>
      <point x="348" y="10"/>
      <point x="246" y="49"/>
      <point x="178" y="74" type="qcurve"/>
    </contour>
  </outline>
</glyph>
<glyph name="four" format="2">
  <advance width="624"/>
  <unicode hex="0034"/>
  <outline>
    <contour>
      <point x="499" y="202" type="line"/>
      <point x="499" y="152" type="line"/>
      <point x="406" y="152" type="line"/>
      <point x="406" y="49" type="line"/>
      <point x="499" y="49" type="line"/>
      <point x="499" y="0" type="line"/>
      <point x="215" y="0" type="line"/>
      <point x="215" y="49" type="line"/>
      <point x="356" y="49" type="line"/>
      <point x="356" y="152" type="line"/>
      <point x="77" y="152" type="line"/>
      <point x="77" y="212" type="line"/>
      <point x="335" y="646" type="line"/>
      <point x="406" y="646" type="line"/>
      <point x="406" y="202" type="line"/>
    </contour>
    <contour>
      <point x="356" y="586" type="line"/>
      <point x="354" y="586" type="line"/>
      <point x="128" y="202" type="line"/>
      <point x="356" y="202" type="line"/>
    </contour>
  </outline>
</glyph>
<glyph name="five" format="2">
  <advance width="624"/>
  <unicode hex="0035"/>
  <outline>
    <contour>
      <point x="478" y="580" type="line"/>
      <point x="178" y="580" type="line"/>
      <point x="178" y="370" type="line"/>
      <point x="202" y="381"/>
      <point x="262" y="399"/>
      <point x="304" y="399" type="qcurve"/>
      <point x="350" y="399"/>
      <point x="426" y="367"/>
      <point x="479" y="312"/>
      <point x="509" y="237"/>
      <point x="509" y="196" type="qcurve"/>
      <point x="509" y="164"/>
      <point x="488" y="90"/>
      <point x="437" y="28"/>
      <point x="353" y="-15"/>
      <point x="290" y="-15" type="qcurve"/>
      <point x="262" y="-15"/>
      <point x="214" y="-8"/>
      <point x="167" y="4"/>
      <point x="121" y="22"/>
      <point x="95" y="32" type="qcurve"/>
      <point x="113" y="79" type="line"/>
      <point x="126" y="74"/>
      <point x="162" y="59"/>
      <point x="207" y="47"/>
      <point x="259" y="37"/>
      <point x="286" y="37" type="qcurve"/>
      <point x="329" y="37"/>
      <point x="391" y="61"/>
      <point x="433" y="104"/>
      <point x="452" y="160"/>
      <point x="452" y="193" type="qcurve"/>
      <point x="452" y="225"/>
      <point x="432" y="282"/>
      <point x="391" y="326"/>
      <point x="333" y="350"/>
      <point x="295" y="350" type="qcurve"/>
      <point x="256" y="350"/>
      <point x="189" y="324"/>
      <point x="157" y="301" type="qcurve"/>
      <point x="131" y="315" type="line"/>
      <point x="131" y="630" type="line"/>
      <point x="478" y="630" type="line"/>
    </contour>
  </outline>
</glyph>
<glyph name="six" format="2">
  <advance width="624"/>
  <unicode hex="0036"/>
  <outline>
    <contour>
      <point x="505" y="594" type="line"/>
      <point x="447" y="597"/>
      <point x="335" y="589"/>
      <point x="241" y="535"/>
      <point x="176" y="416"/>
      <point x="164" y="309" type="qcurve"/>
      <point x="166" y="307" type="line"/>
      <point x="173" y="314"/>
      <point x="197" y="341"/>
      <point x="234" y="366"/>
      <point x="284" y="385"/>
      <point x="317" y="385" type="qcurve"/>
      <point x="358" y="385"/>
      <point x="425" y="352"/>
      <point x="473" y="295"/>
      <point x="499" y="223"/>
      <point x="499" y="183" type="qcurve"/>
      <point x="499" y="144"/>
      <point x="472" y="72"/>
      <point x="423" y="18"/>
      <point x="356" y="-15"/>
      <point x="315" y="-15" type="qcurve"/>
      <point x="284" y="-15"/>
      <point x="210" y="12"/>
      <point x="148" y="78"/>
      <point x="106" y="187"/>
      <point x="106" y="270" type="qcurve"/>
      <point x="106" y="295"/>
      <point x="116" y="393"/>
      <point x="155" y="502"/>
      <point x="234" y="601"/>
      <point x="303" y="626" type="qcurve"/>
      <point x="314" y="630"/>
      <point x="346" y="639"/>
      <point x="393" y="645"/>
      <point x="460" y="648"/>
      <point x="505" y="646" type="qcurve"/>
    </contour>
    <contour>
      <point x="164" y="220" type="qcurve"/>
      <point x="167" y="166"/>
      <point x="201" y="96"/>
      <point x="245" y="54"/>
      <point x="295" y="37"/>
      <point x="315" y="37" type="qcurve"/>
      <point x="340" y="37"/>
      <point x="386" y="57"/>
      <point x="422" y="95"/>
      <point x="443" y="149"/>
      <point x="443" y="183" type="qcurve"/>
      <point x="443" y="212"/>
      <point x="424" y="267"/>
      <point x="392" y="308"/>
      <point x="345" y="333"/>
      <point x="317" y="333" type="qcurve"/>
      <point x="309" y="333"/>
      <point x="271" y="328"/>
      <point x="227" y="306"/>
      <point x="181" y="261"/>
    </contour>
  </outline>
</glyph>
<glyph name="seven" format="2">
  <advance width="624"/>
  <unicode hex="0037"/>
  <outline>
    <contour>
      <point x="508" y="581" type="line"/>
      <point x="306" y="0" type="line"/>
      <point x="245" y="0" type="line"/>
      <point x="456" y="581" type="line"/>
      <point x="150" y="581" type="line"/>
      <point x="150" y="486" type="line"/>
      <point x="99" y="486" type="line"/>
      <point x="99" y="630" type="line"/>
      <point x="508" y="630" type="line"/>
    </contour>
  </outline>
</glyph>
<glyph name="eight" format="2">
  <advance width="624"/>
  <unicode hex="0038"/>
  <outline>
    <contour>
      <point x="216" y="321" type="qcurve"/>
      <point x="206" y="327"/>
      <point x="174" y="352"/>
      <point x="145" y="390"/>
      <point x="123" y="442"/>
      <point x="123" y="475" type="qcurve"/>
      <point x="123" y="511"/>
      <point x="152" y="572"/>
      <point x="203" y="619"/>
      <point x="271" y="646"/>
      <point x="312" y="646" type="qcurve"/>
      <point x="353" y="646"/>
      <point x="421" y="619"/>
      <point x="472" y="572"/>
      <point x="501" y="511"/>
      <point x="501" y="475" type="qcurve"/>
      <point x="501" y="434"/>
      <point x="457" y="348"/>
      <point x="408" y="321" type="qcurve"/>
      <point x="436" y="309"/>
      <point x="475" y="271"/>
      <point x="501" y="229"/>
      <point x="513" y="184"/>
      <point x="513" y="164" type="qcurve"/>
      <point x="513" y="135"/>
      <point x="489" y="72"/>
      <point x="439" y="20"/>
      <point x="363" y="-15"/>
      <point x="312" y="-15" type="qcurve"/>
      <point x="260" y="-15"/>
      <point x="185" y="20"/>
      <point x="135" y="72"/>
      <point x="111" y="135"/>
      <point x="111" y="164" type="qcurve"/>
      <point x="111" y="213"/>
      <point x="170" y="301"/>
    </contour>
    <contour>
      <point x="312" y="597" type="qcurve"/>
      <point x="276" y="597"/>
      <point x="225" y="573"/>
      <point x="193" y="536"/>
      <point x="179" y="493"/>
      <point x="179" y="474" type="qcurve"/>
      <point x="179" y="450"/>
      <point x="198" y="405"/>
      <point x="232" y="368"/>
      <point x="282" y="345"/>
      <point x="312" y="345" type="qcurve"/>
      <point x="337" y="345"/>
      <point x="385" y="363"/>
      <point x="422" y="397"/>
      <point x="445" y="444"/>
      <point x="445" y="474" type="qcurve"/>
      <point x="445" y="505"/>
      <point x="421" y="551"/>
      <point x="384" y="581"/>
      <point x="336" y="597"/>
    </contour>
    <contour>
      <point x="312" y="296" type="qcurve"/>
      <point x="276" y="296"/>
      <point x="222" y="272"/>
      <point x="185" y="234"/>
      <point x="167" y="187"/>
      <point x="167" y="164" type="qcurve"/>
      <point x="167" y="138"/>
      <point x="189" y="92"/>
      <point x="229" y="55"/>
      <point x="281" y="34"/>
      <point x="312" y="34" type="qcurve"/>
      <point x="343" y="34"/>
      <point x="395" y="55"/>
      <point x="435" y="92"/>
      <point x="457" y="138"/>
      <point x="457" y="164" type="qcurve"/>
      <point x="457" y="187"/>
      <point x="438" y="235"/>
      <point x="401" y="272"/>
      <point x="347" y="296"/>
    </contour>
  </outline>
</glyph>
<glyph name="nine" format="2">
  <advance width="624"/>
  <unicode hex="0039"/>
  <outline>
    <contour>
      <point x="84" y="37" type="line"/>
      <point x="144" y="34"/>
      <point x="255" y="43"/>
      <point x="347" y="97"/>
      <point x="413" y="215"/>
      <point x="425" y="322" type="qcurve"/>
      <point x="423" y="324" type="line"/>
      <point x="417" y="316"/>
      <point x="393" y="290"/>
      <point x="356" y="265"/>
      <point x="305" y="246"/>
      <point x="272" y="246" type="qcurve"/>
      <point x="232" y="246"/>
      <point x="164" y="280"/>
      <point x="116" y="336"/>
      <point x="90" y="409"/>
      <point x="90" y="448" type="qcurve"/>
      <point x="90" y="488"/>
      <point x="118" y="560"/>
      <point x="166" y="614"/>
      <point x="234" y="646"/>
      <point x="275" y="646" type="qcurve"/>
      <point x="306" y="646"/>
      <point x="380" y="619"/>
      <point x="442" y="553"/>
      <point x="484" y="443"/>
      <point x="484" y="361" type="qcurve"/>
      <point x="484" y="336"/>
      <point x="473" y="238"/>
      <point x="435" y="129"/>
      <point x="356" y="30"/>
      <point x="287" y="5" type="qcurve"/>
      <point x="276" y="1"/>
      <point x="243" y="-8"/>
      <point x="197" y="-15"/>
      <point x="130" y="-17"/>
      <point x="84" y="-15" type="qcurve"/>
    </contour>
    <contour>
      <point x="425" y="411" type="qcurve"/>
      <point x="422" y="465"/>
      <point x="389" y="536"/>
      <point x="344" y="577"/>
      <point x="294" y="594"/>
      <point x="275" y="594" type="qcurve"/>
      <point x="250" y="594"/>
      <point x="204" y="574"/>
      <point x="167" y="537"/>
      <point x="147" y="483"/>
      <point x="147" y="448" type="qcurve"/>
      <point x="147" y="418"/>
      <point x="165" y="364"/>
      <point x="198" y="323"/>
      <point x="244" y="298"/>
      <point x="272" y="298" type="qcurve"/>
      <point x="280" y="298"/>
      <point x="317" y="303"/>
      <point x="363" y="324"/>
      <point x="409" y="370"/>
    </contour>
  </outline>
</glyph>
<glyph name="colon" format="2">
  <advance width="624"/>
  <unicode hex="003A"/>
  <outline>
    <contour>
      <point x="312" y="406" type="qcurve"/>
      <point x="327" y="406"/>
      <point x="355" y="396"/>
      <point x="378" y="378"/>
      <point x="392" y="352"/>
      <point x="392" y="335" type="qcurve"/>
      <point x="392" y="318"/>
      <point x="378" y="292"/>
      <point x="355" y="274"/>
      <point x="326" y="264"/>
      <point x="312" y="264" type="qcurve"/>
      <point x="298" y="264"/>
      <point x="270" y="274"/>
      <point x="246" y="291"/>
      <point x="232" y="317"/>
      <point x="232" y="335" type="qcurve"/>
      <point x="232" y="352"/>
      <point x="246" y="378"/>
      <point x="269" y="396"/>
      <point x="297" y="406"/>
    </contour>
    <contour>
      <point x="312" y="124" type="qcurve"/>
      <point x="327" y="124"/>
      <point x="355" y="114"/>
      <point x="378" y="96"/>
      <point x="392" y="70"/>
      <point x="392" y="53" type="qcurve"/>
      <point x="392" y="36"/>
      <point x="378" y="10"/>
      <point x="355" y="-8"/>
      <point x="326" y="-18"/>
      <point x="312" y="-18" type="qcurve"/>
      <point x="298" y="-18"/>
      <point x="270" y="-8"/>
      <point x="246" y="9"/>
      <point x="232" y="35"/>
      <point x="232" y="53" type="qcurve"/>
      <point x="232" y="70"/>
      <point x="246" y="96"/>
      <point x="269" y="114"/>
      <point x="297" y="124"/>
    </contour>
  </outline>
</glyph>
<glyph name="semicolon" format="2">
  <advance width="624"/>
  <unicode hex="003B"/>
  <outline>
    <contour>
      <point x="262" y="-112" type="line"/>
      <point x="188" y="-112" type="line"/>
      <point x="268" y="139" type="line"/>
      <point x="375" y="139" type="line"/>
    </contour>
    <contour>
      <point x="312" y="406" type="qcurve"/>
      <point x="327" y="406"/>
      <point x="355" y="396"/>
      <point x="378" y="378"/>
      <point x="392" y="352"/>
      <point x="392" y="335" type="qcurve"/>
      <point x="392" y="318"/>
      <point x="378" y="292"/>
      <point x="355" y="274"/>
      <point x="326" y="264"/>
      <point x="312" y="264" type="qcurve"/>
      <point x="298" y="264"/>
      <point x="270" y="274"/>
      <point x="246" y="291"/>
      <point x="232" y="317"/>
      <point x="232" y="335" type="qcurve"/>
      <point x="232" y="352"/>
      <point x="246" y="378"/>
      <point x="269" y="396"/>
      <point x="297" y="406"/>
    </contour>
  </outline>
</glyph>
<glyph name="less" format="2">
  <advance width="1278"/>
  <unicode hex="003C"/>
  <outline>
    <contour>
      <point x="1120" y="1133" type="line"/>
      <point x="1163" y="1036" type="line"/>
      <point x="352" y="655" type="line"/>
      <point x="1163" y="283" type="line"/>
      <point x="1120" y="190" type="line"/>
      <point x="115" y="655" type="line"/>
    </contour>
  </outline>
</glyph>
<glyph name="equal" format="2">
  <advance width="1278"/>
  <unicode hex="003D"/>
  <outline>
    <contour>
      <point x="1141" y="786" type="line"/>
      <point x="137" y="786" type="line"/>
      <point x="137" y="893" type="line"/>
      <point x="1141" y="893" type="line"/>
    </contour>
    <contour>
      <point x="1141" y="401" type="line"/>
      <point x="137" y="401" type="line"/>
      <point x="137" y="508" type="line"/>
      <point x="1141" y="508" type="line"/>
    </contour>
  </outline>
</glyph>
<glyph name="greater" format="2">
  <advance width="624"/>
  <unicode hex="003E"/>
  <outline>
    <contour>
      <point x="77" y="87" type="line"/>
      <point x="56" y="134" type="line"/>
      <point x="452" y="320" type="line"/>
      <point x="56" y="502" type="line"/>
      <point x="77" y="548" type="line"/>
      <point x="568" y="320" type="line"/>
    </contour>
  </outline>
</glyph>
<glyph name="question" format="2">
  <advance width="1278"/>
  <unicode hex="003F"/>
  <outline>
    <contour>
      <point x="256" y="1143" type="line"/>
      <point x="311" y="1163"/>
      <point x="397" y="1190"/>
      <point x="477" y="1210"/>
      <point x="555" y="1219"/>
      <point x="600" y="1219" type="qcurve"/>
      <point x="702" y="1219"/>
      <point x="856" y="1159"/>
      <point x="958" y="1063"/>
      <point x="1010" y="936"/>
      <point x="1010" y="868" type="qcurve"/>
      <point x="1010" y="776"/>
      <point x="928" y="649"/>
      <point x="811" y="569"/>
      <point x="678" y="522"/>
      <point x="625" y="508" type="qcurve"/>
      <point x="625" y="379" type="line"/>
      <point x="520" y="379" type="line"/>
      <point x="520" y="586" type="line"/>
      <point x="524" y="588"/>
      <point x="551" y="594"/>
      <point x="563" y="596" type="qcurve"/>
      <point x="616" y="608"/>
      <point x="735" y="645"/>
      <point x="834" y="707"/>
      <point x="899" y="803"/>
      <point x="899" y="874" type="qcurve"/>
      <point x="899" y="907"/>
      <point x="872" y="991"/>
      <point x="807" y="1065"/>
      <point x="692" y="1114"/>
      <point x="602" y="1114" type="qcurve"/>
      <point x="524" y="1114"/>
      <point x="416" y="1083"/>
      <point x="362" y="1063" type="qcurve"/>
      <point x="362" y="926" type="line"/>
      <point x="256" y="926" type="line"/>
    </contour>
    <contour>
      <point x="567" y="225" type="qcurve"/>
      <point x="629" y="225"/>
      <point x="713" y="152"/>
      <point x="713" y="96" type="qcurve"/>
      <point x="713" y="39"/>
      <point x="627" y="-37"/>
      <point x="567" y="-37" type="qcurve"/>
      <point x="508" y="-37"/>
      <point x="420" y="39"/>
      <point x="420" y="96" type="qcurve"/>
      <point x="420" y="152"/>
      <point x="504" y="225"/>
    </contour>
  </outline>
</glyph>
<glyph name="at" format="2">
  <advance width="1278"/>
  <unicode hex="0040"/>
  <outline>
    <contour>
      <point x="1135" y="121" type="line"/>
      <point x="1133" y="121"/>
      <point x="1124" y="115"/>
      <point x="1122" y="115" type="qcurve"/>
      <point x="1014" y="53"/>
      <point x="754" y="-31"/>
      <point x="614" y="-31" type="qcurve"/>
      <point x="473" y="-31"/>
      <point x="268" y="68"/>
      <point x="135" y="229"/>
      <point x="68" y="440"/>
      <point x="68" y="553" type="qcurve"/>
      <point x="68" y="682"/>
      <point x="147" y="903"/>
      <point x="297" y="1067"/>
      <point x="518" y="1163"/>
      <point x="657" y="1163" type="qcurve"/>
      <point x="776" y="1163"/>
      <point x="975" y="1094"/>
      <point x="1122" y="956"/>
      <point x="1208" y="758"/>
      <point x="1208" y="633" type="qcurve"/>
      <point x="1208" y="543"/>
      <point x="1163" y="391"/>
      <point x="1079" y="285"/>
      <point x="967" y="225"/>
      <point x="899" y="225" type="qcurve"/>
      <point x="874" y="225"/>
      <point x="848" y="229"/>
      <point x="819" y="246"/>
      <point x="784" y="270"/>
      <point x="754" y="291" type="qcurve"/>
      <point x="737" y="305"/>
      <point x="731" y="324"/>
      <point x="731" y="334" type="qcurve"/>
      <point x="717" y="319"/>
      <point x="682" y="281"/>
      <point x="631" y="246"/>
      <point x="567" y="221"/>
      <point x="528" y="221" type="qcurve"/>
      <point x="510" y="221"/>
      <point x="451" y="242"/>
      <point x="397" y="287"/>
      <point x="362" y="373"/>
      <point x="362" y="436" type="qcurve"/>
      <point x="362" y="508"/>
      <point x="412" y="657"/>
      <point x="496" y="782"/>
      <point x="608" y="860"/>
      <point x="676" y="860" type="qcurve"/>
      <point x="729" y="860"/>
      <point x="782" y="799"/>
      <point x="797" y="776" type="qcurve"/>
      <point x="815" y="850" type="line"/>
      <point x="926" y="850" type="line"/>
      <point x="836" y="518" type="line"/>
      <point x="836" y="510"/>
      <point x="813" y="436"/>
      <point x="813" y="412" type="qcurve"/>
      <point x="813" y="387"/>
      <point x="862" y="326"/>
      <point x="911" y="326" type="qcurve"/>
      <point x="952" y="326"/>
      <point x="1022" y="377"/>
      <point x="1075" y="465"/>
      <point x="1106" y="580"/>
      <point x="1106" y="645" type="qcurve"/>
      <point x="1106" y="750"/>
      <point x="1034" y="907"/>
      <point x="911" y="1012"/>
      <point x="748" y="1063"/>
      <point x="653" y="1063" type="qcurve"/>
      <point x="526" y="1063"/>
      <point x="348" y="973"/>
      <point x="231" y="831"/>
      <point x="178" y="647"/>
      <point x="178" y="551" type="qcurve"/>
      <point x="178" y="467"/>
      <point x="225" y="297"/>
      <point x="330" y="158"/>
      <point x="498" y="70"/>
      <point x="621" y="70" type="qcurve"/>
      <point x="754" y="70"/>
      <point x="969" y="147"/>
      <point x="1044" y="188" type="qcurve"/>
      <point x="1075" y="205" type="line"/>
      <point x="1077" y="205"/>
      <point x="1087" y="211"/>
      <point x="1090" y="211" type="qcurve"/>
    </contour>
    <contour>
      <point x="539" y="326" type="qcurve"/>
      <point x="580" y="326"/>
      <point x="651" y="391"/>
      <point x="707" y="487"/>
      <point x="739" y="600"/>
      <point x="739" y="647" type="qcurve"/>
      <point x="739" y="696"/>
      <point x="692" y="754"/>
      <point x="662" y="754" type="qcurve"/>
      <point x="627" y="754"/>
      <point x="555" y="688"/>
      <point x="502" y="590"/>
      <point x="471" y="475"/>
      <point x="471" y="428" type="qcurve"/>
      <point x="471" y="414"/>
      <point x="477" y="379"/>
      <point x="494" y="348"/>
      <point x="520" y="326"/>
    </contour>
  </outline>
</glyph>
<glyph name="A" format="2">
  <advance width="1278"/>
  <unicode hex="0041"/>
  <outline>
    <contour>
      <point x="1149" y="100" type="line"/>
      <point x="1257" y="100" type="line"/>
      <point x="1257" y="0" type="line"/>
      <point x="819" y="0" type="line"/>
      <point x="819" y="100" type="line"/>
      <point x="1036" y="100" type="line"/>
      <point x="915" y="395" type="line"/>
      <point x="360" y="395" type="line"/>
      <point x="242" y="100" type="line"/>
      <point x="459" y="100" type="line"/>
      <point x="459" y="0" type="line"/>
      <point x="20" y="0" type="line"/>
      <point x="20" y="100" type="line"/>
      <point x="135" y="100" type="line"/>
      <point x="545" y="1100" type="line"/>
      <point x="242" y="1100" type="line"/>
      <point x="242" y="1200" type="line"/>
      <point x="698" y="1200" type="line"/>
    </contour>
    <contour>
      <point x="397" y="489" type="line"/>
      <point x="881" y="489" type="line"/>
      <point x="639" y="1073" type="line"/>
    </contour>
  </outline>
</glyph>
<glyph name="B" format="2">
  <advance width="1278"/>
  <unicode hex="0042"/>
  <outline>
    <contour>
      <point x="678" y="1200" type="line"/>
      <point x="803" y="1200"/>
      <point x="940" y="1151"/>
      <point x="1028" y="1069"/>
      <point x="1083" y="958"/>
      <point x="1083" y="891" type="qcurve"/>
      <point x="1083" y="834"/>
      <point x="1049" y="743"/>
      <point x="995" y="680"/>
      <point x="938" y="637"/>
      <point x="915" y="627" type="qcurve"/>
      <point x="1030" y="592"/>
      <point x="1159" y="442"/>
      <point x="1159" y="328" type="qcurve"/>
      <point x="1159" y="238"/>
      <point x="1075" y="96"/>
      <point x="1008" y="59" type="qcurve"/>
      <point x="973" y="41"/>
      <point x="909" y="16"/>
      <point x="831" y="4"/>
      <point x="731" y="0"/>
      <point x="657" y="0" type="qcurve"/>
      <point x="96" y="0" type="line"/>
      <point x="96" y="100" type="line"/>
      <point x="272" y="100" type="line"/>
      <point x="272" y="1100" type="line"/>
      <point x="96" y="1100" type="line"/>
      <point x="96" y="1200" type="line"/>
    </contour>
    <contour>
      <point x="379" y="674" type="line"/>
      <point x="662" y="674" type="line"/>
      <point x="766" y="674"/>
      <point x="891" y="725"/>
      <point x="954" y="795"/>
      <point x="973" y="868"/>
      <point x="973" y="895" type="qcurve"/>
      <point x="973" y="971"/>
      <point x="893" y="1055"/>
      <point x="788" y="1094"/>
      <point x="690" y="1100"/>
      <point x="674" y="1100" type="qcurve"/>
      <point x="379" y="1100" type="line"/>
    </contour>
    <contour>
      <point x="379" y="100" type="line"/>
      <point x="653" y="100" type="line"/>
      <point x="711" y="100"/>
      <point x="848" y="106"/>
      <point x="967" y="150"/>
      <point x="1049" y="242"/>
      <point x="1049" y="328" type="qcurve"/>
      <point x="1049" y="393"/>
      <point x="987" y="487"/>
      <point x="881" y="545"/>
      <point x="731" y="573"/>
      <point x="645" y="573" type="qcurve"/>
      <point x="379" y="573" type="line"/>
    </contour>
  </outline>
</glyph>
<glyph name="C" format="2">
  <advance width="1278"/>
  <unicode hex="0043"/>
  <outline>
    <contour>
      <point x="1266" y="211" type="line"/>
      <point x="1176" y="125"/>
      <point x="1006" y="29"/>
      <point x="858" y="-23"/>
      <point x="743" y="-37"/>
      <point x="711" y="-37" type="qcurve"/>
      <point x="571" y="-37"/>
      <point x="356" y="68"/>
      <point x="211" y="248"/>
      <point x="137" y="481"/>
      <point x="137" y="614" type="qcurve"/>
      <point x="137" y="752"/>
      <point x="223" y="981"/>
      <point x="377" y="1147"/>
      <point x="586" y="1235"/>
      <point x="707" y="1235" type="qcurve"/>
      <point x="770" y="1235"/>
      <point x="866" y="1212"/>
      <point x="936" y="1180"/>
      <point x="973" y="1151"/>
      <point x="979" y="1143" type="qcurve"/>
      <point x="1001" y="1126"/>
      <point x="1012" y="1120"/>
      <point x="1016" y="1120" type="qcurve"/>
      <point x="1022" y="1120"/>
      <point x="1032" y="1141"/>
      <point x="1040" y="1174"/>
      <point x="1047" y="1208"/>
      <point x="1049" y="1223" type="qcurve"/>
      <point x="1126" y="1223" type="line"/>
      <point x="1122" y="1087"/>
      <point x="1137" y="901"/>
      <point x="1149" y="815" type="qcurve"/>
      <point x="1049" y="799" type="line"/>
      <point x="1042" y="836"/>
      <point x="1014" y="948"/>
      <point x="977" y="1004" type="qcurve"/>
      <point x="948" y="1049"/>
      <point x="819" y="1128"/>
      <point x="702" y="1128" type="qcurve"/>
      <point x="596" y="1128"/>
      <point x="430" y="1049"/>
      <point x="313" y="907"/>
      <point x="252" y="721"/>
      <point x="252" y="616" type="qcurve"/>
      <point x="252" y="535"/>
      <point x="291" y="344"/>
      <point x="395" y="180"/>
      <point x="573" y="70"/>
      <point x="711" y="70" type="qcurve"/>
      <point x="856" y="70"/>
      <point x="1090" y="197"/>
      <point x="1194" y="287" type="qcurve"/>
    </contour>
  </outline>
</glyph>
<glyph name="D" format="2">
  <advance width="1278"/>
  <unicode hex="0044"/>
  <outline>
    <contour>
      <point x="604" y="1200" type="line"/>
      <point x="676" y="1200"/>
      <point x="797" y="1188"/>
      <point x="901" y="1157"/>
      <point x="997" y="1094"/>
      <point x="1042" y="1040" type="qcurve"/>
      <point x="1087" y="981"/>
      <point x="1141" y="858"/>
      <point x="1167" y="743"/>
      <point x="1174" y="649"/>
      <point x="1174" y="623" type="qcurve"/>
      <point x="1174" y="430"/>
      <point x="1065" y="190"/>
      <point x="997" y="123" type="qcurve"/>
      <point x="948" y="76"/>
      <point x="834" y="29"/>
      <point x="723" y="4"/>
      <point x="627" y="0"/>
      <point x="596" y="0" type="qcurve"/>
      <point x="72" y="0" type="line"/>
      <point x="72" y="100" type="line"/>
      <point x="242" y="100" type="line"/>
      <point x="242" y="1100" type="line"/>
      <point x="72" y="1100" type="line"/>
      <point x="72" y="1200" type="line"/>
    </contour>
    <contour>
      <point x="348" y="100" type="line"/>
      <point x="596" y="100" type="line"/>
      <point x="625" y="100"/>
      <point x="700" y="102"/>
      <point x="788" y="121"/>
      <point x="877" y="162"/>
      <point x="915" y="201" type="qcurve"/>
      <point x="973" y="258"/>
      <point x="1059" y="469"/>
      <point x="1059" y="616" type="qcurve"/>
      <point x="1057" y="715"/>
      <point x="1020" y="856"/>
      <point x="969" y="952"/>
      <point x="911" y="1014"/>
      <point x="889" y="1032" type="qcurve"/>
      <point x="834" y="1075"/>
      <point x="698" y="1100"/>
      <point x="606" y="1100" type="qcurve"/>
      <point x="348" y="1100" type="line"/>
    </contour>
  </outline>
</glyph>
<glyph name="E" format="2">
  <advance width="624"/>
  <unicode hex="0045"/>
  <outline>
    <contour>
      <point x="557" y="394" type="line"/>
      <point x="510" y="394" type="line"/>
      <point x="499" y="537" type="line"/>
      <point x="200" y="537" type="line"/>
      <point x="200" y="334" type="line"/>
      <point x="368" y="334" type="line"/>
      <point x="368" y="410" type="line"/>
      <point x="416" y="410" type="line"/>
      <point x="416" y="210" type="line"/>
      <point x="368" y="210" type="line"/>
      <point x="368" y="285" type="line"/>
      <point x="200" y="285" type="line"/>
      <point x="200" y="49" type="line"/>
      <point x="510" y="49" type="line"/>
      <point x="515" y="191" type="line"/>
      <point x="563" y="191" type="line"/>
      <point x="563" y="0" type="line"/>
      <point x="59" y="0" type="line"/>
      <point x="59" y="49" type="line"/>
      <point x="148" y="49" type="line"/>
      <point x="148" y="537" type="line"/>
      <point x="59" y="537" type="line"/>
      <point x="59" y="586" type="line"/>
      <point x="553" y="586" type="line"/>
    </contour>
  </outline>
</glyph>
<glyph name="F" format="2">
  <advance width="624"/>
  <unicode hex="0046"/>
  <outline>
    <contour>
      <point x="568" y="398" type="line"/>
      <point x="521" y="398" type="line"/>
      <point x="509" y="537" type="line"/>
      <point x="211" y="537" type="line"/>
      <point x="211" y="334" type="line"/>
      <point x="380" y="334" type="line"/>
      <point x="380" y="410" type="line"/>
      <point x="427" y="410" type="line"/>
      <point x="427" y="210" type="line"/>
      <point x="380" y="210" type="line"/>
      <point x="380" y="285" type="line"/>
      <point x="211" y="285" type="line"/>
      <point x="211" y="49" type="line"/>
      <point x="346" y="49" type="line"/>
      <point x="346" y="0" type="line"/>
      <point x="75" y="0" type="line"/>
      <point x="75" y="49" type="line"/>
      <point x="159" y="49" type="line"/>
      <point x="159" y="537" type="line"/>
      <point x="75" y="537" type="line"/>
      <point x="75" y="586" type="line"/>
      <point x="563" y="586" type="line"/>
    </contour>
  </outline>
</glyph>
<glyph name="G" format="2">
  <advance width="1278"/>
  <unicode hex="0047"/>
  <outline>
    <contour>
      <point x="1112" y="1223" type="line"/>
      <point x="1110" y="1217"/>
      <point x="1108" y="1186"/>
      <point x="1108" y="1182" type="qcurve"/>
      <point x="1108" y="1174"/>
      <point x="1106" y="1133"/>
      <point x="1102" y="1081"/>
      <point x="1100" y="1030"/>
      <point x="1100" y="1010" type="qcurve"/>
      <point x="1100" y="956"/>
      <point x="1108" y="854"/>
      <point x="1112" y="815" type="qcurve"/>
      <point x="1020" y="799" type="line"/>
      <point x="1014" y="836"/>
      <point x="987" y="948"/>
      <point x="911" y="1053"/>
      <point x="778" y="1128"/>
      <point x="664" y="1128" type="qcurve"/>
      <point x="571" y="1128"/>
      <point x="410" y="1051"/>
      <point x="287" y="909"/>
      <point x="217" y="713"/>
      <point x="217" y="596" type="qcurve"/>
      <point x="217" y="487"/>
      <point x="274" y="297"/>
      <point x="393" y="154"/>
      <point x="573" y="70"/>
      <point x="694" y="70" type="qcurve"/>
      <point x="748" y="70"/>
      <point x="895" y="96"/>
      <point x="1020" y="139" type="qcurve"/>
      <point x="1020" y="426" type="line"/>
      <point x="705" y="426" type="line"/>
      <point x="705" y="526" type="line"/>
      <point x="1231" y="526" type="line"/>
      <point x="1231" y="426" type="line"/>
      <point x="1128" y="426" type="line"/>
      <point x="1128" y="68" type="line"/>
      <point x="887" y="-37"/>
      <point x="692" y="-37" type="qcurve"/>
      <point x="528" y="-37"/>
      <point x="303" y="82"/>
      <point x="164" y="266"/>
      <point x="102" y="487"/>
      <point x="102" y="594" type="qcurve"/>
      <point x="102" y="717"/>
      <point x="176" y="948"/>
      <point x="322" y="1126"/>
      <point x="532" y="1235"/>
      <point x="670" y="1235" type="qcurve"/>
      <point x="745" y="1235"/>
      <point x="872" y="1192"/>
      <point x="936" y="1143" type="qcurve"/>
      <point x="952" y="1126"/>
      <point x="969" y="1118"/>
      <point x="977" y="1118" type="qcurve"/>
      <point x="995" y="1118"/>
      <point x="1001" y="1153"/>
      <point x="1010" y="1223" type="qcurve"/>
    </contour>
  </outline>
</glyph>
<glyph name="H" format="2">
  <advance width="1278"/>
  <unicode hex="0048"/>
  <outline>
    <contour>
      <point x="510" y="1100" type="line"/>
      <point x="350" y="1100" type="line"/>
      <point x="350" y="670" type="line"/>
      <point x="928" y="670" type="line"/>
      <point x="928" y="1100" type="line"/>
      <point x="768" y="1100" type="line"/>
      <point x="768" y="1200" type="line"/>
      <point x="1196" y="1200" type="line"/>
      <point x="1196" y="1100" type="line"/>
      <point x="1034" y="1100" type="line"/>
      <point x="1034" y="100" type="line"/>
      <point x="1196" y="100" type="line"/>
      <point x="1196" y="0" type="line"/>
      <point x="768" y="0" type="line"/>
      <point x="768" y="100" type="line"/>
      <point x="928" y="100" type="line"/>
      <point x="928" y="569" type="line"/>
      <point x="350" y="569" type="line"/>
      <point x="350" y="100" type="line"/>
      <point x="510" y="100" type="line"/>
      <point x="510" y="0" type="line"/>
      <point x="84" y="0" type="line"/>
      <point x="84" y="100" type="line"/>
      <point x="244" y="100" type="line"/>
      <point x="244" y="1100" type="line"/>
      <point x="84" y="1100" type="line"/>
      <point x="84" y="1200" type="line"/>
      <point x="510" y="1200" type="line"/>
    </contour>
  </outline>
</glyph>
<glyph name="I" format="2">
  <advance width="624"/>
  <unicode hex="0049"/>
  <outline>
    <contour>
      <point x="520" y="537" type="line"/>
      <point x="338" y="537" type="line"/>
      <point x="338" y="49" type="line"/>
      <point x="520" y="49" type="line"/>
      <point x="520" y="0" type="line"/>
      <point x="104" y="0" type="line"/>
      <point x="104" y="49" type="line"/>
      <point x="286" y="49" type="line"/>
      <point x="286" y="537" type="line"/>
      <point x="104" y="537" type="line"/>
      <point x="104" y="586" type="line"/>
      <point x="520" y="586" type="line"/>
    </contour>
  </outline>
</glyph>
<glyph name="J" format="2">
  <advance width="1278"/>
  <unicode hex="004A"/>
  <outline>
    <contour>
      <point x="1233" y="1100" type="line"/>
      <point x="963" y="1100" type="line"/>
      <point x="963" y="434" type="line"/>
      <point x="963" y="344"/>
      <point x="944" y="166"/>
      <point x="901" y="100" type="qcurve"/>
      <point x="874" y="63"/>
      <point x="803" y="10"/>
      <point x="727" y="-20"/>
      <point x="647" y="-37"/>
      <point x="614" y="-37" type="qcurve"/>
      <point x="485" y="-37"/>
      <point x="274" y="43"/>
      <point x="184" y="84" type="qcurve"/>
      <point x="145" y="100" type="line"/>
      <point x="125" y="561" type="line"/>
      <point x="229" y="561" type="line"/>
      <point x="238" y="354" type="line"/>
      <point x="242" y="272"/>
      <point x="274" y="174"/>
      <point x="338" y="137" type="qcurve"/>
      <point x="401" y="98"/>
      <point x="535" y="70"/>
      <point x="590" y="70" type="qcurve"/>
      <point x="688" y="70"/>
      <point x="797" y="137"/>
      <point x="848" y="242"/>
      <point x="856" y="371"/>
      <point x="856" y="434" type="qcurve"/>
      <point x="856" y="1100" type="line"/>
      <point x="436" y="1100" type="line"/>
      <point x="436" y="1200" type="line"/>
      <point x="1233" y="1200" type="line"/>
    </contour>
  </outline>
</glyph>
<glyph name="K" format="2">
  <advance width="624"/>
  <unicode hex="004B"/>
  <outline>
    <contour>
      <point x="290" y="537" type="line"/>
      <point x="202" y="537" type="line"/>
      <point x="202" y="282" type="line"/>
      <point x="464" y="537" type="line"/>
      <point x="379" y="537" type="line"/>
      <point x="379" y="586" type="line"/>
      <point x="581" y="586" type="line"/>
      <point x="581" y="537" type="line"/>
      <point x="535" y="537" type="line"/>
      <point x="309" y="317" type="line"/>
      <point x="329" y="307"/>
      <point x="375" y="274"/>
      <point x="427" y="213"/>
      <point x="485" y="120"/>
      <point x="516" y="49" type="qcurve"/>
      <point x="612" y="49" type="line"/>
      <point x="612" y="0" type="line"/>
      <point x="478" y="0" type="line"/>
      <point x="462" y="44"/>
      <point x="422" y="122"/>
      <point x="411" y="140" type="qcurve"/>
      <point x="381" y="192"/>
      <point x="319" y="259"/>
      <point x="274" y="282" type="qcurve"/>
      <point x="202" y="213" type="line"/>
      <point x="202" y="49" type="line"/>
      <point x="290" y="49" type="line"/>
      <point x="290" y="0" type="line"/>
      <point x="62" y="0" type="line"/>
      <point x="62" y="49" type="line"/>
      <point x="150" y="49" type="line"/>
      <point x="150" y="537" type="line"/>
      <point x="62" y="537" type="line"/>
      <point x="62" y="586" type="line"/>
      <point x="290" y="586" type="line"/>
    </contour>
  </outline>
</glyph>
<glyph name="L" format="2">
  <advance width="1278"/>
  <unicode hex="004C"/>
  <outline>
    <contour>
      <point x="707" y="1100" type="line"/>
      <point x="444" y="1100" type="line"/>
      <point x="444" y="100" type="line"/>
      <point x="1049" y="100" type="line"/>
      <point x="1077" y="530" type="line"/>
      <point x="1178" y="530" type="line"/>
      <point x="1155" y="0" type="line"/>
      <point x="125" y="0" type="line"/>
      <point x="125" y="100" type="line"/>
      <point x="338" y="100" type="line"/>
      <point x="338" y="1100" type="line"/>
      <point x="125" y="1100" type="line"/>
      <point x="125" y="1200" type="line"/>
      <point x="707" y="1200" type="line"/>
    </contour>
  </outline>
</glyph>
<glyph name="M" format="2">
  <advance width="624"/>
  <unicode hex="004D"/>
  <outline>
    <contour>
      <point x="301" y="233" type="line"/>
      <point x="319" y="233" type="line"/>
      <point x="448" y="586" type="line"/>
      <point x="616" y="586" type="line"/>
      <point x="616" y="537" type="line"/>
      <point x="542" y="537" type="line"/>
      <point x="560" y="49" type="line"/>
      <point x="623" y="49" type="line"/>
      <point x="623" y="0" type="line"/>
      <point x="402" y="0" type="line"/>
      <point x="402" y="49" type="line"/>
      <point x="514" y="49" type="line"/>
      <point x="498" y="537" type="line"/>
      <point x="479" y="537" type="line"/>
      <point x="334" y="150" type="line"/>
      <point x="280" y="150" type="line"/>
      <point x="145" y="537" type="line"/>
      <point x="126" y="537" type="line"/>
      <point x="110" y="49" type="line"/>
      <point x="222" y="49" type="line"/>
      <point x="222" y="0" type="line"/>
      <point x="1" y="0" type="line"/>
      <point x="1" y="49" type="line"/>
      <point x="64" y="49" type="line"/>
      <point x="82" y="537" type="line"/>
      <point x="8" y="537" type="line"/>
      <point x="8" y="586" type="line"/>
      <point x="182" y="586" type="line"/>
    </contour>
  </outline>
</glyph>
<glyph name="N" format="2">
  <advance width="1278"/>
  <unicode hex="004E"/>
  <outline>
    <contour>
      <point x="983" y="90" type="line"/>
      <point x="1022" y="90" type="line"/>
      <point x="1022" y="1100" type="line"/>
      <point x="784" y="1100" type="line"/>
      <point x="784" y="1200" type="line"/>
      <point x="1260" y="1200" type="line"/>
      <point x="1260" y="1100" type="line"/>
      <point x="1120" y="1100" type="line"/>
      <point x="1120" y="-29" type="line"/>
      <point x="930" y="-29" type="line"/>
      <point x="360" y="1100" type="line"/>
      <point x="324" y="1100" type="line"/>
      <point x="324" y="100" type="line"/>
      <point x="565" y="100" type="line"/>
      <point x="565" y="0" type="line"/>
      <point x="59" y="0" type="line"/>
      <point x="59" y="100" type="line"/>
      <point x="225" y="100" type="line"/>
      <point x="225" y="1100" type="line"/>
      <point x="59" y="1100" type="line"/>
      <point x="59" y="1200" type="line"/>
      <point x="424" y="1200" type="line"/>
    </contour>
  </outline>
</glyph>
<glyph name="P" format="2">
  <advance width="1278"/>
  <unicode hex="0050"/>
  <outline>
    <contour>
      <point x="639" y="1200" type="line"/>
      <point x="754" y="1200"/>
      <point x="897" y="1176"/>
      <point x="954" y="1143" type="qcurve"/>
      <point x="1034" y="1100"/>
      <point x="1137" y="924"/>
      <point x="1137" y="827" type="qcurve"/>
      <point x="1137" y="782"/>
      <point x="1114" y="694"/>
      <point x="1073" y="618"/>
      <point x="1016" y="553"/>
      <point x="981" y="535" type="qcurve"/>
      <point x="944" y="512"/>
      <point x="868" y="485"/>
      <point x="776" y="473"/>
      <point x="645" y="471"/>
      <point x="549" y="471" type="qcurve"/>
      <point x="430" y="471" type="line"/>
      <point x="430" y="100" type="line"/>
      <point x="743" y="100" type="line"/>
      <point x="743" y="0" type="line"/>
      <point x="152" y="0" type="line"/>
      <point x="152" y="100" type="line"/>
      <point x="324" y="100" type="line"/>
      <point x="324" y="1100" type="line"/>
      <point x="152" y="1100" type="line"/>
      <point x="152" y="1200" type="line"/>
    </contour>
    <contour>
      <point x="430" y="571" type="line"/>
      <point x="551" y="571" type="line"/>
      <point x="682" y="571"/>
      <point x="877" y="584"/>
      <point x="934" y="629" type="qcurve"/>
      <point x="963" y="651"/>
      <point x="1022" y="754"/>
      <point x="1022" y="831" type="qcurve"/>
      <point x="1022" y="918"/>
      <point x="938" y="1034"/>
      <point x="895" y="1057" type="qcurve"/>
      <point x="874" y="1067"/>
      <point x="834" y="1081"/>
      <point x="776" y="1094"/>
      <point x="696" y="1100"/>
      <point x="639" y="1100" type="qcurve"/>
      <point x="430" y="1100" type="line"/>
    </contour>
  </outline>
</glyph>
<glyph name="Q" format="2">
  <advance width="624"/>
  <unicode hex="0051"/>
  <outline>
    <contour>
      <point x="569" y="-92" type="line"/>
      <point x="551" y="-104"/>
      <point x="500" y="-133"/>
      <point x="464" y="-133" type="qcurve"/>
      <point x="440" y="-133"/>
      <point x="402" y="-120"/>
      <point x="348" y="-97"/>
      <point x="314" y="-87"/>
      <point x="294" y="-87" type="qcurve"/>
      <point x="260" y="-87"/>
      <point x="208" y="-109"/>
      <point x="172" y="-130" type="qcurve"/>
      <point x="148" y="-92" type="line"/>
      <point x="166" y="-79"/>
      <point x="198" y="-51"/>
      <point x="220" y="-27"/>
      <point x="234" y="-9"/>
      <point x="236" y="-7" type="qcurve"/>
      <point x="192" y="6"/>
      <point x="122" y="63"/>
      <point x="72" y="141"/>
      <point x="45" y="238"/>
      <point x="45" y="292" type="qcurve"/>
      <point x="45" y="366"/>
      <point x="88" y="482"/>
      <point x="162" y="562"/>
      <point x="259" y="603"/>
      <point x="311" y="603" type="qcurve"/>
      <point x="367" y="603"/>
      <point x="465" y="558"/>
      <point x="538" y="476"/>
      <point x="579" y="360"/>
      <point x="579" y="288" type="qcurve"/>
      <point x="579" y="235"/>
      <point x="551" y="126"/>
      <point x="485" y="36"/>
      <point x="375" y="-19"/>
      <point x="294" y="-18" type="qcurve"/>
      <point x="290" y="-23"/>
      <point x="286" y="-27"/>
      <point x="278" y="-35" type="qcurve"/>
      <point x="277" y="-37"/>
      <point x="275" y="-40"/>
      <point x="276" y="-37" type="qcurve"/>
      <point x="274" y="-37" type="line"/>
      <point x="274" y="-40" type="line"/>
      <point x="279" y="-40"/>
      <point x="288" y="-38"/>
      <point x="296" y="-38" type="qcurve"/>
      <point x="315" y="-38"/>
      <point x="361" y="-48"/>
      <point x="388" y="-59" type="qcurve"/>
      <point x="407" y="-67"/>
      <point x="428" y="-75"/>
      <point x="443" y="-80"/>
      <point x="453" y="-81"/>
      <point x="460" y="-81" type="qcurve"/>
      <point x="486" y="-81"/>
      <point x="522" y="-63"/>
      <point x="537" y="-54" type="qcurve"/>
    </contour>
    <contour>
      <point x="101" y="293" type="qcurve"/>
      <point x="101" y="246"/>
      <point x="128" y="154"/>
      <point x="181" y="80"/>
      <point x="260" y="34"/>
      <point x="312" y="34" type="qcurve"/>
      <point x="363" y="34"/>
      <point x="442" y="79"/>
      <point x="496" y="152"/>
      <point x="523" y="244"/>
      <point x="523" y="293" type="qcurve"/>
      <point x="523" y="342"/>
      <point x="495" y="436"/>
      <point x="441" y="508"/>
      <point x="363" y="551"/>
      <point x="312" y="551" type="qcurve"/>
      <point x="258" y="551"/>
      <point x="179" y="504"/>
      <point x="127" y="431"/>
      <point x="101" y="338"/>
    </contour>
  </outline>
</glyph>
<glyph name="R" format="2">
  <advance width="1278"/>
  <unicode hex="0052"/>
  <outline>
    <contour>
      <point x="643" y="1200" type="line"/>
      <point x="745" y="1200"/>
      <point x="877" y="1180"/>
      <point x="989" y="1104"/>
      <point x="1063" y="956"/>
      <point x="1063" y="877" type="qcurve"/>
      <point x="1063" y="831"/>
      <point x="1030" y="725"/>
      <point x="954" y="631"/>
      <point x="829" y="561"/>
      <point x="737" y="551" type="qcurve"/>
      <point x="764" y="522"/>
      <point x="844" y="414"/>
      <point x="926" y="285"/>
      <point x="1010" y="152"/>
      <point x="1042" y="100" type="qcurve"/>
      <point x="1229" y="100" type="line"/>
      <point x="1229" y="0" type="line"/>
      <point x="963" y="0" type="line"/>
      <point x="938" y="53"/>
      <point x="874" y="168"/>
      <point x="817" y="268"/>
      <point x="768" y="348"/>
      <point x="758" y="365" type="qcurve"/>
      <point x="727" y="414"/>
      <point x="680" y="483"/>
      <point x="631" y="528"/>
      <point x="573" y="549"/>
      <point x="530" y="549" type="qcurve"/>
      <point x="377" y="549" type="line"/>
      <point x="377" y="100" type="line"/>
      <point x="567" y="100" type="line"/>
      <point x="567" y="0" type="line"/>
      <point x="96" y="0" type="line"/>
      <point x="96" y="100" type="line"/>
      <point x="270" y="100" type="line"/>
      <point x="270" y="1100" type="line"/>
      <point x="96" y="1100" type="line"/>
      <point x="96" y="1200" type="line"/>
    </contour>
    <contour>
      <point x="377" y="649" type="line"/>
      <point x="575" y="649" type="line"/>
      <point x="618" y="649"/>
      <point x="745" y="655"/>
      <point x="862" y="698"/>
      <point x="948" y="795"/>
      <point x="948" y="885" type="qcurve"/>
      <point x="948" y="938"/>
      <point x="901" y="1032"/>
      <point x="858" y="1063" type="qcurve"/>
      <point x="846" y="1071"/>
      <point x="817" y="1083"/>
      <point x="770" y="1094"/>
      <point x="696" y="1100"/>
      <point x="639" y="1100" type="qcurve"/>
      <point x="377" y="1100" type="line"/>
    </contour>
  </outline>
</glyph>
<glyph name="S" format="2">
  <advance width="624"/>
  <unicode hex="0053"/>
  <outline>
    <contour>
      <point x="527" y="597" type="line"/>
      <point x="522" y="573"/>
      <point x="518" y="542"/>
      <point x="518" y="522" type="qcurve"/>
      <point x="518" y="504"/>
      <point x="522" y="443"/>
      <point x="527" y="398" type="qcurve"/>
      <point x="480" y="390" type="line"/>
      <point x="478" y="407"/>
      <point x="466" y="461"/>
      <point x="448" y="488" type="qcurve"/>
      <point x="442" y="497"/>
      <point x="422" y="519"/>
      <point x="391" y="538"/>
      <point x="347" y="551"/>
      <point x="316" y="551" type="qcurve"/>
      <point x="276" y="551"/>
      <point x="216" y="527"/>
      <point x="178" y="491"/>
      <point x="159" y="448"/>
      <point x="159" y="428" type="qcurve"/>
      <point x="159" y="392"/>
      <point x="194" y="350"/>
      <point x="244" y="328"/>
      <point x="298" y="319"/>
      <point x="317" y="317" type="qcurve"/>
      <point x="375" y="311"/>
      <point x="442" y="297"/>
      <point x="496" y="262"/>
      <point x="534" y="204"/>
      <point x="534" y="159" type="qcurve"/>
      <point x="534" y="113"/>
      <point x="495" y="47"/>
      <point x="435" y="3"/>
      <point x="359" y="-18"/>
      <point x="320" y="-18" type="qcurve"/>
      <point x="289" y="-18"/>
      <point x="242" y="-7"/>
      <point x="208" y="8"/>
      <point x="185" y="24"/>
      <point x="178" y="30" type="qcurve"/>
      <point x="177" y="31"/>
      <point x="172" y="34"/>
      <point x="170" y="34" type="qcurve"/>
      <point x="166" y="34"/>
      <point x="161" y="28"/>
      <point x="159" y="26" type="qcurve"/>
      <point x="157" y="19"/>
      <point x="154" y="5"/>
      <point x="150" y="-21" type="qcurve"/>
      <point x="103" y="-21" type="line"/>
      <point x="108" y="4"/>
      <point x="112" y="50"/>
      <point x="112" y="61" type="qcurve"/>
      <point x="112" y="72" type="line"/>
      <point x="112" y="80"/>
      <point x="110" y="108"/>
      <point x="107" y="140"/>
      <point x="104" y="171"/>
      <point x="103" y="182" type="qcurve"/>
      <point x="150" y="182" type="line"/>
      <point x="154" y="162"/>
      <point x="167" y="112"/>
      <point x="185" y="89" type="qcurve"/>
      <point x="200" y="71"/>
      <point x="257" y="34"/>
      <point x="313" y="34" type="qcurve"/>
      <point x="361" y="34"/>
      <point x="424" y="57"/>
      <point x="462" y="93"/>
      <point x="477" y="135"/>
      <point x="477" y="155" type="qcurve"/>
      <point x="477" y="189"/>
      <point x="447" y="230"/>
      <point x="404" y="252"/>
      <point x="353" y="260"/>
      <point x="333" y="262" type="qcurve"/>
      <point x="303" y="265"/>
      <point x="223" y="278"/>
      <point x="152" y="311"/>
      <point x="103" y="372"/>
      <point x="103" y="424" type="qcurve"/>
      <point x="103" y="460"/>
      <point x="134" y="524"/>
      <point x="189" y="574"/>
      <point x="265" y="603"/>
      <point x="310" y="603" type="qcurve"/>
      <point x="338" y="603"/>
      <point x="382" y="593"/>
      <point x="413" y="579"/>
      <point x="434" y="565"/>
      <point x="439" y="561" type="qcurve"/>
      <point x="451" y="551"/>
      <point x="460" y="546"/>
      <point x="463" y="546" type="qcurve"/>
      <point x="470" y="546"/>
      <point x="473" y="558"/>
      <point x="478" y="583" type="qcurve"/>
      <point x="480" y="594"/>
      <point x="480" y="597" type="qcurve"/>
    </contour>
  </outline>
</glyph>
<glyph name="T" format="2">
  <advance width="1278"/>
  <unicode hex="0054"/>
  <outline>
    <contour>
      <point x="1186" y="696" type="line"/>
      <point x="1083" y="684" type="line"/>
      <point x="1055" y="1100" type="line"/>
      <point x="692" y="1100" type="line"/>
      <point x="692" y="100" type="line"/>
      <point x="950" y="100" type="line"/>
      <point x="950" y="0" type="line"/>
      <point x="328" y="0" type="line"/>
      <point x="328" y="100" type="line"/>
      <point x="586" y="100" type="line"/>
      <point x="586" y="1100" type="line"/>
      <point x="223" y="1100" type="line"/>
      <point x="195" y="684" type="line"/>
      <point x="92" y="696" type="line"/>
      <point x="127" y="1200" type="line"/>
      <point x="1151" y="1200" type="line"/>
    </contour>
  </outline>
</glyph>
<glyph name="U" format="2">
  <advance width="1278"/>
  <unicode hex="0055"/>
  <outline>
    <contour>
      <point x="528" y="1100" type="line"/>
      <point x="311" y="1100" type="line"/>
      <point x="311" y="498" type="line"/>
      <point x="311" y="432"/>
      <point x="322" y="283"/>
      <point x="352" y="221" type="qcurve"/>
      <point x="381" y="158"/>
      <point x="514" y="70"/>
      <point x="637" y="70" type="qcurve"/>
      <point x="762" y="70"/>
      <point x="897" y="145"/>
      <point x="926" y="205" type="qcurve"/>
      <point x="958" y="262"/>
      <point x="969" y="406"/>
      <point x="969" y="477" type="qcurve"/>
      <point x="969" y="1100" type="line"/>
      <point x="752" y="1100" type="line"/>
      <point x="752" y="1200" type="line"/>
      <point x="1229" y="1200" type="line"/>
      <point x="1229" y="1100" type="line"/>
      <point x="1075" y="1100" type="line"/>
      <point x="1075" y="477" type="line"/>
      <point x="1075" y="395"/>
      <point x="1065" y="283"/>
      <point x="1044" y="201"/>
      <point x="1016" y="143"/>
      <point x="999" y="119" type="qcurve"/>
      <point x="981" y="94"/>
      <point x="918" y="41"/>
      <point x="827" y="-6"/>
      <point x="709" y="-37"/>
      <point x="639" y="-37" type="qcurve"/>
      <point x="600" y="-37"/>
      <point x="504" y="-23"/>
      <point x="408" y="14"/>
      <point x="313" y="78"/>
      <point x="276" y="129" type="qcurve"/>
      <point x="250" y="168"/>
      <point x="219" y="266"/>
      <point x="207" y="367"/>
      <point x="205" y="463"/>
      <point x="205" y="498" type="qcurve"/>
      <point x="205" y="1100" type="line"/>
      <point x="51" y="1100" type="line"/>
      <point x="51" y="1200" type="line"/>
      <point x="528" y="1200" type="line"/>
    </contour>
  </outline>
</glyph>
<glyph name="V" format="2">
  <advance width="624"/>
  <unicode hex="0056"/>
  <outline>
    <contour>
      <point x="229" y="537" type="line"/>
      <point x="131" y="537" type="line"/>
      <point x="315" y="58" type="line"/>
      <point x="502" y="537" type="line"/>
      <point x="396" y="537" type="line"/>
      <point x="396" y="586" type="line"/>
      <point x="618" y="586" type="line"/>
      <point x="618" y="537" type="line"/>
      <point x="552" y="537" type="line"/>
      <point x="346" y="0" type="line"/>
      <point x="282" y="0" type="line"/>
      <point x="78" y="537" type="line"/>
      <point x="6" y="537" type="line"/>
      <point x="6" y="586" type="line"/>
      <point x="229" y="586" type="line"/>
    </contour>
  </outline>
</glyph>
<glyph name="W" format="2">
  <advance width="1278"/>
  <unicode hex="0057"/>
  <outline>
    <contour>
      <point x="424" y="1100" type="line"/>
      <point x="209" y="1100" type="line"/>
      <point x="328" y="205" type="line"/>
      <point x="332" y="205" type="line"/>
      <point x="606" y="979" type="line"/>
      <point x="680" y="979" type="line"/>
      <point x="948" y="205" type="line"/>
      <point x="952" y="205" type="line"/>
      <point x="1075" y="1100" type="line"/>
      <point x="858" y="1100" type="line"/>
      <point x="858" y="1200" type="line"/>
      <point x="1274" y="1200" type="line"/>
      <point x="1274" y="1100" type="line"/>
      <point x="1176" y="1100" type="line"/>
      <point x="1016" y="0" type="line"/>
      <point x="909" y="0" type="line"/>
      <point x="639" y="776" type="line"/>
      <point x="635" y="776" type="line"/>
      <point x="360" y="0" type="line"/>
      <point x="254" y="0" type="line"/>
      <point x="104" y="1100" type="line"/>
      <point x="4" y="1100" type="line"/>
      <point x="4" y="1200" type="line"/>
      <point x="424" y="1200" type="line"/>
    </contour>
  </outline>
</glyph>
<glyph name="X" format="2">
  <advance width="1278"/>
  <unicode hex="0058"/>
  <outline>
    <contour>
      <point x="524" y="1100" type="line"/>
      <point x="350" y="1100" type="line"/>
      <point x="641" y="709" type="line"/>
      <point x="940" y="1100" type="line"/>
      <point x="778" y="1100" type="line"/>
      <point x="778" y="1200" type="line"/>
      <point x="1167" y="1200" type="line"/>
      <point x="1167" y="1100" type="line"/>
      <point x="1059" y="1100" type="line"/>
      <point x="700" y="631" type="line"/>
      <point x="1098" y="100" type="line"/>
      <point x="1208" y="100" type="line"/>
      <point x="1208" y="0" type="line"/>
      <point x="778" y="0" type="line"/>
      <point x="778" y="100" type="line"/>
      <point x="969" y="100" type="line"/>
      <point x="641" y="551" type="line"/>
      <point x="299" y="100" type="line"/>
      <point x="524" y="100" type="line"/>
      <point x="524" y="0" type="line"/>
      <point x="70" y="0" type="line"/>
      <point x="70" y="100" type="line"/>
      <point x="178" y="100" type="line"/>
      <point x="582" y="631" type="line"/>
      <point x="223" y="1100" type="line"/>
      <point x="111" y="1100" type="line"/>
      <point x="111" y="1200" type="line"/>
      <point x="524" y="1200" type="line"/>
    </contour>
  </outline>
</glyph>
<glyph name="Y" format="2">
  <advance width="624"/>
  <unicode hex="0059"/>
  <outline>
    <contour>
      <point x="237" y="537" type="line"/>
      <point x="158" y="537" type="line"/>
      <point x="315" y="279" type="line"/>
      <point x="470" y="537" type="line"/>
      <point x="389" y="537" type="line"/>
      <point x="389" y="586" type="line"/>
      <point x="591" y="586" type="line"/>
      <point x="591" y="537" type="line"/>
      <point x="525" y="537" type="line"/>
      <point x="339" y="227" type="line"/>
      <point x="339" y="49" type="line"/>
      <point x="462" y="49" type="line"/>
      <point x="462" y="0" type="line"/>
      <point x="163" y="0" type="line"/>
      <point x="163" y="49" type="line"/>
      <point x="287" y="49" type="line"/>
      <point x="287" y="227" type="line"/>
      <point x="99" y="537" type="line"/>
      <point x="33" y="537" type="line"/>
      <point x="33" y="586" type="line"/>
      <point x="237" y="586" type="line"/>
    </contour>
  </outline>
</glyph>
<glyph name="Z" format="2">
  <advance width="1278"/>
  <unicode hex="005A"/>
  <outline>
    <contour>
      <point x="1121" y="1201" type="line"/>
      <point x="317" y="108" type="line"/>
      <point x="1065" y="108" type="line"/>
      <point x="1065" y="480" type="line"/>
      <point x="1174" y="480" type="line"/>
      <point x="1174" y="0" type="line"/>
      <point x="178" y="0" type="line"/>
      <point x="178" y="108" type="line"/>
      <point x="972" y="1188" type="line"/>
      <point x="304" y="1188" type="line"/>
      <point x="304" y="851" type="line"/>
      <point x="196" y="851" type="line"/>
      <point x="196" y="1296" type="line"/>
      <point x="1121" y="1296" type="line"/>
    </contour>
  </outline>
</glyph>
<glyph name="bracketleft" format="2">
  <advance width="1278"/>
  <unicode hex="005B"/>
  <outline>
    <contour>
      <point x="1032" y="1286" type="line"/>
      <point x="764" y="1286" type="line"/>
      <point x="764" y="-94" type="line"/>
      <point x="1032" y="-94" type="line"/>
      <point x="1032" y="-201" type="line"/>
      <point x="657" y="-201" type="line"/>
      <point x="657" y="1393" type="line"/>
      <point x="1032" y="1393" type="line"/>
    </contour>
  </outline>
</glyph>
<glyph name="backslash" format="2">
  <advance width="624"/>
  <unicode hex="005C"/>
  <outline>
    <contour>
      <point x="487" y="-145" type="line"/>
      <point x="97" y="713" type="line"/>
      <point x="141" y="733" type="line"/>
      <point x="531" y="-124" type="line"/>
    </contour>
  </outline>
</glyph>
<glyph name="bracketright" format="2">
  <advance width="624"/>
  <unicode hex="005D"/>
  <outline>
    <contour>
      <point x="120" y="-46" type="line"/>
      <point x="251" y="-46" type="line"/>
      <point x="251" y="628" type="line"/>
      <point x="120" y="628" type="line"/>
      <point x="120" y="680" type="line"/>
      <point x="303" y="680" type="line"/>
      <point x="303" y="-98" type="line"/>
      <point x="120" y="-98" type="line"/>
    </contour>
  </outline>
</glyph>
<glyph name="asciicircum" format="2">
  <advance width="624"/>
  <unicode hex="005E"/>
  <outline>
    <contour>
      <point x="76" y="160" type="line"/>
      <point x="274" y="586" type="line"/>
      <point x="350" y="586" type="line"/>
      <point x="548" y="160" type="line"/>
      <point x="482" y="160" type="line"/>
      <point x="312" y="523" type="line"/>
      <point x="142" y="160" type="line"/>
    </contour>
  </outline>
</glyph>
<glyph name="underscore" format="2">
  <advance width="624"/>
  <unicode hex="005F"/>
  <outline>
    <contour>
      <point x="674" y="-130" type="line"/>
      <point x="-50" y="-130" type="line"/>
      <point x="-50" y="-78" type="line"/>
      <point x="674" y="-78" type="line"/>
    </contour>
  </outline>
</glyph>
<glyph name="grave" format="2">
  <advance width="624"/>
  <unicode hex="0060"/>
  <outline>
    <contour>
      <point x="389" y="523" type="line"/>
      <point x="335" y="523" type="line"/>
      <point x="198" y="643" type="line"/>
      <point x="309" y="643" type="line"/>
    </contour>
  </outline>
</glyph>
<glyph name="b" format="2">
  <advance width="624"/>
  <unicode hex="0062"/>
  <outline>
    <contour>
      <point x="153" y="360" type="line"/>
      <point x="155" y="360" type="line"/>
      <point x="187" y="404"/>
      <point x="276" y="451"/>
      <point x="333" y="451" type="qcurve"/>
      <point x="381" y="451"/>
      <point x="466" y="415"/>
      <point x="529" y="353"/>
      <point x="566" y="267"/>
      <point x="566" y="219" type="qcurve"/>
      <point x="566" y="176"/>
      <point x="532" y="94"/>
      <point x="472" y="29"/>
      <point x="388" y="-10"/>
      <point x="337" y="-10" type="qcurve"/>
      <point x="294" y="-10"/>
      <point x="234" y="10"/>
      <point x="190" y="38"/>
      <point x="162" y="70"/>
      <point x="153" y="80" type="qcurve"/>
      <point x="153" y="0" type="line"/>
      <point x="18" y="0" type="line"/>
      <point x="18" y="49" type="line"/>
      <point x="101" y="49" type="line"/>
      <point x="101" y="601" type="line"/>
      <point x="5" y="596" type="line"/>
      <point x="5" y="645" type="line"/>
      <point x="153" y="654" type="line"/>
    </contour>
    <contour>
      <point x="154" y="222" type="qcurve"/>
      <point x="154" y="185"/>
      <point x="182" y="120"/>
      <point x="230" y="71"/>
      <point x="296" y="42"/>
      <point x="336" y="42" type="qcurve"/>
      <point x="374" y="42"/>
      <point x="439" y="71"/>
      <point x="485" y="121"/>
      <point x="510" y="185"/>
      <point x="510" y="220" type="qcurve"/>
      <point x="510" y="256"/>
      <point x="484" y="321"/>
      <point x="437" y="370"/>
      <point x="372" y="399"/>
      <point x="335" y="399" type="qcurve"/>
      <point x="296" y="399"/>
      <point x="231" y="370"/>
      <point x="182" y="321"/>
      <point x="154" y="257"/>
    </contour>
  </outline>
</glyph>
<glyph name="c" format="2">
  <advance width="624"/>
  <unicode hex="0063"/>
  <outline>
    <contour>
      <point x="544" y="456" type="line"/>
      <point x="542" y="440"/>
      <point x="535" y="387"/>
      <point x="535" y="360" type="qcurve"/>
      <point x="535" y="332"/>
      <point x="538" y="291" type="qcurve"/>
      <point x="490" y="284" type="line"/>
      <point x="486" y="302" type="line"/>
      <point x="483" y="312"/>
      <point x="470" y="349"/>
      <point x="438" y="385"/>
      <point x="378" y="411"/>
      <point x="328" y="411" type="qcurve"/>
      <point x="278" y="411"/>
      <point x="203" y="379"/>
      <point x="154" y="326"/>
      <point x="130" y="259"/>
      <point x="130" y="226" type="qcurve"/>
      <point x="130" y="193"/>
      <point x="152" y="127"/>
      <point x="199" y="72"/>
      <point x="271" y="37"/>
      <point x="323" y="37" type="qcurve"/>
      <point x="380" y="37"/>
      <point x="487" y="86"/>
      <point x="544" y="126" type="qcurve"/>
      <point x="571" y="86" type="line"/>
      <point x="554" y="74"/>
      <point x="503" y="40"/>
      <point x="439" y="7"/>
      <point x="362" y="-15"/>
      <point x="318" y="-15" type="qcurve"/>
      <point x="263" y="-15"/>
      <point x="174" y="23"/>
      <point x="109" y="88"/>
      <point x="74" y="175"/>
      <point x="74" y="225" type="qcurve"/>
      <point x="74" y="266"/>
      <point x="104" y="352"/>
      <point x="165" y="420"/>
      <point x="259" y="463"/>
      <point x="322" y="463" type="qcurve"/>
      <point x="353" y="463"/>
      <point x="428" y="445"/>
      <point x="475" y="408" type="qcurve"/>
      <point x="478" y="405"/>
      <point x="479" y="405" type="qcurve"/>
      <point x="484" y="405"/>
      <point x="489" y="422"/>
      <point x="490" y="427" type="qcurve"/>
      <point x="491" y="440"/>
      <point x="496" y="461" type="qcurve"/>
    </contour>
  </outline>
</glyph>
<glyph name="d" format="2">
  <advance width="1278"/>
  <unicode hex="0064"/>
  <outline>
    <contour>
      <point x="1057" y="100" type="line"/>
      <point x="1237" y="100" type="line"/>
      <point x="1237" y="0" type="line"/>
      <point x="950" y="0" type="line"/>
      <point x="950" y="158" type="line"/>
      <point x="946" y="158" type="line"/>
      <point x="897" y="90"/>
      <point x="784" y="16"/>
      <point x="680" y="-16"/>
      <point x="600" y="-20"/>
      <point x="586" y="-20" type="qcurve"/>
      <point x="485" y="-20"/>
      <point x="313" y="55"/>
      <point x="184" y="182"/>
      <point x="113" y="356"/>
      <point x="113" y="451" type="qcurve"/>
      <point x="113" y="561"/>
      <point x="195" y="735"/>
      <point x="328" y="858"/>
      <point x="494" y="924"/>
      <point x="582" y="924" type="qcurve"/>
      <point x="682" y="924"/>
      <point x="887" y="831"/>
      <point x="946" y="741" type="qcurve"/>
      <point x="950" y="741" type="line"/>
      <point x="950" y="1221" type="line"/>
      <point x="606" y="1200" type="line"/>
      <point x="600" y="1294" type="line"/>
      <point x="1057" y="1335" type="line"/>
    </contour>
    <contour>
      <point x="946" y="446" type="qcurve"/>
      <point x="946" y="512"/>
      <point x="899" y="641"/>
      <point x="809" y="750"/>
      <point x="676" y="817"/>
      <point x="586" y="817" type="qcurve"/>
      <point x="516" y="817"/>
      <point x="385" y="766"/>
      <point x="287" y="672"/>
      <point x="227" y="537"/>
      <point x="227" y="455" type="qcurve"/>
      <point x="227" y="373"/>
      <point x="285" y="236"/>
      <point x="383" y="139"/>
      <point x="514" y="86"/>
      <point x="586" y="86" type="qcurve"/>
      <point x="657" y="86"/>
      <point x="788" y="141"/>
      <point x="889" y="236"/>
      <point x="946" y="369"/>
    </contour>
  </outline>
</glyph>
<glyph name="f" format="2">
  <advance width="1278"/>
  <unicode hex="0066"/>
  <outline>
    <contour>
      <point x="428" y="1010" type="line"/>
      <point x="428" y="1075"/>
      <point x="446" y="1192"/>
      <point x="514" y="1280"/>
      <point x="647" y="1331"/>
      <point x="762" y="1331" type="qcurve"/>
      <point x="852" y="1331"/>
      <point x="1010" y="1311"/>
      <point x="1077" y="1296" type="qcurve"/>
      <point x="1032" y="1190" type="line"/>
      <point x="963" y="1208"/>
      <point x="803" y="1225"/>
      <point x="735" y="1225" type="qcurve"/>
      <point x="659" y="1225"/>
      <point x="580" y="1188"/>
      <point x="541" y="1126"/>
      <point x="535" y="1047"/>
      <point x="535" y="1004" type="qcurve"/>
      <point x="535" y="891" type="line"/>
      <point x="989" y="891" type="line"/>
      <point x="989" y="791" type="line"/>
      <point x="535" y="791" type="line"/>
      <point x="535" y="100" type="line"/>
      <point x="989" y="100" type="line"/>
      <point x="989" y="0" type="line"/>
      <point x="207" y="0" type="line"/>
      <point x="207" y="100" type="line"/>
      <point x="428" y="100" type="line"/>
      <point x="428" y="791" type="line"/>
      <point x="207" y="791" type="line"/>
      <point x="207" y="891" type="line"/>
      <point x="428" y="891" type="line"/>
    </contour>
  </outline>
</glyph>
<glyph name="g" format="2">
  <advance width="1278"/>
  <unicode hex="0067"/>
  <outline>
    <contour>
      <point x="1178" y="815" type="line"/>
      <point x="1006" y="815" type="line"/>
      <point x="1006" y="63" type="line"/>
      <point x="1006" y="-35"/>
      <point x="961" y="-182"/>
      <point x="848" y="-283"/>
      <point x="659" y="-334"/>
      <point x="518" y="-334" type="qcurve"/>
      <point x="383" y="-334" type="line"/>
      <point x="383" y="-233" type="line"/>
      <point x="518" y="-233"/>
      <point x="711" y="-223"/>
      <point x="838" y="-166"/>
      <point x="899" y="-45"/>
      <point x="899" y="63" type="qcurve"/>
      <point x="899" y="188" type="line"/>
      <point x="895" y="188" type="line"/>
      <point x="885" y="170"/>
      <point x="829" y="115"/>
      <point x="743" y="59"/>
      <point x="627" y="20"/>
      <point x="555" y="20" type="qcurve"/>
      <point x="459" y="20"/>
      <point x="291" y="94"/>
      <point x="170" y="219"/>
      <point x="100" y="383"/>
      <point x="100" y="473" type="qcurve"/>
      <point x="100" y="571"/>
      <point x="176" y="737"/>
      <point x="303" y="856"/>
      <point x="467" y="924"/>
      <point x="555" y="924" type="qcurve"/>
      <point x="565" y="924"/>
      <point x="639" y="920"/>
      <point x="739" y="889"/>
      <point x="850" y="821"/>
      <point x="895" y="760" type="qcurve"/>
      <point x="899" y="760" type="line"/>
      <point x="899" y="915" type="line"/>
      <point x="1178" y="915" type="line"/>
    </contour>
    <contour>
      <point x="899" y="469" type="qcurve"/>
      <point x="899" y="547"/>
      <point x="844" y="678"/>
      <point x="750" y="768"/>
      <point x="627" y="817"/>
      <point x="561" y="817" type="qcurve"/>
      <point x="492" y="817"/>
      <point x="369" y="766"/>
      <point x="272" y="678"/>
      <point x="215" y="551"/>
      <point x="215" y="475" type="qcurve"/>
      <point x="215" y="401"/>
      <point x="270" y="274"/>
      <point x="365" y="180"/>
      <point x="489" y="127"/>
      <point x="561" y="127" type="qcurve"/>
      <point x="635" y="127"/>
      <point x="760" y="184"/>
      <point x="850" y="279"/>
      <point x="899" y="403"/>
    </contour>
  </outline>
</glyph>
<glyph name="h" format="2">
  <advance width="1278"/>
  <unicode hex="0068"/>
  <outline>
    <contour>
      <point x="367" y="797" type="line"/>
      <point x="401" y="821"/>
      <point x="481" y="874"/>
      <point x="571" y="920"/>
      <point x="674" y="948"/>
      <point x="731" y="948" type="qcurve"/>
      <point x="803" y="948"/>
      <point x="920" y="897"/>
      <point x="1004" y="803"/>
      <point x="1047" y="674"/>
      <point x="1047" y="596" type="qcurve"/>
      <point x="1047" y="100" type="line"/>
      <point x="1225" y="100" type="line"/>
      <point x="1225" y="0" type="line"/>
      <point x="758" y="0" type="line"/>
      <point x="758" y="100" type="line"/>
      <point x="940" y="100" type="line"/>
      <point x="940" y="588" type="line"/>
      <point x="940" y="702"/>
      <point x="831" y="842"/>
      <point x="735" y="842" type="qcurve"/>
      <point x="684" y="842"/>
      <point x="586" y="811"/>
      <point x="489" y="762"/>
      <point x="406" y="702"/>
      <point x="367" y="672" type="qcurve"/>
      <point x="367" y="100" type="line"/>
      <point x="535" y="100" type="line"/>
      <point x="535" y="0" type="line"/>
      <point x="82" y="0" type="line"/>
      <point x="82" y="100" type="line"/>
      <point x="260" y="100" type="line"/>
      <point x="260" y="1231" type="line"/>
      <point x="61" y="1214" type="line"/>
      <point x="53" y="1315" type="line"/>
      <point x="367" y="1339" type="line"/>
    </contour>
  </outline>
</glyph>
<glyph name="i" format="2">
  <advance width="624"/>
  <unicode hex="0069"/>
  <outline>
    <contour>
      <point x="340" y="49" type="line"/>
      <point x="520" y="49" type="line"/>
      <point x="520" y="0" type="line"/>
      <point x="105" y="0" type="line"/>
      <point x="105" y="49" type="line"/>
      <point x="288" y="49" type="line"/>
      <point x="288" y="398" type="line"/>
      <point x="135" y="398" type="line"/>
      <point x="135" y="447" type="line"/>
      <point x="340" y="447" type="line"/>
    </contour>
    <contour>
      <point x="340" y="682" type="line"/>
      <point x="340" y="558" type="line"/>
      <point x="265" y="558" type="line"/>
      <point x="265" y="682" type="line"/>
    </contour>
  </outline>
</glyph>
<glyph name="j" format="2">
  <advance width="1278"/>
  <unicode hex="006A"/>
  <outline>
    <contour>
      <point x="831" y="86" type="line"/>
      <point x="831" y="43"/>
      <point x="817" y="-96"/>
      <point x="743" y="-225"/>
      <point x="582" y="-322"/>
      <point x="432" y="-322" type="qcurve"/>
      <point x="348" y="-322"/>
      <point x="207" y="-299"/>
      <point x="145" y="-285" type="qcurve"/>
      <point x="168" y="-182" type="line"/>
      <point x="211" y="-195"/>
      <point x="358" y="-215"/>
      <point x="438" y="-215" type="qcurve"/>
      <point x="545" y="-215"/>
      <point x="662" y="-152"/>
      <point x="715" y="-55"/>
      <point x="725" y="55"/>
      <point x="725" y="100" type="qcurve"/>
      <point x="725" y="815" type="line"/>
      <point x="180" y="815" type="line"/>
      <point x="180" y="915" type="line"/>
      <point x="831" y="915" type="line"/>
    </contour>
    <contour>
      <point x="788" y="1397" type="line"/>
      <point x="788" y="1143" type="line"/>
      <point x="635" y="1143" type="line"/>
      <point x="635" y="1397" type="line"/>
    </contour>
  </outline>
</glyph>
<glyph name="k" format="2">
  <advance width="1278"/>
  <unicode hex="006B"/>
  <outline>
    <contour>
      <point x="393" y="510" type="line"/>
      <point x="793" y="811" type="line"/>
      <point x="793" y="815" type="line"/>
      <point x="674" y="815" type="line"/>
      <point x="674" y="915" type="line"/>
      <point x="1118" y="915" type="line"/>
      <point x="1118" y="815" type="line"/>
      <point x="952" y="815" type="line"/>
      <point x="594" y="541" type="line"/>
      <point x="657" y="483"/>
      <point x="786" y="358"/>
      <point x="899" y="242"/>
      <point x="991" y="137"/>
      <point x="1020" y="100" type="qcurve"/>
      <point x="1200" y="100" type="line"/>
      <point x="1200" y="0" type="line"/>
      <point x="756" y="0" type="line"/>
      <point x="756" y="100" type="line"/>
      <point x="893" y="100" type="line"/>
      <point x="860" y="139"/>
      <point x="791" y="213"/>
      <point x="702" y="301"/>
      <point x="590" y="410"/>
      <point x="514" y="481" type="qcurve"/>
      <point x="393" y="389" type="line"/>
      <point x="393" y="0" type="line"/>
      <point x="111" y="0" type="line"/>
      <point x="111" y="100" type="line"/>
      <point x="287" y="100" type="line"/>
      <point x="287" y="1229" type="line"/>
      <point x="86" y="1212" type="line"/>
      <point x="76" y="1313" type="line"/>
      <point x="393" y="1339" type="line"/>
    </contour>
  </outline>
</glyph>
<glyph name="l" format="2">
  <advance width="624"/>
  <unicode hex="006C"/>
  <outline>
    <contour>
      <point x="338" y="49" type="line"/>
      <point x="519" y="49" type="line"/>
      <point x="519" y="0" type="line"/>
      <point x="105" y="0" type="line"/>
      <point x="105" y="49" type="line"/>
      <point x="286" y="49" type="line"/>
      <point x="286" y="586" type="line"/>
      <point x="116" y="573" type="line"/>
      <point x="111" y="621" type="line"/>
      <point x="338" y="635" type="line"/>
    </contour>
  </outline>
</glyph>
<glyph name="m" format="2">
  <advance width="624"/>
  <unicode hex="006D"/>
  <outline>
    <contour>
      <point x="119" y="411" type="line"/>
      <point x="132" y="422" type="line"/>
      <point x="133" y="423"/>
      <point x="148" y="435"/>
      <point x="171" y="448"/>
      <point x="203" y="459"/>
      <point x="222" y="459" type="qcurve"/>
      <point x="255" y="459"/>
      <point x="311" y="424"/>
      <point x="326" y="393" type="qcurve"/>
      <point x="348" y="420"/>
      <point x="408" y="459"/>
      <point x="444" y="459" type="qcurve"/>
      <point x="471" y="459"/>
      <point x="523" y="435"/>
      <point x="537" y="414" type="qcurve"/>
      <point x="544" y="402"/>
      <point x="554" y="381"/>
      <point x="561" y="353"/>
      <point x="564" y="312"/>
      <point x="564" y="283" type="qcurve"/>
      <point x="564" y="49" type="line"/>
      <point x="623" y="49" type="line"/>
      <point x="623" y="0" type="line"/>
      <point x="512" y="0" type="line"/>
      <point x="512" y="283" type="line"/>
      <point x="512" y="305"/>
      <point x="510" y="348"/>
      <point x="497" y="385"/>
      <point x="470" y="407"/>
      <point x="445" y="407" type="qcurve"/>
      <point x="423" y="407"/>
      <point x="372" y="379"/>
      <point x="343" y="338" type="qcurve"/>
      <point x="343" y="49" type="line"/>
      <point x="408" y="49" type="line"/>
      <point x="408" y="0" type="line"/>
      <point x="291" y="0" type="line"/>
      <point x="291" y="287" type="line"/>
      <point x="291" y="304"/>
      <point x="289" y="346"/>
      <point x="277" y="382"/>
      <point x="249" y="407"/>
      <point x="223" y="407" type="qcurve"/>
      <point x="204" y="407"/>
      <point x="173" y="394"/>
      <point x="148" y="376"/>
      <point x="129" y="357"/>
      <point x="123" y="348" type="qcurve"/>
      <point x="123" y="49" type="line"/>
      <point x="193" y="49" type="line"/>
      <point x="193" y="0" type="line"/>
      <point x="0" y="0" type="line"/>
      <point x="0" y="49" type="line"/>
      <point x="71" y="49" type="line"/>
      <point x="71" y="398" type="line"/>
      <point x="0" y="398" type="line"/>
      <point x="0" y="447" type="line"/>
      <point x="119" y="447" type="line"/>
    </contour>
  </outline>
</glyph>
<glyph name="n" format="2">
  <advance width="1278"/>
  <unicode hex="006E"/>
  <outline>
    <contour>
      <point x="354" y="797" type="line"/>
      <point x="387" y="821"/>
      <point x="469" y="874"/>
      <point x="561" y="920"/>
      <point x="662" y="948"/>
      <point x="721" y="948" type="qcurve"/>
      <point x="793" y="948"/>
      <point x="909" y="897"/>
      <point x="993" y="803"/>
      <point x="1036" y="674"/>
      <point x="1036" y="596" type="qcurve"/>
      <point x="1036" y="100" type="line"/>
      <point x="1208" y="100" type="line"/>
      <point x="1208" y="0" type="line"/>
      <point x="748" y="0" type="line"/>
      <point x="748" y="100" type="line"/>
      <point x="930" y="100" type="line"/>
      <point x="930" y="588" type="line"/>
      <point x="930" y="705"/>
      <point x="817" y="842"/>
      <point x="723" y="842" type="qcurve"/>
      <point x="696" y="842"/>
      <point x="629" y="831"/>
      <point x="539" y="795"/>
      <point x="426" y="729"/>
      <point x="354" y="672" type="qcurve"/>
      <point x="354" y="100" type="line"/>
      <point x="532" y="100" type="line"/>
      <point x="532" y="0" type="line"/>
      <point x="72" y="0" type="line"/>
      <point x="72" y="100" type="line"/>
      <point x="248" y="100" type="line"/>
      <point x="248" y="815" type="line"/>
      <point x="72" y="815" type="line"/>
      <point x="72" y="915" type="line"/>
      <point x="354" y="915" type="line"/>
    </contour>
  </outline>
</glyph>
<glyph name="p" format="2">
  <advance width="1278"/>
  <unicode hex="0070"/>
  <outline>
    <contour>
      <point x="322" y="764" type="line"/>
      <point x="326" y="764" type="line"/>
      <point x="338" y="784"/>
      <point x="391" y="844"/>
      <point x="481" y="901"/>
      <point x="606" y="944"/>
      <point x="692" y="944" type="qcurve"/>
      <point x="801" y="944"/>
      <point x="975" y="862"/>
      <point x="1102" y="729"/>
      <point x="1167" y="557"/>
      <point x="1167" y="467" type="qcurve"/>
      <point x="1167" y="360"/>
      <point x="1083" y="182"/>
      <point x="952" y="55"/>
      <point x="782" y="-14"/>
      <point x="696" y="-14" type="qcurve"/>
      <point x="684" y="-14"/>
      <point x="606" y="-8"/>
      <point x="500" y="25"/>
      <point x="381" y="100"/>
      <point x="326" y="168" type="qcurve"/>
      <point x="322" y="168" type="line"/>
      <point x="322" y="-233" type="line"/>
      <point x="639" y="-233" type="line"/>
      <point x="639" y="-334" type="line"/>
      <point x="41" y="-334" type="line"/>
      <point x="41" y="-233" type="line"/>
      <point x="215" y="-233" type="line"/>
      <point x="215" y="815" type="line"/>
      <point x="41" y="815" type="line"/>
      <point x="41" y="915" type="line"/>
      <point x="322" y="915" type="line"/>
    </contour>
    <contour>
      <point x="313" y="473" type="qcurve"/>
      <point x="313" y="379"/>
      <point x="385" y="236"/>
      <point x="496" y="141"/>
      <point x="631" y="92"/>
      <point x="692" y="92" type="qcurve"/>
      <point x="764" y="92"/>
      <point x="895" y="150"/>
      <point x="993" y="250"/>
      <point x="1053" y="387"/>
      <point x="1053" y="469" type="qcurve"/>
      <point x="1053" y="535"/>
      <point x="1008" y="668"/>
      <point x="918" y="770"/>
      <point x="784" y="838"/>
      <point x="694" y="838" type="qcurve"/>
      <point x="610" y="838"/>
      <point x="471" y="778"/>
      <point x="371" y="680"/>
      <point x="313" y="545"/>
    </contour>
  </outline>
</glyph>
<glyph name="q" format="2">
  <advance width="624"/>
  <unicode hex="0071"/>
  <outline>
    <contour>
      <point x="519" y="398" type="line"/>
      <point x="519" y="-114" type="line"/>
      <point x="604" y="-114" type="line"/>
      <point x="604" y="-163" type="line"/>
      <point x="312" y="-163" type="line"/>
      <point x="312" y="-114" type="line"/>
      <point x="467" y="-114" type="line"/>
      <point x="467" y="82" type="line"/>
      <point x="465" y="82" type="line"/>
      <point x="438" y="49"/>
      <point x="380" y="12"/>
      <point x="328" y="-4"/>
      <point x="290" y="-7"/>
      <point x="284" y="-7" type="qcurve"/>
      <point x="241" y="-7"/>
      <point x="159" y="27"/>
      <point x="95" y="89"/>
      <point x="54" y="176"/>
      <point x="54" y="228" type="qcurve"/>
      <point x="54" y="272"/>
      <point x="86" y="356"/>
      <point x="148" y="421"/>
      <point x="233" y="461"/>
      <point x="286" y="461" type="qcurve"/>
      <point x="328" y="461"/>
      <point x="389" y="440"/>
      <point x="433" y="412"/>
      <point x="459" y="383"/>
      <point x="465" y="373" type="qcurve"/>
      <point x="467" y="373" type="line"/>
      <point x="467" y="447" type="line"/>
      <point x="604" y="447" type="line"/>
      <point x="604" y="398" type="line"/>
    </contour>
    <contour>
      <point x="471" y="231" type="qcurve"/>
      <point x="471" y="266"/>
      <point x="443" y="332"/>
      <point x="394" y="380"/>
      <point x="326" y="409"/>
      <point x="285" y="409" type="qcurve"/>
      <point x="241" y="409"/>
      <point x="176" y="376"/>
      <point x="132" y="326"/>
      <point x="110" y="261"/>
      <point x="110" y="229" type="qcurve"/>
      <point x="110" y="189"/>
      <point x="138" y="122"/>
      <point x="187" y="73"/>
      <point x="251" y="45"/>
      <point x="286" y="45" type="qcurve"/>
      <point x="316" y="45"/>
      <point x="382" y="69"/>
      <point x="436" y="115"/>
      <point x="471" y="185"/>
    </contour>
  </outline>
</glyph>
<glyph name="r" format="2">
  <advance width="624"/>
  <unicode hex="0072"/>
  <outline>
    <contour>
      <point x="259" y="343" type="line"/>
      <point x="277" y="361"/>
      <point x="320" y="402"/>
      <point x="373" y="438"/>
      <point x="437" y="462"/>
      <point x="474" y="462" type="qcurve"/>
      <point x="498" y="462"/>
      <point x="535" y="451"/>
      <point x="563" y="435"/>
      <point x="582" y="415"/>
      <point x="591" y="405" type="qcurve"/>
      <point x="536" y="364" type="line"/>
      <point x="535" y="365"/>
      <point x="531" y="369"/>
      <point x="531" y="371" type="qcurve"/>
      <point x="527" y="378"/>
      <point x="518" y="391"/>
      <point x="503" y="402"/>
      <point x="482" y="410"/>
      <point x="466" y="410" type="qcurve"/>
      <point x="432" y="410"/>
      <point x="369" y="380"/>
      <point x="315" y="337"/>
      <point x="272" y="291"/>
      <point x="259" y="277" type="qcurve"/>
      <point x="259" y="49" type="line"/>
      <point x="457" y="49" type="line"/>
      <point x="457" y="0" type="line"/>
      <point x="78" y="0" type="line"/>
      <point x="78" y="49" type="line"/>
      <point x="207" y="49" type="line"/>
      <point x="207" y="398" type="line"/>
      <point x="86" y="398" type="line"/>
      <point x="86" y="447" type="line"/>
      <point x="259" y="447" type="line"/>
    </contour>
  </outline>
</glyph>
<glyph name="s" format="2">
  <advance width="624"/>
  <unicode hex="0073"/>
  <outline>
    <contour>
      <point x="501" y="461" type="line"/>
      <point x="498" y="444"/>
      <point x="492" y="401"/>
      <point x="492" y="371" type="qcurve"/>
      <point x="492" y="349"/>
      <point x="495" y="319"/>
      <point x="497" y="306" type="qcurve"/>
      <point x="451" y="301" type="line"/>
      <point x="448" y="316"/>
      <point x="437" y="354"/>
      <point x="405" y="386"/>
      <point x="342" y="409"/>
      <point x="288" y="409" type="qcurve"/>
      <point x="226" y="409"/>
      <point x="159" y="364"/>
      <point x="159" y="332" type="qcurve"/>
      <point x="159" y="304"/>
      <point x="191" y="271"/>
      <point x="250" y="254"/>
      <point x="328" y="248"/>
      <point x="373" y="245" type="qcurve"/>
      <point x="383" y="245"/>
      <point x="432" y="239"/>
      <point x="484" y="216"/>
      <point x="524" y="170"/>
      <point x="524" y="129" type="qcurve"/>
      <point x="524" y="92"/>
      <point x="488" y="36"/>
      <point x="430" y="1"/>
      <point x="360" y="-16"/>
      <point x="326" y="-16" type="qcurve"/>
      <point x="297" y="-16"/>
      <point x="250" y="-6"/>
      <point x="210" y="8"/>
      <point x="182" y="23"/>
      <point x="173" y="28" type="qcurve"/>
      <point x="173" y="28"/>
      <point x="172" y="29" type="qcurve"/>
      <point x="170" y="30"/>
      <point x="167" y="30" type="qcurve"/>
      <point x="160" y="30"/>
      <point x="152" y="4"/>
      <point x="147" y="-14" type="qcurve"/>
      <point x="101" y="-14" type="line"/>
      <point x="103" y="0"/>
      <point x="107" y="26"/>
      <point x="107" y="52" type="qcurve"/>
      <point x="107" y="85"/>
      <point x="103" y="137"/>
      <point x="101" y="155" type="qcurve"/>
      <point x="147" y="160" type="line"/>
      <point x="149" y="147"/>
      <point x="161" y="105"/>
      <point x="196" y="66"/>
      <point x="260" y="36"/>
      <point x="314" y="36" type="qcurve"/>
      <point x="330" y="36"/>
      <point x="382" y="43"/>
      <point x="432" y="61"/>
      <point x="468" y="97"/>
      <point x="468" y="127" type="qcurve"/>
      <point x="468" y="150"/>
      <point x="446" y="177"/>
      <point x="407" y="190"/>
      <point x="352" y="194"/>
      <point x="319" y="196" type="qcurve"/>
      <point x="298" y="197"/>
      <point x="226" y="204"/>
      <point x="155" y="230"/>
      <point x="103" y="283"/>
      <point x="103" y="330" type="qcurve"/>
      <point x="103" y="358"/>
      <point x="130" y="406"/>
      <point x="178" y="441"/>
      <point x="246" y="461"/>
      <point x="287" y="461" type="qcurve"/>
      <point x="334" y="461"/>
      <point x="392" y="439"/>
      <point x="407" y="431" type="qcurve"/>
      <point x="409" y="428"/>
      <point x="423" y="421"/>
      <point x="430" y="421" type="qcurve"/>
      <point x="438" y="421"/>
      <point x="446" y="441"/>
      <point x="448" y="446" type="qcurve"/>
      <point x="450" y="457"/>
      <point x="452" y="463"/>
      <point x="454" y="468" type="qcurve"/>
    </contour>
  </outline>
</glyph>
<glyph name="t" format="2">
  <advance width="624"/>
  <unicode hex="0074"/>
  <outline>
    <contour>
      <point x="232" y="433" type="line"/>
      <point x="484" y="433" type="line"/>
      <point x="484" y="384" type="line"/>
      <point x="232" y="384" type="line"/>
      <point x="232" y="187" type="line"/>
      <point x="232" y="158"/>
      <point x="235" y="104"/>
      <point x="255" y="62"/>
      <point x="300" y="37"/>
      <point x="340" y="37" type="qcurve"/>
      <point x="353" y="37"/>
      <point x="385" y="41"/>
      <point x="431" y="51"/>
      <point x="495" y="73"/>
      <point x="541" y="92" type="qcurve"/>
      <point x="560" y="45" type="line"/>
      <point x="510" y="22"/>
      <point x="396" y="-15"/>
      <point x="345" y="-15" type="qcurve"/>
      <point x="295" y="-15"/>
      <point x="233" y="16"/>
      <point x="216" y="32" type="qcurve"/>
      <point x="189" y="59"/>
      <point x="180" y="135"/>
      <point x="180" y="187" type="qcurve"/>
      <point x="180" y="384" type="line"/>
      <point x="109" y="384" type="line"/>
      <point x="109" y="433" type="line"/>
      <point x="180" y="433" type="line"/>
      <point x="180" y="586" type="line"/>
      <point x="232" y="586" type="line"/>
    </contour>
  </outline>
</glyph>
<glyph name="v" format="2">
  <advance width="624"/>
  <unicode hex="0076"/>
  <outline>
    <contour>
      <point x="243" y="398" type="line"/>
      <point x="159" y="398" type="line"/>
      <point x="315" y="60" type="line"/>
      <point x="473" y="398" type="line"/>
      <point x="391" y="398" type="line"/>
      <point x="391" y="447" type="line"/>
      <point x="602" y="447" type="line"/>
      <point x="602" y="398" type="line"/>
      <point x="525" y="398" type="line"/>
      <point x="337" y="0" type="line"/>
      <point x="288" y="0" type="line"/>
      <point x="99" y="398" type="line"/>
      <point x="22" y="398" type="line"/>
      <point x="22" y="447" type="line"/>
      <point x="243" y="447" type="line"/>
    </contour>
  </outline>
</glyph>
<glyph name="w" format="2">
  <advance width="624"/>
  <unicode hex="0077"/>
  <outline>
    <contour>
      <point x="188" y="398" type="line"/>
      <point x="102" y="398" type="line"/>
      <point x="193" y="83" type="line"/>
      <point x="196" y="83" type="line"/>
      <point x="297" y="366" type="line"/>
      <point x="334" y="366" type="line"/>
      <point x="437" y="79" type="line"/>
      <point x="439" y="79" type="line"/>
      <point x="532" y="398" type="line"/>
      <point x="445" y="398" type="line"/>
      <point x="445" y="447" type="line"/>
      <point x="622" y="447" type="line"/>
      <point x="622" y="398" type="line"/>
      <point x="581" y="398" type="line"/>
      <point x="465" y="0" type="line"/>
      <point x="411" y="0" type="line"/>
      <point x="312" y="268" type="line"/>
      <point x="215" y="0" type="line"/>
      <point x="164" y="0" type="line"/>
      <point x="47" y="398" type="line"/>
      <point x="2" y="398" type="line"/>
      <point x="2" y="447" type="line"/>
      <point x="188" y="447" type="line"/>
    </contour>
  </outline>
</glyph>
<glyph name="x" format="2">
  <advance width="624"/>
  <unicode hex="0078"/>
  <outline>
    <contour>
      <point x="243" y="398" type="line"/>
      <point x="180" y="398" type="line"/>
      <point x="310" y="268" type="line"/>
      <point x="440" y="398" type="line"/>
      <point x="380" y="398" type="line"/>
      <point x="380" y="447" type="line"/>
      <point x="571" y="447" type="line"/>
      <point x="571" y="398" type="line"/>
      <point x="508" y="398" type="line"/>
      <point x="344" y="234" type="line"/>
      <point x="531" y="49" type="line"/>
      <point x="597" y="49" type="line"/>
      <point x="597" y="0" type="line"/>
      <point x="386" y="0" type="line"/>
      <point x="386" y="49" type="line"/>
      <point x="460" y="49" type="line"/>
      <point x="310" y="201" type="line"/>
      <point x="159" y="49" type="line"/>
      <point x="232" y="49" type="line"/>
      <point x="232" y="0" type="line"/>
      <point x="27" y="0" type="line"/>
      <point x="27" y="49" type="line"/>
      <point x="92" y="49" type="line"/>
      <point x="275" y="234" type="line"/>
      <point x="109" y="398" type="line"/>
      <point x="43" y="398" type="line"/>
      <point x="43" y="447" type="line"/>
      <point x="243" y="447" type="line"/>
    </contour>
  </outline>
</glyph>
<glyph name="y" format="2">
  <advance width="624"/>
  <unicode hex="0079"/>
  <outline>
    <contour>
      <point x="219" y="398" type="line"/>
      <point x="148" y="398" type="line"/>
      <point x="312" y="82" type="line"/>
      <point x="493" y="398" type="line"/>
      <point x="422" y="398" type="line"/>
      <point x="422" y="447" type="line"/>
      <point x="613" y="447" type="line"/>
      <point x="613" y="398" type="line"/>
      <point x="552" y="398" type="line"/>
      <point x="261" y="-110" type="line"/>
      <point x="354" y="-110" type="line"/>
      <point x="354" y="-159" type="line"/>
      <point x="42" y="-159" type="line"/>
      <point x="42" y="-110" type="line"/>
      <point x="202" y="-110" type="line"/>
      <point x="282" y="28" type="line"/>
      <point x="88" y="398" type="line"/>
      <point x="25" y="398" type="line"/>
      <point x="25" y="447" type="line"/>
      <point x="219" y="447" type="line"/>
    </contour>
  </outline>
</glyph>
<glyph name="z" format="2">
  <advance width="624"/>
  <unicode hex="007A"/>
  <outline>
    <contour>
      <point x="516" y="402" type="line"/>
      <point x="179" y="49" type="line"/>
      <point x="467" y="49" type="line"/>
      <point x="467" y="145" type="line"/>
      <point x="516" y="145" type="line"/>
      <point x="516" y="0" type="line"/>
      <point x="108" y="0" type="line"/>
      <point x="108" y="49" type="line"/>
      <point x="442" y="398" type="line"/>
      <point x="167" y="398" type="line"/>
      <point x="167" y="306" type="line"/>
      <point x="119" y="306" type="line"/>
      <point x="119" y="447" type="line"/>
      <point x="516" y="447" type="line"/>
    </contour>
  </outline>
</glyph>
<glyph name="braceleft" format="2">
  <advance width="1278"/>
  <unicode hex="007B"/>
  <outline>
    <contour>
      <point x="981" y="1286" type="line"/>
      <point x="944" y="1286"/>
      <point x="858" y="1280"/>
      <point x="788" y="1247"/>
      <point x="741" y="1184"/>
      <point x="741" y="1126" type="qcurve"/>
      <point x="741" y="1094"/>
      <point x="750" y="1022"/>
      <point x="766" y="954" type="qcurve"/>
      <point x="784" y="881" type="line"/>
      <point x="786" y="868"/>
      <point x="795" y="811"/>
      <point x="795" y="786" type="qcurve"/>
      <point x="795" y="748"/>
      <point x="774" y="688"/>
      <point x="739" y="643"/>
      <point x="696" y="606"/>
      <point x="678" y="592" type="qcurve"/>
      <point x="696" y="578"/>
      <point x="737" y="543"/>
      <point x="774" y="498"/>
      <point x="795" y="438"/>
      <point x="795" y="401" type="qcurve"/>
      <point x="795" y="375"/>
      <point x="786" y="317"/>
      <point x="784" y="307" type="qcurve"/>
      <point x="766" y="231" type="line"/>
      <point x="750" y="164"/>
      <point x="741" y="94"/>
      <point x="741" y="57" type="qcurve"/>
      <point x="741" y="0"/>
      <point x="791" y="-63"/>
      <point x="864" y="-94"/>
      <point x="948" y="-100"/>
      <point x="981" y="-100" type="qcurve"/>
      <point x="981" y="-203" type="line"/>
      <point x="897" y="-203" type="line"/>
      <point x="858" y="-203"/>
      <point x="807" y="-184" type="qcurve"/>
      <point x="723" y="-158"/>
      <point x="631" y="-23"/>
      <point x="631" y="61" type="qcurve"/>
      <point x="631" y="76"/>
      <point x="635" y="131"/>
      <point x="643" y="168" type="qcurve"/>
      <point x="643" y="174"/>
      <point x="647" y="199"/>
      <point x="653" y="225"/>
      <point x="659" y="250"/>
      <point x="662" y="256" type="qcurve"/>
      <point x="670" y="289"/>
      <point x="682" y="369"/>
      <point x="682" y="406" type="qcurve"/>
      <point x="682" y="446"/>
      <point x="637" y="498"/>
      <point x="578" y="526"/>
      <point x="516" y="537"/>
      <point x="500" y="539" type="qcurve"/>
      <point x="500" y="647" type="line"/>
      <point x="582" y="655"/>
      <point x="682" y="721"/>
      <point x="682" y="786" type="qcurve"/>
      <point x="682" y="805"/>
      <point x="678" y="848"/>
      <point x="672" y="891"/>
      <point x="664" y="922"/>
      <point x="662" y="930" type="qcurve"/>
      <point x="653" y="975"/>
      <point x="641" y="1030"/>
      <point x="635" y="1069"/>
      <point x="631" y="1100"/>
      <point x="631" y="1118" type="qcurve"/>
      <point x="631" y="1225"/>
      <point x="725" y="1335"/>
      <point x="846" y="1384"/>
      <point x="961" y="1389"/>
      <point x="981" y="1389" type="qcurve"/>
    </contour>
  </outline>
</glyph>
<glyph name="bar" format="2">
  <advance width="1278"/>
  <unicode hex="007C"/>
  <outline>
    <contour>
      <point x="584" y="-393" type="line"/>
      <point x="584" y="1434" type="line"/>
      <point x="696" y="1434" type="line"/>
      <point x="696" y="-393" type="line"/>
    </contour>
  </outline>
</glyph>
<glyph name="braceright" format="2">
  <advance width="1278"/>
  <unicode hex="007D"/>
  <outline>
    <contour>
      <point x="297" y="-100" type="line"/>
      <point x="334" y="-100"/>
      <point x="420" y="-94"/>
      <point x="489" y="-61"/>
      <point x="537" y="2"/>
      <point x="537" y="59" type="qcurve"/>
      <point x="537" y="94"/>
      <point x="528" y="164"/>
      <point x="512" y="231" type="qcurve"/>
      <point x="494" y="307" type="line"/>
      <point x="492" y="317"/>
      <point x="483" y="375"/>
      <point x="483" y="401" type="qcurve"/>
      <point x="483" y="438"/>
      <point x="504" y="498"/>
      <point x="539" y="543"/>
      <point x="582" y="580"/>
      <point x="600" y="594" type="qcurve"/>
      <point x="563" y="623"/>
      <point x="483" y="709"/>
      <point x="483" y="786" type="qcurve"/>
      <point x="483" y="811"/>
      <point x="492" y="868"/>
      <point x="494" y="881" type="qcurve"/>
      <point x="512" y="954" type="line"/>
      <point x="528" y="1022"/>
      <point x="537" y="1094"/>
      <point x="537" y="1128" type="qcurve"/>
      <point x="537" y="1186"/>
      <point x="485" y="1249"/>
      <point x="414" y="1280"/>
      <point x="330" y="1286"/>
      <point x="297" y="1286" type="qcurve"/>
      <point x="297" y="1389" type="line"/>
      <point x="379" y="1389" type="line"/>
      <point x="420" y="1389"/>
      <point x="471" y="1372" type="qcurve"/>
      <point x="555" y="1343"/>
      <point x="647" y="1210"/>
      <point x="647" y="1124" type="qcurve"/>
      <point x="647" y="1110"/>
      <point x="643" y="1055"/>
      <point x="635" y="1018" type="qcurve"/>
      <point x="635" y="1012"/>
      <point x="631" y="989"/>
      <point x="625" y="961"/>
      <point x="618" y="938"/>
      <point x="616" y="930" type="qcurve"/>
      <point x="608" y="897"/>
      <point x="596" y="817"/>
      <point x="596" y="782" type="qcurve"/>
      <point x="596" y="739"/>
      <point x="641" y="688"/>
      <point x="700" y="659"/>
      <point x="760" y="649"/>
      <point x="778" y="647" type="qcurve"/>
      <point x="778" y="539" type="line"/>
      <point x="696" y="530"/>
      <point x="596" y="467"/>
      <point x="596" y="401" type="qcurve"/>
      <point x="596" y="381"/>
      <point x="600" y="338"/>
      <point x="606" y="297"/>
      <point x="614" y="264"/>
      <point x="616" y="256" type="qcurve"/>
      <point x="625" y="211"/>
      <point x="637" y="156"/>
      <point x="643" y="117"/>
      <point x="647" y="88"/>
      <point x="647" y="68" type="qcurve"/>
      <point x="647" y="-39"/>
      <point x="553" y="-152"/>
      <point x="432" y="-199"/>
      <point x="317" y="-203"/>
      <point x="297" y="-203" type="qcurve"/>
    </contour>
  </outline>
</glyph>
<glyph name="asciitilde" format="2">
  <advance width="624"/>
  <unicode hex="007E"/>
  <outline>
    <contour>
      <point x="536" y="363" type="line"/>
      <point x="529" y="352"/>
      <point x="508" y="318"/>
      <point x="475" y="287"/>
      <point x="434" y="264"/>
      <point x="408" y="264" type="qcurve"/>
      <point x="404" y="264"/>
      <point x="392" y="265"/>
      <point x="371" y="270"/>
      <point x="337" y="282"/>
      <point x="310" y="293" type="qcurve"/>
      <point x="285" y="304"/>
      <point x="256" y="316"/>
      <point x="237" y="322"/>
      <point x="224" y="324"/>
      <point x="216" y="324" type="qcurve"/>
      <point x="185" y="324"/>
      <point x="146" y="276"/>
      <point x="124" y="238" type="qcurve"/>
      <point x="89" y="279" type="line"/>
      <point x="100" y="296"/>
      <point x="124" y="334"/>
      <point x="154" y="364"/>
      <point x="191" y="384"/>
      <point x="216" y="384" type="qcurve"/>
      <point x="239" y="384"/>
      <point x="285" y="368"/>
      <point x="326" y="350" type="qcurve"/>
      <point x="346" y="342"/>
      <point x="373" y="332"/>
      <point x="390" y="326"/>
      <point x="401" y="323"/>
      <point x="407" y="323" type="qcurve"/>
      <point x="413" y="323"/>
      <point x="432" y="328"/>
      <point x="456" y="342"/>
      <point x="482" y="369"/>
      <point x="495" y="393" type="qcurve"/>
      <point x="495" y="395"/>
      <point x="499" y="401"/>
      <point x="500" y="402" type="qcurve"/>
    </contour>
  </outline>
</glyph>
<glyph name="exclamdown" format="2">
  <advance width="1278"/>
  <unicode hex="00A1"/>
  <outline>
    <contour>
      <point x="688" y="512" type="line"/>
      <point x="727" y="-295" type="line"/>
      <point x="549" y="-295" type="line"/>
      <point x="590" y="512" type="line"/>
    </contour>
    <contour>
      <point x="639" y="696" type="qcurve"/>
      <point x="575" y="696"/>
      <point x="492" y="774"/>
      <point x="492" y="829" type="qcurve"/>
      <point x="492" y="885"/>
      <point x="578" y="958"/>
      <point x="639" y="958" type="qcurve"/>
      <point x="700" y="958"/>
      <point x="786" y="883"/>
      <point x="786" y="827" type="qcurve"/>
      <point x="786" y="770"/>
      <point x="700" y="696"/>
    </contour>
  </outline>
</glyph>
<glyph name="cent" format="2">
  <advance width="1278"/>
  <unicode hex="00A2"/>
  <outline>
    <contour>
      <point x="707" y="289" type="line"/>
      <point x="754" y="299"/>
      <point x="823" y="315"/>
      <point x="895" y="340"/>
      <point x="975" y="383"/>
      <point x="1032" y="420" type="qcurve"/>
      <point x="1083" y="332" type="line"/>
      <point x="1081" y="332"/>
      <point x="1073" y="326"/>
      <point x="1071" y="326" type="qcurve"/>
      <point x="1020" y="291"/>
      <point x="942" y="248"/>
      <point x="862" y="217"/>
      <point x="770" y="197"/>
      <point x="707" y="184" type="qcurve"/>
      <point x="707" y="-121" type="line"/>
      <point x="602" y="-121" type="line"/>
      <point x="602" y="184" type="line"/>
      <point x="543" y="199"/>
      <point x="457" y="225"/>
      <point x="389" y="264"/>
      <point x="336" y="317"/>
      <point x="311" y="354" type="qcurve"/>
      <point x="279" y="403"/>
      <point x="236" y="522"/>
      <point x="236" y="598" type="qcurve"/>
      <point x="236" y="674"/>
      <point x="285" y="811"/>
      <point x="377" y="922"/>
      <point x="514" y="999"/>
      <point x="602" y="1014" type="qcurve"/>
      <point x="602" y="1303" type="line"/>
      <point x="707" y="1303" type="line"/>
      <point x="707" y="1014" type="line"/>
      <point x="758" y="1010"/>
      <point x="838" y="983"/>
      <point x="891" y="956"/>
      <point x="922" y="928"/>
      <point x="926" y="924" type="qcurve"/>
      <point x="930" y="922"/>
      <point x="936" y="915"/>
      <point x="940" y="915" type="qcurve"/>
      <point x="946" y="915"/>
      <point x="952" y="930"/>
      <point x="958" y="948"/>
      <point x="958" y="956" type="qcurve"/>
      <point x="961" y="963"/>
      <point x="961" y="965" type="qcurve"/>
      <point x="965" y="987"/>
      <point x="965" y="991" type="qcurve"/>
      <point x="1065" y="979" type="line"/>
      <point x="1059" y="942"/>
      <point x="1047" y="850"/>
      <point x="1047" y="807" type="qcurve"/>
      <point x="1047" y="786"/>
      <point x="1049" y="729"/>
      <point x="1053" y="680" type="qcurve"/>
      <point x="952" y="668" type="line"/>
      <point x="952" y="686"/>
      <point x="948" y="737"/>
      <point x="930" y="791"/>
      <point x="899" y="844"/>
      <point x="870" y="862" type="qcurve"/>
      <point x="829" y="893"/>
      <point x="735" y="915"/>
      <point x="707" y="915" type="qcurve"/>
    </contour>
    <contour>
      <point x="602" y="909" type="line"/>
      <point x="508" y="889"/>
      <point x="403" y="793"/>
      <point x="356" y="690"/>
      <point x="348" y="606"/>
      <point x="348" y="600" type="qcurve"/>
      <point x="348" y="553"/>
      <point x="381" y="442"/>
      <point x="420" y="393" type="qcurve"/>
      <point x="463" y="338"/>
      <point x="555" y="303"/>
      <point x="602" y="291" type="qcurve"/>
    </contour>
  </outline>
</glyph>
<glyph name="sterling" format="2">
  <advance width="1278"/>
  <unicode hex="00A3"/>
  <outline>
    <contour>
      <point x="397" y="723" type="line"/>
      <point x="367" y="807"/>
      <point x="342" y="905"/>
      <point x="342" y="954" type="qcurve"/>
      <point x="342" y="1028"/>
      <point x="406" y="1157"/>
      <point x="512" y="1249"/>
      <point x="647" y="1303"/>
      <point x="725" y="1303" type="qcurve"/>
      <point x="805" y="1303"/>
      <point x="922" y="1270"/>
      <point x="967" y="1253" type="qcurve"/>
      <point x="971" y="1249"/>
      <point x="987" y="1245"/>
      <point x="991" y="1245" type="qcurve"/>
      <point x="995" y="1245"/>
      <point x="1001" y="1253"/>
      <point x="1008" y="1268" type="qcurve"/>
      <point x="1104" y="1268" type="line"/>
      <point x="1085" y="1208"/>
      <point x="1067" y="1106"/>
      <point x="1063" y="1028" type="qcurve"/>
      <point x="967" y="1018" type="line"/>
      <point x="969" y="1044"/>
      <point x="971" y="1079"/>
      <point x="971" y="1087" type="qcurve"/>
      <point x="971" y="1102"/>
      <point x="961" y="1137"/>
      <point x="944" y="1149" type="qcurve"/>
      <point x="920" y="1161"/>
      <point x="797" y="1200"/>
      <point x="729" y="1200" type="qcurve"/>
      <point x="659" y="1200"/>
      <point x="553" y="1157"/>
      <point x="483" y="1085"/>
      <point x="446" y="999"/>
      <point x="446" y="956" type="qcurve"/>
      <point x="446" y="934"/>
      <point x="455" y="893"/>
      <point x="467" y="840"/>
      <point x="487" y="770"/>
      <point x="504" y="723" type="qcurve"/>
      <point x="1022" y="723" type="line"/>
      <point x="1022" y="623" type="line"/>
      <point x="535" y="623" type="line"/>
      <point x="545" y="580"/>
      <point x="553" y="512"/>
      <point x="553" y="467" type="qcurve"/>
      <point x="553" y="395"/>
      <point x="532" y="285"/>
      <point x="498" y="199"/>
      <point x="461" y="129"/>
      <point x="440" y="104" type="qcurve"/>
      <point x="444" y="100" type="line"/>
      <point x="475" y="115"/>
      <point x="547" y="141"/>
      <point x="596" y="141" type="qcurve"/>
      <point x="635" y="141"/>
      <point x="702" y="125"/>
      <point x="760" y="102" type="qcurve"/>
      <point x="807" y="86"/>
      <point x="858" y="70"/>
      <point x="883" y="70" type="qcurve"/>
      <point x="934" y="70"/>
      <point x="1012" y="115"/>
      <point x="1063" y="158" type="qcurve"/>
      <point x="1124" y="82" type="line"/>
      <point x="1110" y="66"/>
      <point x="1065" y="29"/>
      <point x="1008" y="-6"/>
      <point x="934" y="-31"/>
      <point x="889" y="-31" type="qcurve"/>
      <point x="858" y="-31"/>
      <point x="791" y="-16"/>
      <point x="739" y="2" type="qcurve"/>
      <point x="680" y="23"/>
      <point x="621" y="41"/>
      <point x="586" y="41" type="qcurve"/>
      <point x="543" y="41"/>
      <point x="434" y="8"/>
      <point x="344" y="-43" type="qcurve"/>
      <point x="274" y="49" type="line"/>
      <point x="336" y="113"/>
      <point x="410" y="238"/>
      <point x="444" y="348"/>
      <point x="455" y="432"/>
      <point x="455" y="459" type="qcurve"/>
      <point x="455" y="541"/>
      <point x="428" y="623" type="qcurve"/>
      <point x="205" y="623" type="line"/>
      <point x="205" y="723" type="line"/>
    </contour>
  </outline>
</glyph>
<glyph name="currency" format="2">
  <advance width="1278"/>
  <unicode hex="00A4"/>
  <outline>
    <contour>
      <point x="1044" y="129" type="line"/>
      <point x="870" y="301" type="line"/>
      <point x="805" y="248"/>
      <point x="674" y="221"/>
      <point x="639" y="221" type="qcurve"/>
      <point x="627" y="221"/>
      <point x="578" y="225"/>
      <point x="516" y="242"/>
      <point x="442" y="272"/>
      <point x="408" y="301" type="qcurve"/>
      <point x="233" y="129" type="line"/>
      <point x="160" y="203" type="line"/>
      <point x="334" y="373" type="line"/>
      <point x="279" y="455"/>
      <point x="260" y="569"/>
      <point x="260" y="586" type="qcurve"/>
      <point x="260" y="688"/>
      <point x="311" y="799"/>
      <point x="334" y="831" type="qcurve"/>
      <point x="160" y="1004" type="line"/>
      <point x="233" y="1073" type="line"/>
      <point x="408" y="903" type="line"/>
      <point x="473" y="954"/>
      <point x="596" y="981"/>
      <point x="639" y="981" type="qcurve"/>
      <point x="686" y="981"/>
      <point x="760" y="965"/>
      <point x="817" y="940"/>
      <point x="858" y="911"/>
      <point x="870" y="903" type="qcurve"/>
      <point x="1044" y="1073" type="line"/>
      <point x="1118" y="1004" type="line"/>
      <point x="944" y="831" type="line"/>
      <point x="997" y="756"/>
      <point x="1020" y="641"/>
      <point x="1020" y="618" type="qcurve"/>
      <point x="1020" y="567"/>
      <point x="1004" y="487"/>
      <point x="979" y="430"/>
      <point x="954" y="387"/>
      <point x="944" y="373" type="qcurve"/>
      <point x="1118" y="203" type="line"/>
    </contour>
    <contour>
      <point x="920" y="602" type="qcurve"/>
      <point x="920" y="655"/>
      <point x="883" y="756"/>
      <point x="807" y="836"/>
      <point x="702" y="883"/>
      <point x="639" y="883" type="qcurve"/>
      <point x="573" y="883"/>
      <point x="471" y="834"/>
      <point x="397" y="754"/>
      <point x="360" y="653"/>
      <point x="360" y="602" type="qcurve"/>
      <point x="360" y="547"/>
      <point x="397" y="446"/>
      <point x="469" y="369"/>
      <point x="573" y="322"/>
      <point x="637" y="322" type="qcurve"/>
      <point x="700" y="322"/>
      <point x="807" y="369"/>
      <point x="881" y="446"/>
      <point x="920" y="547"/>
    </contour>
  </outline>
</glyph>
<glyph name="yen" format="2">
  <advance width="1278"/>
  <unicode hex="00A5"/>
  <outline>
    <contour>
      <point x="950" y="100" type="line"/>
      <point x="950" y="0" type="line"/>
      <point x="340" y="0" type="line"/>
      <point x="340" y="100" type="line"/>
      <point x="594" y="100" type="line"/>
      <point x="594" y="297" type="line"/>
      <point x="281" y="297" type="line"/>
      <point x="281" y="395" type="line"/>
      <point x="594" y="395" type="line"/>
      <point x="594" y="520" type="line"/>
      <point x="281" y="520" type="line"/>
      <point x="281" y="621" type="line"/>
      <point x="594" y="621" type="line"/>
      <point x="594" y="647" type="line"/>
      <point x="199" y="1163" type="line"/>
      <point x="68" y="1163" type="line"/>
      <point x="68" y="1264" type="line"/>
      <point x="487" y="1264" type="line"/>
      <point x="487" y="1163" type="line"/>
      <point x="326" y="1163" type="line"/>
      <point x="645" y="748" type="line"/>
      <point x="958" y="1163" type="line"/>
      <point x="797" y="1163" type="line"/>
      <point x="797" y="1264" type="line"/>
      <point x="1210" y="1264" type="line"/>
      <point x="1210" y="1163" type="line"/>
      <point x="1081" y="1163" type="line"/>
      <point x="696" y="647" type="line"/>
      <point x="696" y="621" type="line"/>
      <point x="1004" y="621" type="line"/>
      <point x="1004" y="520" type="line"/>
      <point x="696" y="520" type="line"/>
      <point x="696" y="395" type="line"/>
      <point x="1004" y="395" type="line"/>
      <point x="1004" y="297" type="line"/>
      <point x="696" y="297" type="line"/>
      <point x="696" y="100" type="line"/>
    </contour>
  </outline>
</glyph>
<glyph name="brokenbar" format="2">
  <advance width="1278"/>
  <unicode hex="00A6"/>
  <outline>
    <contour>
      <point x="584" y="639" type="line"/>
      <point x="584" y="1434" type="line"/>
      <point x="696" y="1434" type="line"/>
      <point x="696" y="639" type="line"/>
    </contour>
    <contour>
      <point x="584" y="-393" type="line"/>
      <point x="584" y="401" type="line"/>
      <point x="696" y="401" type="line"/>
      <point x="696" y="-393" type="line"/>
    </contour>
  </outline>
</glyph>
<glyph name="section" format="2">
  <advance width="1278"/>
  <unicode hex="00A7"/>
  <outline>
    <contour>
      <point x="899" y="915" type="line"/>
      <point x="899" y="1100" type="line"/>
      <point x="653" y="1100" type="line"/>
      <point x="637" y="1100"/>
      <point x="584" y="1096"/>
      <point x="532" y="1071"/>
      <point x="496" y="1022"/>
      <point x="496" y="975" type="qcurve"/>
      <point x="496" y="934"/>
      <point x="543" y="870"/>
      <point x="573" y="848" type="qcurve"/>
      <point x="866" y="623" type="line"/>
      <point x="905" y="592"/>
      <point x="971" y="537"/>
      <point x="1018" y="479"/>
      <point x="1044" y="414"/>
      <point x="1044" y="373" type="qcurve"/>
      <point x="1044" y="348"/>
      <point x="1026" y="283"/>
      <point x="987" y="223"/>
      <point x="918" y="176"/>
      <point x="866" y="166" type="qcurve"/>
      <point x="877" y="150"/>
      <point x="907" y="90"/>
      <point x="907" y="39" type="qcurve"/>
      <point x="907" y="-70"/>
      <point x="750" y="-195"/>
      <point x="616" y="-195" type="qcurve"/>
      <point x="279" y="-195" type="line"/>
      <point x="279" y="113" type="line"/>
      <point x="379" y="113" type="line"/>
      <point x="379" y="-94" type="line"/>
      <point x="629" y="-94" type="line"/>
      <point x="655" y="-94"/>
      <point x="717" y="-78"/>
      <point x="764" y="-49"/>
      <point x="797" y="0"/>
      <point x="797" y="37" type="qcurve"/>
      <point x="797" y="66"/>
      <point x="766" y="123"/>
      <point x="709" y="166" type="qcurve"/>
      <point x="424" y="385" type="line"/>
      <point x="356" y="438"/>
      <point x="264" y="539"/>
      <point x="264" y="614" type="qcurve"/>
      <point x="264" y="649"/>
      <point x="291" y="723"/>
      <point x="338" y="782"/>
      <point x="401" y="823"/>
      <point x="436" y="831" type="qcurve"/>
      <point x="401" y="870"/>
      <point x="385" y="961"/>
      <point x="385" y="973" type="qcurve"/>
      <point x="385" y="1042"/>
      <point x="449" y="1133"/>
      <point x="483" y="1157" type="qcurve"/>
      <point x="532" y="1186"/>
      <point x="647" y="1200"/>
      <point x="684" y="1200" type="qcurve"/>
      <point x="999" y="1200" type="line"/>
      <point x="999" y="915" type="line"/>
    </contour>
    <contour>
      <point x="528" y="750" type="line"/>
      <point x="471" y="743"/>
      <point x="410" y="702"/>
      <point x="379" y="657"/>
      <point x="375" y="621"/>
      <point x="375" y="616" type="qcurve"/>
      <point x="375" y="588"/>
      <point x="414" y="528"/>
      <point x="481" y="477" type="qcurve"/>
      <point x="770" y="254" type="line"/>
      <point x="821" y="256"/>
      <point x="885" y="283"/>
      <point x="920" y="319"/>
      <point x="934" y="360"/>
      <point x="934" y="373" type="qcurve"/>
      <point x="934" y="391"/>
      <point x="922" y="426"/>
      <point x="893" y="463"/>
      <point x="842" y="508"/>
      <point x="801" y="539" type="qcurve"/>
    </contour>
  </outline>
</glyph>
<glyph name="dieresis" format="2">
  <advance width="624"/>
  <unicode hex="00A8"/>
  <outline>
    <contour>
      <point x="282" y="646" type="line"/>
      <point x="282" y="534" type="line"/>
      <point x="207" y="534" type="line"/>
      <point x="207" y="646" type="line"/>
    </contour>
    <contour>
      <point x="417" y="646" type="line"/>
      <point x="417" y="534" type="line"/>
      <point x="342" y="534" type="line"/>
      <point x="342" y="646" type="line"/>
    </contour>
  </outline>
</glyph>
<glyph name="copyright" format="2">
  <advance width="1278"/>
  <unicode hex="00A9"/>
  <outline>
    <contour>
      <point x="856" y="729" type="line"/>
      <point x="852" y="776"/>
      <point x="846" y="840"/>
      <point x="836" y="856" type="qcurve"/>
      <point x="817" y="885"/>
      <point x="729" y="920"/>
      <point x="674" y="920" type="qcurve"/>
      <point x="606" y="920"/>
      <point x="508" y="872"/>
      <point x="438" y="793"/>
      <point x="406" y="686"/>
      <point x="406" y="627" type="qcurve"/>
      <point x="406" y="565"/>
      <point x="440" y="451"/>
      <point x="510" y="367"/>
      <point x="604" y="317"/>
      <point x="668" y="317" type="qcurve"/>
      <point x="717" y="317"/>
      <point x="791" y="350"/>
      <point x="840" y="395"/>
      <point x="870" y="446"/>
      <point x="883" y="469" type="qcurve"/>
      <point x="934" y="446" type="line"/>
      <point x="913" y="395"/>
      <point x="852" y="324"/>
      <point x="774" y="274"/>
      <point x="682" y="252"/>
      <point x="637" y="252" type="qcurve"/>
      <point x="557" y="252"/>
      <point x="432" y="311"/>
      <point x="342" y="412"/>
      <point x="297" y="543"/>
      <point x="297" y="618" type="qcurve"/>
      <point x="297" y="688"/>
      <point x="342" y="819"/>
      <point x="434" y="920"/>
      <point x="573" y="981"/>
      <point x="664" y="981" type="qcurve"/>
      <point x="717" y="981"/>
      <point x="860" y="954"/>
      <point x="915" y="936" type="qcurve"/>
      <point x="915" y="729" type="line"/>
    </contour>
    <contour>
      <point x="639" y="1235" type="qcurve"/>
      <point x="766" y="1235"/>
      <point x="993" y="1139"/>
      <point x="1159" y="971"/>
      <point x="1257" y="745"/>
      <point x="1257" y="618" type="qcurve"/>
      <point x="1257" y="489"/>
      <point x="1159" y="264"/>
      <point x="993" y="96"/>
      <point x="766" y="-2"/>
      <point x="639" y="-2" type="qcurve"/>
      <point x="512" y="-2"/>
      <point x="287" y="96"/>
      <point x="119" y="264"/>
      <point x="20" y="489"/>
      <point x="20" y="618" type="qcurve"/>
      <point x="20" y="748"/>
      <point x="119" y="973"/>
      <point x="287" y="1139"/>
      <point x="514" y="1235"/>
    </contour>
    <contour>
      <point x="639" y="1155" type="qcurve"/>
      <point x="528" y="1155"/>
      <point x="334" y="1071"/>
      <point x="188" y="924"/>
      <point x="102" y="729"/>
      <point x="102" y="616" type="qcurve"/>
      <point x="102" y="504"/>
      <point x="188" y="309"/>
      <point x="334" y="164"/>
      <point x="528" y="78"/>
      <point x="639" y="78" type="qcurve"/>
      <point x="750" y="78"/>
      <point x="944" y="164"/>
      <point x="1090" y="309"/>
      <point x="1176" y="504"/>
      <point x="1176" y="616" type="qcurve"/>
      <point x="1176" y="727"/>
      <point x="1090" y="924"/>
      <point x="946" y="1069"/>
      <point x="750" y="1155"/>
    </contour>
  </outline>
</glyph>
<glyph name="ordfeminine" format="2">
  <advance width="624"/>
  <unicode hex="00AA"/>
  <outline>
    <contour>
      <point x="199" y="577" type="line"/>
      <point x="235" y="592"/>
      <point x="281" y="603"/>
      <point x="305" y="603" type="qcurve"/>
      <point x="399" y="603"/>
      <point x="399" y="520" type="qcurve"/>
      <point x="399" y="397" type="line"/>
      <point x="444" y="397" type="line"/>
      <point x="444" y="360" type="line"/>
      <point x="360" y="360" type="line"/>
      <point x="360" y="389" type="line"/>
      <point x="333" y="368"/>
      <point x="292" y="353"/>
      <point x="268" y="353" type="qcurve"/>
      <point x="232" y="353"/>
      <point x="180" y="397"/>
      <point x="180" y="431" type="qcurve"/>
      <point x="180" y="468"/>
      <point x="242" y="515"/>
      <point x="295" y="515" type="qcurve"/>
      <point x="311" y="515"/>
      <point x="337" y="513"/>
      <point x="360" y="510" type="qcurve"/>
      <point x="360" y="517" type="line"/>
      <point x="360" y="543"/>
      <point x="334" y="566"/>
      <point x="304" y="566" type="qcurve"/>
      <point x="284" y="566"/>
      <point x="242" y="554"/>
      <point x="213" y="542" type="qcurve"/>
    </contour>
    <contour>
      <point x="360" y="472" type="line"/>
      <point x="338" y="475"/>
      <point x="313" y="477"/>
      <point x="301" y="477" type="qcurve"/>
      <point x="264" y="477"/>
      <point x="219" y="452"/>
      <point x="219" y="431" type="qcurve"/>
      <point x="219" y="414"/>
      <point x="249" y="390"/>
      <point x="268" y="390" type="qcurve"/>
      <point x="316" y="390"/>
      <point x="360" y="440" type="qcurve"/>
    </contour>
    <contour>
      <point x="439" y="277" type="line"/>
      <point x="185" y="277" type="line"/>
      <point x="185" y="314" type="line"/>
      <point x="439" y="314" type="line"/>
    </contour>
  </outline>
</glyph>
<glyph name="guillemotleft" format="2">
  <advance width="554"/>
  <unicode hex="00AB"/>
  <outline>
    <contour>
      <point x="390" y="52" type="line"/>
      <point x="250" y="280" type="line"/>
      <point x="390" y="506" type="line"/>
      <point x="502" y="506" type="line"/>
      <point x="362" y="280" type="line"/>
      <point x="502" y="52" type="line"/>
    </contour>
    <contour>
      <point x="192" y="52" type="line"/>
      <point x="52" y="280" type="line"/>
      <point x="192" y="506" type="line"/>
      <point x="306" y="506" type="line"/>
      <point x="165" y="280" type="line"/>
      <point x="306" y="52" type="line"/>
    </contour>
  </outline>
</glyph>
<glyph name="logicalnot" format="2">
  <advance width="1278"/>
  <unicode hex="00AC"/>
  <outline>
    <contour>
      <point x="1106" y="360" type="line"/>
      <point x="999" y="360" type="line"/>
      <point x="999" y="827" type="line"/>
      <point x="193" y="827" type="line"/>
      <point x="193" y="934" type="line"/>
      <point x="1106" y="934" type="line"/>
    </contour>
  </outline>
</glyph>
<glyph name="uni00AD" format="2">
  <advance width="624"/>
  <unicode hex="00AD"/>
  <outline>
    <contour>
      <point x="202" y="330" type="line"/>
      <point x="422" y="330" type="line"/>
      <point x="422" y="272" type="line"/>
      <point x="202" y="272" type="line"/>
    </contour>
  </outline>
</glyph>
<glyph name="registered" format="2">
  <advance width="624"/>
  <unicode hex="00AE"/>
  <outline>
    <contour>
      <point x="310" y="485" type="line"/>
      <point x="318" y="485"/>
      <point x="358" y="482"/>
      <point x="399" y="465"/>
      <point x="431" y="428"/>
      <point x="431" y="396" type="qcurve"/>
      <point x="431" y="391"/>
      <point x="427" y="368"/>
      <point x="413" y="340"/>
      <point x="381" y="314"/>
      <point x="352" y="307" type="qcurve"/>
      <point x="368" y="295"/>
      <point x="391" y="252"/>
      <point x="408" y="214" type="qcurve"/>
      <point x="416" y="196"/>
      <point x="427" y="176"/>
      <point x="440" y="166"/>
      <point x="457" y="165"/>
      <point x="470" y="165" type="qcurve"/>
      <point x="470" y="140" type="line"/>
      <point x="428" y="140" type="line"/>
      <point x="398" y="140"/>
      <point x="370" y="183"/>
      <point x="357" y="219" type="qcurve"/>
      <point x="346" y="248"/>
      <point x="332" y="278"/>
      <point x="315" y="293"/>
      <point x="293" y="296"/>
      <point x="275" y="296" type="qcurve"/>
      <point x="256" y="296" type="line"/>
      <point x="256" y="192" type="line"/>
      <point x="256" y="179"/>
      <point x="258" y="172"/>
      <point x="263" y="168" type="qcurve"/>
      <point x="265" y="167"/>
      <point x="290" y="165"/>
      <point x="298" y="164" type="qcurve"/>
      <point x="298" y="140" type="line"/>
      <point x="166" y="140" type="line"/>
      <point x="166" y="164" type="line"/>
      <point x="168" y="165"/>
      <point x="174" y="165" type="qcurve"/>
      <point x="180" y="165"/>
      <point x="181" y="166" type="qcurve"/>
      <point x="200" y="168"/>
      <point x="209" y="175"/>
      <point x="209" y="192" type="qcurve"/>
      <point x="209" y="435" type="line"/>
      <point x="209" y="447"/>
      <point x="208" y="453"/>
      <point x="203" y="456" type="qcurve"/>
      <point x="202" y="457"/>
      <point x="196" y="457" type="qcurve"/>
      <point x="193" y="457"/>
      <point x="178" y="458"/>
      <point x="166" y="459" type="qcurve"/>
      <point x="166" y="485" type="line"/>
    </contour>
    <contour>
      <point x="280" y="321" type="line"/>
      <point x="327" y="321"/>
      <point x="384" y="353"/>
      <point x="384" y="393" type="qcurve"/>
      <point x="384" y="417"/>
      <point x="365" y="444"/>
      <point x="338" y="457"/>
      <point x="309" y="460"/>
      <point x="298" y="460" type="qcurve"/>
      <point x="269" y="460"/>
      <point x="256" y="453"/>
      <point x="256" y="438" type="qcurve"/>
      <point x="256" y="321" type="line"/>
    </contour>
    <contour>
      <point x="312" y="603" type="qcurve"/>
      <point x="374" y="603"/>
      <point x="484" y="556"/>
      <point x="566" y="475"/>
      <point x="614" y="365"/>
      <point x="614" y="302" type="qcurve"/>
      <point x="614" y="239"/>
      <point x="566" y="130"/>
      <point x="485" y="48"/>
      <point x="374" y="0"/>
      <point x="312" y="0" type="qcurve"/>
      <point x="250" y="0"/>
      <point x="139" y="48"/>
      <point x="58" y="130"/>
      <point x="10" y="239"/>
      <point x="10" y="302" type="qcurve"/>
      <point x="10" y="365"/>
      <point x="58" y="475"/>
      <point x="140" y="556"/>
      <point x="251" y="603"/>
    </contour>
    <contour>
      <point x="312" y="564" type="qcurve"/>
      <point x="258" y="564"/>
      <point x="163" y="523"/>
      <point x="92" y="451"/>
      <point x="50" y="356"/>
      <point x="50" y="302" type="qcurve"/>
      <point x="50" y="248"/>
      <point x="90" y="153"/>
      <point x="162" y="81"/>
      <point x="257" y="40"/>
      <point x="312" y="40" type="qcurve"/>
      <point x="366" y="40"/>
      <point x="462" y="81"/>
      <point x="534" y="153"/>
      <point x="574" y="248"/>
      <point x="574" y="302" type="qcurve"/>
      <point x="574" y="357"/>
      <point x="532" y="452"/>
      <point x="461" y="523"/>
      <point x="365" y="564"/>
    </contour>
  </outline>
</glyph>
<glyph name="overscore" format="2">
  <advance width="1278"/>
  <unicode hex="00AF"/>
  <outline>
    <contour>
      <point x="1001" y="1155" type="line"/>
      <point x="276" y="1155" type="line"/>
      <point x="276" y="1262" type="line"/>
      <point x="1001" y="1262" type="line"/>
    </contour>
  </outline>
</glyph>
<glyph name="degree" format="2">
  <advance width="1278"/>
  <unicode hex="00B0"/>
  <outline>
    <contour>
      <point x="313" y="995" type="qcurve"/>
      <point x="313" y="1063"/>
      <point x="365" y="1182"/>
      <point x="451" y="1272"/>
      <point x="571" y="1323"/>
      <point x="639" y="1323" type="qcurve"/>
      <point x="709" y="1323"/>
      <point x="829" y="1270"/>
      <point x="915" y="1180"/>
      <point x="965" y="1061"/>
      <point x="965" y="995" type="qcurve"/>
      <point x="965" y="928"/>
      <point x="913" y="811"/>
      <point x="827" y="723"/>
      <point x="707" y="672"/>
      <point x="639" y="672" type="qcurve"/>
      <point x="571" y="672"/>
      <point x="451" y="723"/>
      <point x="365" y="809"/>
      <point x="313" y="926"/>
    </contour>
    <contour>
      <point x="430" y="997" type="qcurve"/>
      <point x="430" y="907"/>
      <point x="549" y="788"/>
      <point x="639" y="788" type="qcurve"/>
      <point x="684" y="788"/>
      <point x="760" y="819"/>
      <point x="815" y="877"/>
      <point x="848" y="952"/>
      <point x="848" y="997" type="qcurve"/>
      <point x="848" y="1085"/>
      <point x="729" y="1206"/>
      <point x="639" y="1206" type="qcurve"/>
      <point x="594" y="1206"/>
      <point x="520" y="1174"/>
      <point x="463" y="1118"/>
      <point x="430" y="1042"/>
    </contour>
  </outline>
</glyph>
<glyph name="plusminus" format="2">
  <advance width="624"/>
  <unicode hex="00B1"/>
  <outline>
    <contour>
      <point x="338" y="395" type="line"/>
      <point x="555" y="395" type="line"/>
      <point x="555" y="343" type="line"/>
      <point x="338" y="343" type="line"/>
      <point x="338" y="139" type="line"/>
      <point x="286" y="139" type="line"/>
      <point x="286" y="343" type="line"/>
      <point x="69" y="343" type="line"/>
      <point x="69" y="395" type="line"/>
      <point x="286" y="395" type="line"/>
      <point x="286" y="599" type="line"/>
      <point x="338" y="599" type="line"/>
    </contour>
    <contour>
      <point x="555" y="32" type="line"/>
      <point x="69" y="32" type="line"/>
      <point x="69" y="84" type="line"/>
      <point x="555" y="84" type="line"/>
    </contour>
  </outline>
</glyph>
<glyph name="twosuperior" format="2">
  <advance width="1278"/>
  <unicode hex="00B2"/>
  <outline>
    <contour>
      <point x="864" y="528" type="line"/>
      <point x="356" y="528" type="line"/>
      <point x="356" y="610" type="line"/>
      <point x="375" y="629" type="line"/>
      <point x="395" y="647"/>
      <point x="461" y="705"/>
      <point x="528" y="766"/>
      <point x="592" y="823"/>
      <point x="614" y="844" type="qcurve"/>
      <point x="668" y="893"/>
      <point x="733" y="958"/>
      <point x="764" y="1010"/>
      <point x="776" y="1055"/>
      <point x="776" y="1083" type="qcurve"/>
      <point x="776" y="1149"/>
      <point x="682" y="1237"/>
      <point x="616" y="1237" type="qcurve"/>
      <point x="555" y="1237"/>
      <point x="471" y="1174"/>
      <point x="469" y="1130" type="qcurve"/>
      <point x="471" y="1106" type="line"/>
      <point x="381" y="1106" type="line"/>
      <point x="381" y="1206" type="line"/>
      <point x="473" y="1323"/>
      <point x="618" y="1323" type="qcurve"/>
      <point x="670" y="1323"/>
      <point x="760" y="1284"/>
      <point x="829" y="1221"/>
      <point x="866" y="1133"/>
      <point x="866" y="1081" type="qcurve"/>
      <point x="866" y="1042"/>
      <point x="846" y="975"/>
      <point x="795" y="901"/>
      <point x="702" y="811"/>
      <point x="633" y="748" type="qcurve"/>
      <point x="485" y="614" type="line"/>
      <point x="782" y="614" type="line"/>
      <point x="782" y="735" type="line"/>
      <point x="864" y="735" type="line"/>
    </contour>
  </outline>
</glyph>
<glyph name="threesuperior" format="2">
  <advance width="1278"/>
  <unicode hex="00B3"/>
  <outline>
    <contour>
      <point x="369" y="1233" type="line"/>
      <point x="446" y="1284"/>
      <point x="543" y="1323"/>
      <point x="596" y="1323" type="qcurve"/>
      <point x="692" y="1323"/>
      <point x="819" y="1208"/>
      <point x="819" y="1118" type="qcurve"/>
      <point x="819" y="1020"/>
      <point x="739" y="952" type="qcurve"/>
      <point x="858" y="877"/>
      <point x="858" y="752" type="qcurve"/>
      <point x="858" y="643"/>
      <point x="711" y="510"/>
      <point x="596" y="510" type="qcurve"/>
      <point x="549" y="510"/>
      <point x="467" y="530"/>
      <point x="393" y="561" type="qcurve"/>
      <point x="354" y="578" type="line"/>
      <point x="387" y="655" type="line"/>
      <point x="457" y="625"/>
      <point x="555" y="594"/>
      <point x="600" y="594" type="qcurve"/>
      <point x="676" y="594"/>
      <point x="768" y="684"/>
      <point x="768" y="752" type="qcurve"/>
      <point x="768" y="821"/>
      <point x="680" y="897"/>
      <point x="596" y="897" type="qcurve"/>
      <point x="545" y="897" type="line"/>
      <point x="545" y="981" type="line"/>
      <point x="602" y="983"/>
      <point x="653" y="995"/>
      <point x="678" y="1012" type="qcurve"/>
      <point x="731" y="1053"/>
      <point x="731" y="1116" type="qcurve"/>
      <point x="731" y="1169"/>
      <point x="653" y="1237"/>
      <point x="596" y="1237" type="qcurve"/>
      <point x="561" y="1237"/>
      <point x="494" y="1217"/>
      <point x="444" y="1182" type="qcurve"/>
      <point x="414" y="1161" type="line"/>
    </contour>
  </outline>
</glyph>
<glyph name="acute" format="2">
  <advance width="1278"/>
  <unicode hex="00B4"/>
  <outline>
    <contour>
      <point x="459" y="1071" type="line"/>
      <point x="647" y="1317" type="line"/>
      <point x="874" y="1317" type="line"/>
      <point x="571" y="1071" type="line"/>
    </contour>
  </outline>
</glyph>
<glyph name="mu" format="2">
  <advance width="624"/>
  <unicode hex="00B5"/>
  <outline>
    <contour>
      <point x="175" y="203" type="line"/>
      <point x="175" y="178"/>
      <point x="177" y="142"/>
      <point x="182" y="116"/>
      <point x="191" y="98"/>
      <point x="199" y="88" type="qcurve"/>
      <point x="218" y="62"/>
      <point x="277" y="37"/>
      <point x="306" y="37" type="qcurve"/>
      <point x="335" y="37"/>
      <point x="399" y="62"/>
      <point x="417" y="85" type="qcurve"/>
      <point x="426" y="98"/>
      <point x="438" y="122"/>
      <point x="444" y="149"/>
      <point x="446" y="182"/>
      <point x="446" y="203" type="qcurve"/>
      <point x="446" y="404" type="line"/>
      <point x="361" y="404" type="line"/>
      <point x="361" y="447" type="line"/>
      <point x="498" y="447" type="line"/>
      <point x="498" y="43" type="line"/>
      <point x="584" y="43" type="line"/>
      <point x="584" y="0" type="line"/>
      <point x="447" y="0" type="line"/>
      <point x="447" y="55" type="line"/>
      <point x="445" y="55" type="line"/>
      <point x="437" y="43" type="line"/>
      <point x="417" y="16"/>
      <point x="344" y="-15"/>
      <point x="308" y="-15" type="qcurve"/>
      <point x="289" y="-15"/>
      <point x="254" y="-5"/>
      <point x="224" y="7"/>
      <point x="203" y="21"/>
      <point x="199" y="26" type="qcurve"/>
      <point x="189" y="35"/>
      <point x="183" y="42"/>
      <point x="174" y="49" type="qcurve"/>
      <point x="174" y="-155" type="line"/>
      <point x="123" y="-155" type="line"/>
      <point x="123" y="404" type="line"/>
      <point x="37" y="404" type="line"/>
      <point x="37" y="447" type="line"/>
      <point x="175" y="447" type="line"/>
    </contour>
  </outline>
</glyph>
<glyph name="paragraph" format="2">
  <advance width="624"/>
  <unicode hex="00B6"/>
  <outline>
    <contour>
      <point x="516" y="-49" type="line"/>
      <point x="516" y="-80" type="line"/>
      <point x="395" y="-80" type="line"/>
      <point x="395" y="-49" type="line"/>
      <point x="415" y="-49" type="line"/>
      <point x="415" y="554" type="line"/>
      <point x="330" y="554" type="line"/>
      <point x="330" y="-49" type="line"/>
      <point x="349" y="-49" type="line"/>
      <point x="349" y="-80" type="line"/>
      <point x="218" y="-80" type="line"/>
      <point x="218" y="-49" type="line"/>
      <point x="283" y="-49" type="line"/>
      <point x="283" y="271" type="line"/>
      <point x="253" y="269"/>
      <point x="190" y="282"/>
      <point x="138" y="317"/>
      <point x="105" y="381"/>
      <point x="105" y="431" type="qcurve"/>
      <point x="105" y="488"/>
      <point x="140" y="551"/>
      <point x="196" y="580"/>
      <point x="263" y="586"/>
      <point x="296" y="586" type="qcurve"/>
      <point x="512" y="586" type="line"/>
      <point x="512" y="554" type="line"/>
      <point x="462" y="554" type="line"/>
      <point x="462" y="-49" type="line"/>
    </contour>
    <contour>
      <point x="283" y="554" type="line"/>
      <point x="265" y="554"/>
      <point x="232" y="550"/>
      <point x="206" y="532"/>
      <point x="189" y="495"/>
      <point x="189" y="461" type="qcurve"/>
      <point x="189" y="398" type="line"/>
      <point x="189" y="392"/>
      <point x="193" y="359"/>
      <point x="212" y="324"/>
      <point x="250" y="300"/>
      <point x="283" y="303" type="qcurve"/>
    </contour>
  </outline>
</glyph>
<glyph name="middot" format="2">
  <advance width="1278"/>
  <unicode hex="00B7"/>
  <outline>
    <contour>
      <point x="639" y="791" type="qcurve"/>
      <point x="672" y="791"/>
      <point x="729" y="768"/>
      <point x="776" y="731"/>
      <point x="803" y="678"/>
      <point x="803" y="645" type="qcurve"/>
      <point x="803" y="610"/>
      <point x="774" y="557"/>
      <point x="727" y="520"/>
      <point x="670" y="500"/>
      <point x="639" y="500" type="qcurve"/>
      <point x="610" y="500"/>
      <point x="553" y="520"/>
      <point x="504" y="555"/>
      <point x="475" y="608"/>
      <point x="475" y="645" type="qcurve"/>
      <point x="475" y="680"/>
      <point x="504" y="733"/>
      <point x="551" y="770"/>
      <point x="608" y="791"/>
    </contour>
  </outline>
</glyph>
<glyph name="cedilla" format="2">
  <advance width="1278"/>
  <unicode hex="00B8"/>
  <outline>
    <contour>
      <point x="686" y="-53" type="line"/>
      <point x="739" y="-61"/>
      <point x="799" y="-100"/>
      <point x="829" y="-143"/>
      <point x="836" y="-178"/>
      <point x="836" y="-184" type="qcurve"/>
      <point x="836" y="-197"/>
      <point x="827" y="-236"/>
      <point x="795" y="-276"/>
      <point x="725" y="-309"/>
      <point x="664" y="-309" type="qcurve"/>
      <point x="586" y="-309"/>
      <point x="461" y="-283"/>
      <point x="430" y="-276" type="qcurve"/>
      <point x="444" y="-182" type="line"/>
      <point x="479" y="-193"/>
      <point x="594" y="-213"/>
      <point x="662" y="-213" type="qcurve"/>
      <point x="682" y="-213" type="line"/>
      <point x="698" y="-213"/>
      <point x="735" y="-201"/>
      <point x="735" y="-184" type="qcurve"/>
      <point x="735" y="-156"/>
      <point x="643" y="-137"/>
      <point x="582" y="-131" type="qcurve"/>
      <point x="596" y="-4" type="line"/>
      <point x="692" y="-4" type="line"/>
    </contour>
  </outline>
</glyph>
<glyph name="onesuperior" format="2">
  <advance width="624"/>
  <unicode hex="00B9"/>
  <outline>
    <contour>
      <point x="339" y="646" type="line"/>
      <point x="339" y="300" type="line"/>
      <point x="443" y="300" type="line"/>
      <point x="443" y="258" type="line"/>
      <point x="190" y="258" type="line"/>
      <point x="190" y="300" type="line"/>
      <point x="296" y="300" type="line"/>
      <point x="296" y="594" type="line"/>
      <point x="202" y="552" type="line"/>
      <point x="185" y="590" type="line"/>
      <point x="312" y="646" type="line"/>
    </contour>
  </outline>
</glyph>
<glyph name="ordmasculine" format="2">
  <advance width="624"/>
  <unicode hex="00BA"/>
  <outline>
    <contour>
      <point x="179" y="477" type="qcurve"/>
      <point x="179" y="534"/>
      <point x="253" y="603"/>
      <point x="312" y="603" type="qcurve"/>
      <point x="371" y="603"/>
      <point x="445" y="534"/>
      <point x="445" y="477" type="qcurve"/>
      <point x="445" y="421"/>
      <point x="371" y="353"/>
      <point x="312" y="353" type="qcurve"/>
      <point x="253" y="353"/>
      <point x="179" y="421"/>
    </contour>
    <contour>
      <point x="220" y="478" type="qcurve"/>
      <point x="220" y="439"/>
      <point x="271" y="390"/>
      <point x="312" y="390" type="qcurve"/>
      <point x="353" y="390"/>
      <point x="404" y="439"/>
      <point x="404" y="478" type="qcurve"/>
      <point x="404" y="517"/>
      <point x="353" y="566"/>
      <point x="312" y="566" type="qcurve"/>
      <point x="271" y="566"/>
      <point x="220" y="517"/>
    </contour>
    <contour>
      <point x="439" y="277" type="line"/>
      <point x="185" y="277" type="line"/>
      <point x="185" y="314" type="line"/>
      <point x="439" y="314" type="line"/>
    </contour>
  </outline>
</glyph>
<glyph name="guillemotright" format="2">
  <advance width="554"/>
  <unicode hex="00BB"/>
  <outline>
    <contour>
      <point x="164" y="52" type="line"/>
      <point x="52" y="52" type="line"/>
      <point x="193" y="280" type="line"/>
      <point x="52" y="506" type="line"/>
      <point x="164" y="506" type="line"/>
      <point x="306" y="280" type="line"/>
    </contour>
    <contour>
      <point x="362" y="52" type="line"/>
      <point x="250" y="52" type="line"/>
      <point x="389" y="280" type="line"/>
      <point x="250" y="506" type="line"/>
      <point x="362" y="506" type="line"/>
      <point x="502" y="280" type="line"/>
    </contour>
  </outline>
</glyph>
<glyph name="onequarter" format="2">
  <advance width="1278"/>
  <unicode hex="00BC"/>
  <outline>
    <contour>
      <point x="1253" y="98" type="line"/>
      <point x="1253" y="18" type="line"/>
      <point x="1139" y="18" type="line"/>
      <point x="1139" y="-88" type="line"/>
      <point x="1253" y="-88" type="line"/>
      <point x="1253" y="-164" type="line"/>
      <point x="915" y="-164" type="line"/>
      <point x="915" y="-88" type="line"/>
      <point x="1059" y="-88" type="line"/>
      <point x="1059" y="18" type="line"/>
      <point x="721" y="18" type="line"/>
      <point x="721" y="104" type="line"/>
      <point x="1036" y="631" type="line"/>
      <point x="1139" y="631" type="line"/>
      <point x="1139" y="98" type="line"/>
    </contour>
    <contour>
      <point x="1055" y="514" type="line"/>
      <point x="809" y="98" type="line"/>
      <point x="1059" y="98" type="line"/>
      <point x="1059" y="514" type="line"/>
    </contour>
    <contour>
      <point x="326" y="1325" type="line"/>
      <point x="326" y="610" type="line"/>
      <point x="487" y="610" type="line"/>
      <point x="487" y="530" type="line"/>
      <point x="82" y="530" type="line"/>
      <point x="82" y="610" type="line"/>
      <point x="246" y="610" type="line"/>
      <point x="246" y="1225" type="line"/>
      <point x="90" y="1161" type="line"/>
      <point x="55" y="1233" type="line"/>
      <point x="274" y="1325" type="line"/>
    </contour>
    <contour>
      <point x="188" y="-193" type="line"/>
      <point x="127" y="-145" type="line"/>
      <point x="1214" y="1348" type="line"/>
      <point x="1274" y="1307" type="line"/>
    </contour>
  </outline>
</glyph>
<glyph name="onehalf" format="2">
  <advance width="624"/>
  <unicode hex="00BD"/>
  <outline>
    <contour>
      <point x="152" y="647" type="line"/>
      <point x="152" y="298" type="line"/>
      <point x="231" y="298" type="line"/>
      <point x="231" y="259" type="line"/>
      <point x="32" y="259" type="line"/>
      <point x="32" y="298" type="line"/>
      <point x="112" y="298" type="line"/>
      <point x="112" y="598" type="line"/>
      <point x="36" y="567" type="line"/>
      <point x="20" y="602" type="line"/>
      <point x="128" y="647" type="line"/>
    </contour>
    <contour>
      <point x="78" y="-94" type="line"/>
      <point x="49" y="-71" type="line"/>
      <point x="578" y="658" type="line"/>
      <point x="608" y="638" type="line"/>
    </contour>
    <contour>
      <point x="614" y="-80" type="line"/>
      <point x="375" y="-80" type="line"/>
      <point x="375" y="-40" type="line"/>
      <point x="379" y="-36"/>
      <point x="380" y="-35"/>
      <point x="388" y="-29"/>
      <point x="410" y="-9"/>
      <point x="435" y="14" type="qcurve"/>
      <point x="461" y="38"/>
      <point x="498" y="74"/>
      <point x="524" y="99"/>
      <point x="542" y="116"/>
      <point x="550" y="126" type="qcurve"/>
      <point x="565" y="144"/>
      <point x="574" y="173"/>
      <point x="574" y="190" type="qcurve"/>
      <point x="574" y="224"/>
      <point x="529" y="267"/>
      <point x="495" y="267" type="qcurve"/>
      <point x="468" y="267"/>
      <point x="425" y="237"/>
      <point x="425" y="216" type="qcurve"/>
      <point x="425" y="214"/>
      <point x="426" y="209"/>
      <point x="426" y="204" type="qcurve"/>
      <point x="387" y="204" type="line"/>
      <point x="387" y="251" type="line"/>
      <point x="432" y="307"/>
      <point x="497" y="307" type="qcurve"/>
      <point x="522" y="307"/>
      <point x="566" y="289"/>
      <point x="597" y="258"/>
      <point x="615" y="215"/>
      <point x="615" y="190" type="qcurve"/>
      <point x="615" y="154"/>
      <point x="572" y="85"/>
      <point x="516" y="35" type="qcurve"/>
      <point x="451" y="-22" type="line"/>
      <point x="432" y="-41" type="line"/>
      <point x="578" y="-41" type="line"/>
      <point x="578" y="19" type="line"/>
      <point x="614" y="19" type="line"/>
    </contour>
  </outline>
</glyph>
<glyph name="threequarters" format="2">
  <advance width="624"/>
  <unicode hex="00BE"/>
  <outline>
    <contour>
      <point x="522" y="251" type="line"/>
      <point x="402" y="48" type="line"/>
      <point x="524" y="48" type="line"/>
      <point x="524" y="251" type="line"/>
    </contour>
    <contour>
      <point x="619" y="48" type="line"/>
      <point x="619" y="9" type="line"/>
      <point x="564" y="9" type="line"/>
      <point x="564" y="-43" type="line"/>
      <point x="619" y="-43" type="line"/>
      <point x="619" y="-80" type="line"/>
      <point x="454" y="-80" type="line"/>
      <point x="454" y="-43" type="line"/>
      <point x="524" y="-43" type="line"/>
      <point x="524" y="9" type="line"/>
      <point x="359" y="9" type="line"/>
      <point x="359" y="51" type="line"/>
      <point x="514" y="308" type="line"/>
      <point x="564" y="308" type="line"/>
      <point x="564" y="48" type="line"/>
    </contour>
    <contour>
      <point x="30" y="604" type="line"/>
      <point x="68" y="628"/>
      <point x="115" y="647"/>
      <point x="141" y="647" type="qcurve"/>
      <point x="164" y="647"/>
      <point x="205" y="631"/>
      <point x="235" y="605"/>
      <point x="252" y="569"/>
      <point x="252" y="548" type="qcurve"/>
      <point x="252" y="522"/>
      <point x="232" y="484"/>
      <point x="210" y="466" type="qcurve"/>
      <point x="270" y="432"/>
      <point x="270" y="368" type="qcurve"/>
      <point x="270" y="316"/>
      <point x="198" y="251"/>
      <point x="141" y="251" type="qcurve"/>
      <point x="130" y="251"/>
      <point x="110" y="253"/>
      <point x="87" y="259"/>
      <point x="60" y="268"/>
      <point x="42" y="276" type="qcurve"/>
      <point x="23" y="283" type="line"/>
      <point x="38" y="319" type="line"/>
      <point x="74" y="303"/>
      <point x="121" y="290"/>
      <point x="144" y="290" type="qcurve"/>
      <point x="181" y="290"/>
      <point x="229" y="333"/>
      <point x="229" y="368" type="qcurve"/>
      <point x="229" y="404"/>
      <point x="185" y="444"/>
      <point x="141" y="442" type="qcurve"/>
      <point x="119" y="441" type="line"/>
      <point x="119" y="479" type="line"/>
      <point x="146" y="480"/>
      <point x="172" y="486"/>
      <point x="183" y="494" type="qcurve"/>
      <point x="210" y="513"/>
      <point x="210" y="547" type="qcurve"/>
      <point x="210" y="574"/>
      <point x="172" y="607"/>
      <point x="141" y="607" type="qcurve"/>
      <point x="124" y="607"/>
      <point x="90" y="595"/>
      <point x="66" y="580" type="qcurve"/>
      <point x="50" y="571" type="line"/>
    </contour>
    <contour>
      <point x="99" y="-94" type="line"/>
      <point x="70" y="-71" type="line"/>
      <point x="600" y="658" type="line"/>
      <point x="629" y="638" type="line"/>
    </contour>
  </outline>
</glyph>
<glyph name="questiondown" format="2">
  <advance width="1278"/>
  <unicode hex="00BF"/>
  <outline>
    <contour>
      <point x="1010" y="-223" type="line"/>
      <point x="954" y="-244"/>
      <point x="866" y="-270"/>
      <point x="788" y="-289"/>
      <point x="709" y="-299"/>
      <point x="664" y="-299" type="qcurve"/>
      <point x="563" y="-299"/>
      <point x="410" y="-238"/>
      <point x="307" y="-143"/>
      <point x="256" y="-16"/>
      <point x="256" y="51" type="qcurve"/>
      <point x="256" y="145"/>
      <point x="336" y="270"/>
      <point x="455" y="352"/>
      <point x="588" y="397"/>
      <point x="641" y="414" type="qcurve"/>
      <point x="641" y="541" type="line"/>
      <point x="745" y="541" type="line"/>
      <point x="745" y="334" type="line"/>
      <point x="741" y="332"/>
      <point x="713" y="326"/>
      <point x="702" y="324" type="qcurve"/>
      <point x="649" y="311"/>
      <point x="530" y="274"/>
      <point x="432" y="213"/>
      <point x="367" y="117"/>
      <point x="367" y="45" type="qcurve"/>
      <point x="367" y="12"/>
      <point x="391" y="-70"/>
      <point x="459" y="-145"/>
      <point x="573" y="-195"/>
      <point x="662" y="-195" type="qcurve"/>
      <point x="741" y="-195"/>
      <point x="850" y="-164"/>
      <point x="903" y="-143" type="qcurve"/>
      <point x="903" y="-6" type="line"/>
      <point x="1010" y="-6" type="line"/>
    </contour>
    <contour>
      <point x="700" y="696" type="qcurve"/>
      <point x="639" y="696"/>
      <point x="553" y="770"/>
      <point x="553" y="827" type="qcurve"/>
      <point x="553" y="885"/>
      <point x="641" y="958"/>
      <point x="700" y="958" type="qcurve"/>
      <point x="760" y="958"/>
      <point x="848" y="885"/>
      <point x="848" y="827" type="qcurve"/>
      <point x="848" y="770"/>
      <point x="762" y="696"/>
    </contour>
  </outline>
</glyph>
<glyph name="Aacute" format="2">
  <advance width="1278"/>
  <unicode hex="00C1"/>
  <outline>
    <contour>
      <point x="1149" y="100" type="line"/>
      <point x="1257" y="100" type="line"/>
      <point x="1257" y="0" type="line"/>
      <point x="819" y="0" type="line"/>
      <point x="819" y="100" type="line"/>
      <point x="1036" y="100" type="line"/>
      <point x="915" y="395" type="line"/>
      <point x="360" y="395" type="line"/>
      <point x="242" y="100" type="line"/>
      <point x="459" y="100" type="line"/>
      <point x="459" y="0" type="line"/>
      <point x="20" y="0" type="line"/>
      <point x="20" y="100" type="line"/>
      <point x="135" y="100" type="line"/>
      <point x="545" y="1100" type="line"/>
      <point x="242" y="1100" type="line"/>
      <point x="242" y="1200" type="line"/>
      <point x="698" y="1200" type="line"/>
    </contour>
    <contour>
      <point x="397" y="489" type="line"/>
      <point x="881" y="489" type="line"/>
      <point x="639" y="1073" type="line"/>
    </contour>
    <contour>
      <point x="459" y="1354" type="line"/>
      <point x="647" y="1599" type="line"/>
      <point x="874" y="1599" type="line"/>
      <point x="571" y="1354" type="line"/>
    </contour>
  </outline>
</glyph>
<glyph name="Acircumflex" format="2">
  <advance width="624"/>
  <unicode hex="00C2"/>
  <outline>
    <contour>
      <point x="561" y="49" type="line"/>
      <point x="614" y="49" type="line"/>
      <point x="614" y="0" type="line"/>
      <point x="400" y="0" type="line"/>
      <point x="400" y="49" type="line"/>
      <point x="506" y="49" type="line"/>
      <point x="447" y="193" type="line"/>
      <point x="176" y="193" type="line"/>
      <point x="118" y="49" type="line"/>
      <point x="224" y="49" type="line"/>
      <point x="224" y="0" type="line"/>
      <point x="10" y="0" type="line"/>
      <point x="10" y="49" type="line"/>
      <point x="66" y="49" type="line"/>
      <point x="266" y="537" type="line"/>
      <point x="118" y="537" type="line"/>
      <point x="118" y="586" type="line"/>
      <point x="341" y="586" type="line"/>
    </contour>
    <contour>
      <point x="194" y="239" type="line"/>
      <point x="430" y="239" type="line"/>
      <point x="312" y="524" type="line"/>
    </contour>
    <contour>
      <point x="445" y="686" type="line"/>
      <point x="412" y="660" type="line"/>
      <point x="307" y="729" type="line"/>
      <point x="212" y="660" type="line"/>
      <point x="178" y="685" type="line"/>
      <point x="269" y="784" type="line"/>
      <point x="349" y="784" type="line"/>
    </contour>
  </outline>
</glyph>
<glyph name="Atilde" format="2">
  <advance width="1278"/>
  <unicode hex="00C3"/>
  <outline>
    <contour>
      <point x="1149" y="100" type="line"/>
      <point x="1257" y="100" type="line"/>
      <point x="1257" y="0" type="line"/>
      <point x="819" y="0" type="line"/>
      <point x="819" y="100" type="line"/>
      <point x="1036" y="100" type="line"/>
      <point x="915" y="395" type="line"/>
      <point x="360" y="395" type="line"/>
      <point x="242" y="100" type="line"/>
      <point x="459" y="100" type="line"/>
      <point x="459" y="0" type="line"/>
      <point x="20" y="0" type="line"/>
      <point x="20" y="100" type="line"/>
      <point x="135" y="100" type="line"/>
      <point x="545" y="1100" type="line"/>
      <point x="242" y="1100" type="line"/>
      <point x="242" y="1200" type="line"/>
      <point x="698" y="1200" type="line"/>
    </contour>
    <contour>
      <point x="397" y="489" type="line"/>
      <point x="881" y="489" type="line"/>
      <point x="639" y="1073" type="line"/>
    </contour>
    <contour>
      <point x="979" y="1575" type="line"/>
      <point x="975" y="1569"/>
      <point x="975" y="1559" type="qcurve"/>
      <point x="950" y="1470"/>
      <point x="836" y="1378"/>
      <point x="766" y="1378" type="qcurve"/>
      <point x="731" y="1378"/>
      <point x="664" y="1407"/>
      <point x="616" y="1446" type="qcurve"/>
      <point x="565" y="1485"/>
      <point x="522" y="1507"/>
      <point x="498" y="1507" type="qcurve"/>
      <point x="457" y="1507"/>
      <point x="406" y="1440"/>
      <point x="387" y="1397" type="qcurve"/>
      <point x="387" y="1395"/>
      <point x="385" y="1389" type="qcurve"/>
      <point x="383" y="1384" type="line"/>
      <point x="299" y="1415" type="line"/>
      <point x="328" y="1495"/>
      <point x="420" y="1604"/>
      <point x="498" y="1604" type="qcurve"/>
      <point x="549" y="1604"/>
      <point x="623" y="1561"/>
      <point x="655" y="1532" type="qcurve"/>
      <point x="696" y="1501"/>
      <point x="750" y="1475"/>
      <point x="774" y="1475" type="qcurve"/>
      <point x="801" y="1475"/>
      <point x="842" y="1501"/>
      <point x="870" y="1542"/>
      <point x="889" y="1585"/>
      <point x="895" y="1602" type="qcurve"/>
    </contour>
  </outline>
</glyph>
<glyph name="Adieresis" format="2">
  <advance width="624"/>
  <unicode hex="00C4"/>
  <outline>
    <contour>
      <point x="561" y="49" type="line"/>
      <point x="614" y="49" type="line"/>
      <point x="614" y="0" type="line"/>
      <point x="400" y="0" type="line"/>
      <point x="400" y="49" type="line"/>
      <point x="506" y="49" type="line"/>
      <point x="447" y="193" type="line"/>
      <point x="176" y="193" type="line"/>
      <point x="118" y="49" type="line"/>
      <point x="224" y="49" type="line"/>
      <point x="224" y="0" type="line"/>
      <point x="10" y="0" type="line"/>
      <point x="10" y="49" type="line"/>
      <point x="66" y="49" type="line"/>
      <point x="266" y="537" type="line"/>
      <point x="118" y="537" type="line"/>
      <point x="118" y="586" type="line"/>
      <point x="341" y="586" type="line"/>
    </contour>
    <contour>
      <point x="194" y="239" type="line"/>
      <point x="430" y="239" type="line"/>
      <point x="312" y="524" type="line"/>
    </contour>
    <contour>
      <point x="282" y="784" type="line"/>
      <point x="282" y="672" type="line"/>
      <point x="207" y="672" type="line"/>
      <point x="207" y="784" type="line"/>
    </contour>
    <contour>
      <point x="417" y="784" type="line"/>
      <point x="417" y="672" type="line"/>
      <point x="342" y="672" type="line"/>
      <point x="342" y="784" type="line"/>
    </contour>
  </outline>
</glyph>
<glyph name="Aring" format="2">
  <advance width="624"/>
  <unicode hex="00C5"/>
  <outline>
    <contour>
      <point x="561" y="49" type="line"/>
      <point x="614" y="49" type="line"/>
      <point x="614" y="0" type="line"/>
      <point x="400" y="0" type="line"/>
      <point x="400" y="49" type="line"/>
      <point x="506" y="49" type="line"/>
      <point x="447" y="193" type="line"/>
      <point x="176" y="193" type="line"/>
      <point x="118" y="49" type="line"/>
      <point x="224" y="49" type="line"/>
      <point x="224" y="0" type="line"/>
      <point x="10" y="0" type="line"/>
      <point x="10" y="49" type="line"/>
      <point x="66" y="49" type="line"/>
      <point x="266" y="537" type="line"/>
      <point x="118" y="537" type="line"/>
      <point x="118" y="586" type="line"/>
      <point x="341" y="586" type="line"/>
    </contour>
    <contour>
      <point x="194" y="239" type="line"/>
      <point x="430" y="239" type="line"/>
      <point x="312" y="524" type="line"/>
    </contour>
    <contour>
      <point x="312" y="806" type="qcurve"/>
      <point x="345" y="806"/>
      <point x="391" y="760"/>
      <point x="391" y="727" type="qcurve"/>
      <point x="391" y="694"/>
      <point x="345" y="648"/>
      <point x="312" y="648" type="qcurve"/>
      <point x="279" y="648"/>
      <point x="233" y="694"/>
      <point x="233" y="727" type="qcurve"/>
      <point x="233" y="760"/>
      <point x="279" y="806"/>
    </contour>
    <contour>
      <point x="313" y="766" type="qcurve"/>
      <point x="296" y="766"/>
      <point x="272" y="746"/>
      <point x="272" y="727" type="qcurve"/>
      <point x="272" y="710"/>
      <point x="296" y="687"/>
      <point x="313" y="687" type="qcurve"/>
      <point x="330" y="687"/>
      <point x="352" y="710"/>
      <point x="352" y="727" type="qcurve"/>
      <point x="352" y="744"/>
      <point x="330" y="766"/>
    </contour>
  </outline>
</glyph>
<glyph name="AE" format="2">
  <advance width="1278"/>
  <unicode hex="00C6"/>
  <outline>
    <contour>
      <point x="1169" y="815" type="line"/>
      <point x="1073" y="815" type="line"/>
      <point x="1055" y="1100" type="line"/>
      <point x="750" y="1100" type="line"/>
      <point x="750" y="686" type="line"/>
      <point x="889" y="686" type="line"/>
      <point x="889" y="842" type="line"/>
      <point x="987" y="842" type="line"/>
      <point x="987" y="430" type="line"/>
      <point x="889" y="430" type="line"/>
      <point x="889" y="586" type="line"/>
      <point x="750" y="586" type="line"/>
      <point x="750" y="100" type="line"/>
      <point x="1073" y="100" type="line"/>
      <point x="1085" y="395" type="line"/>
      <point x="1184" y="395" type="line"/>
      <point x="1184" y="0" type="line"/>
      <point x="643" y="0" type="line"/>
      <point x="643" y="391" type="line"/>
      <point x="381" y="391" type="line"/>
      <point x="260" y="100" type="line"/>
      <point x="449" y="100" type="line"/>
      <point x="449" y="0" type="line"/>
      <point x="41" y="0" type="line"/>
      <point x="41" y="100" type="line"/>
      <point x="154" y="100" type="line"/>
      <point x="555" y="1100" type="line"/>
      <point x="336" y="1100" type="line"/>
      <point x="336" y="1200" type="line"/>
      <point x="1169" y="1200" type="line"/>
    </contour>
    <contour>
      <point x="639" y="1073" type="line"/>
      <point x="418" y="492" type="line"/>
      <point x="643" y="492" type="line"/>
      <point x="643" y="1073" type="line"/>
    </contour>
  </outline>
</glyph>
<glyph name="Ccedilla" format="2">
  <advance width="1278"/>
  <unicode hex="00C7"/>
  <outline>
    <contour>
      <point x="754" y="-53" type="line"/>
      <point x="776" y="-53"/>
      <point x="827" y="-70"/>
      <point x="870" y="-104"/>
      <point x="903" y="-154"/>
      <point x="903" y="-184" type="qcurve"/>
      <point x="903" y="-195"/>
      <point x="895" y="-233"/>
      <point x="862" y="-276"/>
      <point x="793" y="-309"/>
      <point x="733" y="-309" type="qcurve"/>
      <point x="653" y="-309"/>
      <point x="528" y="-283"/>
      <point x="498" y="-276" type="qcurve"/>
      <point x="514" y="-182" type="line"/>
      <point x="555" y="-195"/>
      <point x="662" y="-213"/>
      <point x="735" y="-213" type="qcurve"/>
      <point x="750" y="-213" type="line"/>
      <point x="766" y="-213"/>
      <point x="803" y="-201"/>
      <point x="803" y="-184" type="qcurve"/>
      <point x="803" y="-156"/>
      <point x="711" y="-137"/>
      <point x="649" y="-131" type="qcurve"/>
      <point x="662" y="-37" type="line"/>
      <point x="512" y="-20"/>
      <point x="309" y="115"/>
      <point x="188" y="305"/>
      <point x="137" y="520"/>
      <point x="137" y="614" type="qcurve"/>
      <point x="137" y="752"/>
      <point x="223" y="981"/>
      <point x="377" y="1147"/>
      <point x="586" y="1235"/>
      <point x="707" y="1235" type="qcurve"/>
      <point x="741" y="1235"/>
      <point x="872" y="1217"/>
      <point x="942" y="1174" type="qcurve"/>
      <point x="946" y="1169"/>
      <point x="967" y="1153"/>
      <point x="991" y="1133"/>
      <point x="1012" y="1120"/>
      <point x="1016" y="1120" type="qcurve"/>
      <point x="1022" y="1120"/>
      <point x="1032" y="1141"/>
      <point x="1040" y="1174"/>
      <point x="1047" y="1208"/>
      <point x="1049" y="1223" type="qcurve"/>
      <point x="1126" y="1223" type="line"/>
      <point x="1122" y="1087"/>
      <point x="1137" y="901"/>
      <point x="1149" y="815" type="qcurve"/>
      <point x="1049" y="799" type="line"/>
      <point x="1042" y="836"/>
      <point x="1014" y="948"/>
      <point x="944" y="1053"/>
      <point x="813" y="1128"/>
      <point x="702" y="1128" type="qcurve"/>
      <point x="623" y="1128"/>
      <point x="463" y="1067"/>
      <point x="332" y="942"/>
      <point x="252" y="748"/>
      <point x="252" y="616" type="qcurve"/>
      <point x="252" y="514"/>
      <point x="303" y="317"/>
      <point x="416" y="164"/>
      <point x="590" y="70"/>
      <point x="711" y="70" type="qcurve"/>
      <point x="801" y="70"/>
      <point x="954" y="119"/>
      <point x="1075" y="190"/>
      <point x="1167" y="264"/>
      <point x="1194" y="287" type="qcurve"/>
      <point x="1266" y="211" type="line"/>
      <point x="1157" y="109"/>
      <point x="901" y="-23"/>
      <point x="754" y="-37" type="qcurve"/>
    </contour>
  </outline>
</glyph>
<glyph name="Egrave" format="2">
  <advance width="624"/>
  <unicode hex="00C8"/>
  <outline>
    <contour>
      <point x="557" y="394" type="line"/>
      <point x="510" y="394" type="line"/>
      <point x="499" y="537" type="line"/>
      <point x="200" y="537" type="line"/>
      <point x="200" y="334" type="line"/>
      <point x="368" y="334" type="line"/>
      <point x="368" y="410" type="line"/>
      <point x="416" y="410" type="line"/>
      <point x="416" y="210" type="line"/>
      <point x="368" y="210" type="line"/>
      <point x="368" y="285" type="line"/>
      <point x="200" y="285" type="line"/>
      <point x="200" y="49" type="line"/>
      <point x="510" y="49" type="line"/>
      <point x="515" y="191" type="line"/>
      <point x="563" y="191" type="line"/>
      <point x="563" y="0" type="line"/>
      <point x="59" y="0" type="line"/>
      <point x="59" y="49" type="line"/>
      <point x="148" y="49" type="line"/>
      <point x="148" y="537" type="line"/>
      <point x="59" y="537" type="line"/>
      <point x="59" y="586" type="line"/>
      <point x="553" y="586" type="line"/>
    </contour>
    <contour>
      <point x="389" y="661" type="line"/>
      <point x="335" y="661" type="line"/>
      <point x="198" y="781" type="line"/>
      <point x="309" y="781" type="line"/>
    </contour>
  </outline>
</glyph>
<glyph name="Eacute" format="2">
  <advance width="624"/>
  <unicode hex="00C9"/>
  <outline>
    <contour>
      <point x="557" y="394" type="line"/>
      <point x="510" y="394" type="line"/>
      <point x="499" y="537" type="line"/>
      <point x="200" y="537" type="line"/>
      <point x="200" y="334" type="line"/>
      <point x="368" y="334" type="line"/>
      <point x="368" y="410" type="line"/>
      <point x="416" y="410" type="line"/>
      <point x="416" y="210" type="line"/>
      <point x="368" y="210" type="line"/>
      <point x="368" y="285" type="line"/>
      <point x="200" y="285" type="line"/>
      <point x="200" y="49" type="line"/>
      <point x="510" y="49" type="line"/>
      <point x="515" y="191" type="line"/>
      <point x="563" y="191" type="line"/>
      <point x="563" y="0" type="line"/>
      <point x="59" y="0" type="line"/>
      <point x="59" y="49" type="line"/>
      <point x="148" y="49" type="line"/>
      <point x="148" y="537" type="line"/>
      <point x="59" y="537" type="line"/>
      <point x="59" y="586" type="line"/>
      <point x="553" y="586" type="line"/>
    </contour>
    <contour>
      <point x="224" y="661" type="line"/>
      <point x="316" y="781" type="line"/>
      <point x="427" y="781" type="line"/>
      <point x="279" y="661" type="line"/>
    </contour>
  </outline>
</glyph>
<glyph name="Ecircumflex" format="2">
  <advance width="624"/>
  <unicode hex="00CA"/>
  <outline>
    <contour>
      <point x="557" y="394" type="line"/>
      <point x="510" y="394" type="line"/>
      <point x="499" y="537" type="line"/>
      <point x="200" y="537" type="line"/>
      <point x="200" y="334" type="line"/>
      <point x="368" y="334" type="line"/>
      <point x="368" y="410" type="line"/>
      <point x="416" y="410" type="line"/>
      <point x="416" y="210" type="line"/>
      <point x="368" y="210" type="line"/>
      <point x="368" y="285" type="line"/>
      <point x="200" y="285" type="line"/>
      <point x="200" y="49" type="line"/>
      <point x="510" y="49" type="line"/>
      <point x="515" y="191" type="line"/>
      <point x="563" y="191" type="line"/>
      <point x="563" y="0" type="line"/>
      <point x="59" y="0" type="line"/>
      <point x="59" y="49" type="line"/>
      <point x="148" y="49" type="line"/>
      <point x="148" y="537" type="line"/>
      <point x="59" y="537" type="line"/>
      <point x="59" y="586" type="line"/>
      <point x="553" y="586" type="line"/>
    </contour>
    <contour>
      <point x="445" y="686" type="line"/>
      <point x="412" y="660" type="line"/>
      <point x="307" y="729" type="line"/>
      <point x="212" y="660" type="line"/>
      <point x="178" y="685" type="line"/>
      <point x="269" y="784" type="line"/>
      <point x="349" y="784" type="line"/>
    </contour>
  </outline>
</glyph>
<glyph name="Edieresis" format="2">
  <advance width="624"/>
  <unicode hex="00CB"/>
  <outline>
    <contour>
      <point x="557" y="394" type="line"/>
      <point x="510" y="394" type="line"/>
      <point x="499" y="537" type="line"/>
      <point x="200" y="537" type="line"/>
      <point x="200" y="334" type="line"/>
      <point x="368" y="334" type="line"/>
      <point x="368" y="410" type="line"/>
      <point x="416" y="410" type="line"/>
      <point x="416" y="210" type="line"/>
      <point x="368" y="210" type="line"/>
      <point x="368" y="285" type="line"/>
      <point x="200" y="285" type="line"/>
      <point x="200" y="49" type="line"/>
      <point x="510" y="49" type="line"/>
      <point x="515" y="191" type="line"/>
      <point x="563" y="191" type="line"/>
      <point x="563" y="0" type="line"/>
      <point x="59" y="0" type="line"/>
      <point x="59" y="49" type="line"/>
      <point x="148" y="49" type="line"/>
      <point x="148" y="537" type="line"/>
      <point x="59" y="537" type="line"/>
      <point x="59" y="586" type="line"/>
      <point x="553" y="586" type="line"/>
    </contour>
    <contour>
      <point x="282" y="784" type="line"/>
      <point x="282" y="672" type="line"/>
      <point x="207" y="672" type="line"/>
      <point x="207" y="784" type="line"/>
    </contour>
    <contour>
      <point x="417" y="784" type="line"/>
      <point x="417" y="672" type="line"/>
      <point x="342" y="672" type="line"/>
      <point x="342" y="784" type="line"/>
    </contour>
  </outline>
</glyph>
<glyph name="Igrave" format="2">
  <advance width="624"/>
  <unicode hex="00CC"/>
  <outline>
    <contour>
      <point x="520" y="537" type="line"/>
      <point x="338" y="537" type="line"/>
      <point x="338" y="49" type="line"/>
      <point x="520" y="49" type="line"/>
      <point x="520" y="0" type="line"/>
      <point x="104" y="0" type="line"/>
      <point x="104" y="49" type="line"/>
      <point x="286" y="49" type="line"/>
      <point x="286" y="537" type="line"/>
      <point x="104" y="537" type="line"/>
      <point x="104" y="586" type="line"/>
      <point x="520" y="586" type="line"/>
    </contour>
    <contour>
      <point x="389" y="661" type="line"/>
      <point x="335" y="661" type="line"/>
      <point x="198" y="781" type="line"/>
      <point x="309" y="781" type="line"/>
    </contour>
  </outline>
</glyph>
<glyph name="Iacute" format="2">
  <advance width="624"/>
  <unicode hex="00CD"/>
  <outline>
    <contour>
      <point x="520" y="537" type="line"/>
      <point x="338" y="537" type="line"/>
      <point x="338" y="49" type="line"/>
      <point x="520" y="49" type="line"/>
      <point x="520" y="0" type="line"/>
      <point x="104" y="0" type="line"/>
      <point x="104" y="49" type="line"/>
      <point x="286" y="49" type="line"/>
      <point x="286" y="537" type="line"/>
      <point x="104" y="537" type="line"/>
      <point x="104" y="586" type="line"/>
      <point x="520" y="586" type="line"/>
    </contour>
    <contour>
      <point x="224" y="661" type="line"/>
      <point x="316" y="781" type="line"/>
      <point x="427" y="781" type="line"/>
      <point x="279" y="661" type="line"/>
    </contour>
  </outline>
</glyph>
<glyph name="Icircumflex" format="2">
  <advance width="1278"/>
  <unicode hex="00CE"/>
  <outline>
    <contour>
      <point x="1065" y="1100" type="line"/>
      <point x="692" y="1100" type="line"/>
      <point x="692" y="100" type="line"/>
      <point x="1065" y="100" type="line"/>
      <point x="1065" y="0" type="line"/>
      <point x="213" y="0" type="line"/>
      <point x="213" y="100" type="line"/>
      <point x="586" y="100" type="line"/>
      <point x="586" y="1100" type="line"/>
      <point x="213" y="1100" type="line"/>
      <point x="213" y="1200" type="line"/>
      <point x="1065" y="1200" type="line"/>
    </contour>
    <contour>
      <point x="911" y="1405" type="line"/>
      <point x="844" y="1352" type="line"/>
      <point x="629" y="1493" type="line"/>
      <point x="434" y="1352" type="line"/>
      <point x="365" y="1403" type="line"/>
      <point x="551" y="1606" type="line"/>
      <point x="715" y="1606" type="line"/>
    </contour>
  </outline>
</glyph>
<glyph name="Idieresis" format="2">
  <advance width="624"/>
  <unicode hex="00CF"/>
  <outline>
    <contour>
      <point x="520" y="537" type="line"/>
      <point x="338" y="537" type="line"/>
      <point x="338" y="49" type="line"/>
      <point x="520" y="49" type="line"/>
      <point x="520" y="0" type="line"/>
      <point x="104" y="0" type="line"/>
      <point x="104" y="49" type="line"/>
      <point x="286" y="49" type="line"/>
      <point x="286" y="537" type="line"/>
      <point x="104" y="537" type="line"/>
      <point x="104" y="586" type="line"/>
      <point x="520" y="586" type="line"/>
    </contour>
    <contour>
      <point x="282" y="784" type="line"/>
      <point x="282" y="672" type="line"/>
      <point x="207" y="672" type="line"/>
      <point x="207" y="784" type="line"/>
    </contour>
    <contour>
      <point x="417" y="784" type="line"/>
      <point x="417" y="672" type="line"/>
      <point x="342" y="672" type="line"/>
      <point x="342" y="784" type="line"/>
    </contour>
  </outline>
</glyph>
<glyph name="Ntilde" format="2">
  <advance width="1278"/>
  <unicode hex="00D1"/>
  <outline>
    <contour>
      <point x="983" y="90" type="line"/>
      <point x="1022" y="90" type="line"/>
      <point x="1022" y="1100" type="line"/>
      <point x="784" y="1100" type="line"/>
      <point x="784" y="1200" type="line"/>
      <point x="1260" y="1200" type="line"/>
      <point x="1260" y="1100" type="line"/>
      <point x="1120" y="1100" type="line"/>
      <point x="1120" y="-29" type="line"/>
      <point x="930" y="-29" type="line"/>
      <point x="360" y="1100" type="line"/>
      <point x="324" y="1100" type="line"/>
      <point x="324" y="100" type="line"/>
      <point x="565" y="100" type="line"/>
      <point x="565" y="0" type="line"/>
      <point x="59" y="0" type="line"/>
      <point x="59" y="100" type="line"/>
      <point x="225" y="100" type="line"/>
      <point x="225" y="1100" type="line"/>
      <point x="59" y="1100" type="line"/>
      <point x="59" y="1200" type="line"/>
      <point x="424" y="1200" type="line"/>
    </contour>
    <contour>
      <point x="979" y="1575" type="line"/>
      <point x="975" y="1569"/>
      <point x="975" y="1559" type="qcurve"/>
      <point x="950" y="1470"/>
      <point x="836" y="1378"/>
      <point x="766" y="1378" type="qcurve"/>
      <point x="731" y="1378"/>
      <point x="664" y="1407"/>
      <point x="616" y="1446" type="qcurve"/>
      <point x="565" y="1485"/>
      <point x="522" y="1507"/>
      <point x="498" y="1507" type="qcurve"/>
      <point x="457" y="1507"/>
      <point x="406" y="1440"/>
      <point x="387" y="1397" type="qcurve"/>
      <point x="387" y="1395"/>
      <point x="385" y="1389" type="qcurve"/>
      <point x="383" y="1384" type="line"/>
      <point x="299" y="1415" type="line"/>
      <point x="328" y="1495"/>
      <point x="420" y="1604"/>
      <point x="498" y="1604" type="qcurve"/>
      <point x="549" y="1604"/>
      <point x="623" y="1561"/>
      <point x="655" y="1532" type="qcurve"/>
      <point x="696" y="1501"/>
      <point x="750" y="1475"/>
      <point x="774" y="1475" type="qcurve"/>
      <point x="801" y="1475"/>
      <point x="842" y="1501"/>
      <point x="870" y="1542"/>
      <point x="889" y="1585"/>
      <point x="895" y="1602" type="qcurve"/>
    </contour>
  </outline>
</glyph>
